
<svg version="1.0" xmlns="http://www.w3.org/2000/svg"
 width="545.000000pt" height="447.000000pt" viewBox="0 0 545.000000 447.000000"
 preserveAspectRatio="xMidYMid meet" >
  <defs>
    <linearGradient id="myGradients" >
      <stop offset="0%" stop-color="#FF7500" />  
      <stop offset="100%" stop-color="#FFD100" />
    </linearGradient>
  </defs>

<defs>
  <linearGradient id="myGradient"  gradientTransform="rotate(90)">
    <stop offset="0%" stop-color="#0059FF" />
    <stop offset="100%" stop-color="#000FFF" />
  </linearGradient>
</defs>
<g transform="translate(0.000000,447.000000)  scale(0.100000,-0.100000)"
 >

<path fill="url('#myGradients')" d="M1820 2507 c-21 -12 -358 -326 -581 -543 l-122 -119 0 -230 c0 -287
-5 -275 120 -275 78 0 91 2 100 19 6 12 10 98 10 210 l0 189 78 71 c42 39 79
71 82 71 3 0 65 -87 137 -193 73 -105 161 -232 196 -282 l63 -90 102 -3 c91
-2 103 -1 122 18 11 11 20 26 20 34 0 7 -103 160 -230 339 -126 180 -230 332
-230 340 0 8 86 94 190 191 187 174 205 198 182 232 -16 24 -55 34 -134 34
-46 -1 -93 -6 -105 -13z"/>

<path fill="url('#myGradients')" d="M2294 2508 c-31 -18 -35 -28 -35 -109 0 -119 -22 -110 316 -116 298
-6 319 -9 356 -49 45 -51 23 -144 -42 -176 -30 -15 -66 -18 -250 -19 -253 0
-357 -9 -370 -29 -6 -8 -10 -49 -10 -91 0 -115 -17 -109 316 -109 316 0 363
-7 408 -61 51 -61 27 -148 -51 -181 -19 -8 -126 -13 -338 -16 -195 -2 -314 -7
-322 -14 -20 -16 -17 -172 3 -192 13 -14 50 -16 257 -15 433 1 526 17 621 107
64 61 86 121 86 231 0 111 -17 157 -86 228 l-42 45 29 46 c16 26 34 74 40 107
39 210 -84 380 -298 415 -84 14 -563 12 -588 -2z"/>

<path fill="url('#myGradients')" d="M3815 2561 c-22 -9 -50 -69 -195 -411 -50 -118 -100 -235 -111 -260
-33 -69 -56 -143 -51 -160 9 -31 36 -40 122 -40 70 0 90 3 102 18 8 9 46 94
83 187 78 198 135 325 145 325 4 0 38 -73 75 -162 38 -90 95 -225 127 -301 32
-75 58 -142 58 -147 0 -6 -137 -10 -390 -10 l-391 0 -30 -67 c-42 -94 -45
-114 -20 -137 20 -18 34 -19 304 -11 155 5 404 7 554 6 259 -3 271 -2 281 16
17 32 0 93 -73 248 -18 39 -110 255 -205 482 -104 248 -179 414 -189 418 -28
11 -175 15 -196 6z"/>

<path fill="url('#myGradients')"  d="M1134 2502 c-28 -18 -34 -56 -34 -201 0 -189 1 -191 118 -191 113 0
112 -2 112 196 0 203 0 204 -108 204 -42 0 -82 -4 -88 -8z"/>

</g>
</svg>
