
<svg version="1.0" xmlns="http://www.w3.org/2000/svg"
 width="545.000000pt" height="447.000000pt" viewBox="0 0 545.000000 447.000000"
 preserveAspectRatio="xMidYMid meet">
  <defs>
    <linearGradient id="myGradients" >
      <stop offset="0%" stop-color="#FF7500" />
       
      <stop offset="100%" stop-color="#FFD100" />
    </linearGradient>
  </defs>

<defs>
  <linearGradient id="myGradient"  gradientTransform="rotate(90)">
    <stop offset="0%" stop-color="#0059FF" />
    <stop offset="100%" stop-color="#000FFF" />
  </linearGradient>
</defs>
<g transform="translate(0.000000,447.000000)  scale(0.100000,-0.100000)"
 >
<path fill="url('#myGradients')" d="M1987 3983 c-4 -3 -7 -161 -7 -349 l0 -343 338 -3 c185 -2 487 -2
670 0 l332 3 0 349 0 350 -663 0 c-365 0 -667 -3 -670 -7z m1321 -345 l-3
-323 -27 -3 c-46 -5 -65 11 -60 54 3 26 14 45 38 66 40 36 41 45 10 106 -38
73 -81 115 -111 108 -28 -7 -33 5 -10 24 8 7 15 28 15 48 0 76 -84 111 -135
56 -30 -33 -32 -73 -4 -108 14 -18 16 -26 7 -26 -7 0 -32 -10 -55 -22 -36 -19
-46 -21 -60 -10 -10 7 -32 22 -50 33 -17 11 -55 56 -83 99 -29 44 -56 80 -61
80 -23 0 -14 -26 36 -99 44 -64 54 -85 49 -105 -6 -27 29 -93 76 -144 20 -21
23 -21 57 -7 19 8 37 15 39 15 2 0 4 -36 4 -80 l0 -80 -335 0 -335 0 0 45 0
45 -155 0 -155 0 0 275 0 275 655 0 655 0 -2 -322z m-180 114 c27 -35 3 -84
-43 -84 -51 0 -72 55 -34 93 22 22 55 19 77 -9z m97 -193 c25 -34 45 -67 45
-74 0 -15 -26 -38 -68 -59 -47 -24 -58 -10 -22 31 l31 35 -20 31 c-11 18 -27
33 -36 35 -19 4 -20 -12 0 -28 22 -18 18 -40 -11 -71 -25 -26 -25 -28 -9 -53
11 -16 26 -26 41 -26 20 0 24 -5 24 -30 l0 -30 -95 0 -94 0 -3 93 c-3 101 -1
98 -71 81 -33 -8 -53 7 -81 61 -15 27 -17 38 -8 47 9 9 19 5 42 -17 l31 -30
42 25 c38 22 78 30 195 38 16 2 33 -13 67 -59z m-1037 -179 l102 0 0 -30 0
-30 -125 -2 c-69 -1 -133 -2 -142 -2 -19 -1 -29 33 -19 61 5 12 15 14 44 9 20
-3 83 -6 140 -6z"/>
<path fill="url('#myGradients')" d="M2345 3106 c-34 -15 -55 -52 -55 -95 0 -15 -8 -35 -18 -45 -18 -15
-20 -15 -35 2 -10 10 -17 33 -17 50 0 18 -10 43 -26 61 -21 26 -33 31 -68 31
-23 0 -51 -7 -63 -15 -23 -16 -48 -78 -39 -94 4 -5 -5 -26 -19 -47 -28 -41
-32 -76 -11 -94 11 -9 173 -12 662 -11 718 0 683 -4 670 64 -3 19 -15 42 -26
52 -13 12 -20 31 -20 57 0 56 -34 88 -93 88 -59 0 -97 -36 -97 -90 0 -23 -7
-43 -18 -54 -18 -15 -20 -15 -35 2 -10 10 -17 33 -17 50 0 21 -10 43 -29 64
-24 27 -36 33 -71 33 -35 0 -47 -6 -71 -33 -20 -22 -29 -43 -29 -66 0 -39 -31
-74 -47 -54 -6 7 -14 34 -17 60 -8 50 -36 83 -83 94 -53 14 -123 -46 -123
-106 -1 -70 -50 -62 -62 11 -13 76 -78 115 -143 85z m-177 -32 c48 -34 16
-134 -44 -134 -37 0 -74 37 -74 76 0 63 65 95 118 58z m266 -5 c19 -15 26 -30
26 -54 0 -36 -36 -75 -69 -75 -51 0 -90 64 -66 110 23 45 66 53 109 19z m255
11 c10 -5 24 -22 30 -39 15 -35 4 -62 -34 -87 -52 -34 -118 30 -95 91 15 40
61 56 99 35z m281 -10 c30 -30 27 -83 -6 -109 -15 -12 -35 -21 -46 -21 -28 0
-68 45 -68 76 0 62 78 96 120 54z m270 0 c30 -30 27 -83 -6 -109 -43 -34 -86
-24 -112 26 -18 32 -15 51 13 78 30 31 77 33 105 5z m-1190 -119 c0 -16 60
-34 92 -27 17 3 40 14 51 23 18 17 20 17 33 -2 8 -11 14 -31 12 -45 l-3 -25
-115 0 c-103 0 -115 2 -118 18 -4 20 23 67 38 67 6 0 10 -4 10 -9z m453 -47
l2 -29 -115 0 c-108 0 -115 1 -118 20 -1 11 4 29 12 40 14 19 16 19 44 3 40
-24 94 -23 123 1 29 24 49 11 52 -35z m535 -8 c-3 -20 -10 -21 -115 -24 l-113
-3 0 36 c0 42 19 54 52 31 31 -22 91 -20 119 4 24 19 24 19 42 -2 10 -12 17
-31 15 -42z m261 32 c29 -50 13 -58 -114 -58 -113 0 -115 0 -115 23 0 13 6 32
14 43 14 18 16 18 44 2 17 -10 42 -18 56 -18 30 0 76 20 76 32 0 17 25 2 39
-24z m-705 7 c26 -20 91 -19 121 1 32 21 57 3 53 -35 -3 -26 -3 -26 -108 -28
-58 -1 -110 3 -117 8 -12 11 -8 33 10 57 12 15 17 15 41 -3z"/>
<path fill="url('#myGradients')" d="M1663 2507 c-21 -12 -358 -326 -581 -543 l-122 -119 0 -230 c0 -287
-5 -275 120 -275 78 0 91 2 100 19 6 12 10 98 10 210 l0 189 78 71 c42 39 79
71 82 71 3 0 65 -87 137 -193 73 -105 161 -232 196 -282 l63 -90 102 -3 c91
-2 103 -1 122 18 11 11 20 26 20 34 0 7 -103 160 -230 339 -126 180 -230 332
-230 340 0 8 86 94 190 191 187 174 205 198 182 232 -16 24 -55 34 -134 34
-46 -1 -93 -6 -105 -13z"/>

<path fill="url('#myGradients')" d="M2145 2508 c-31 -18 -35 -28 -35 -109 0 -119 -22 -110 316 -116 298
-6 319 -9 356 -49 45 -51 23 -144 -42 -176 -30 -15 -66 -18 -250 -19 -253 0
-357 -9 -370 -29 -6 -8 -10 -49 -10 -91 0 -115 -17 -109 316 -109 316 0 363
-7 408 -61 51 -61 27 -148 -51 -181 -19 -8 -126 -13 -338 -16 -195 -2 -314 -7
-322 -14 -20 -16 -17 -172 3 -192 13 -14 50 -16 257 -15 433 1 526 17 621 107
64 61 86 121 86 231 0 111 -17 157 -86 228 l-42 45 29 46 c16 26 34 74 40 107
39 210 -84 380 -298 415 -84 14 -563 12 -588 -2z"/>

<path fill="url('#myGradients')" d="M3665 2511 c-22 -9 -50 -69 -195 -411 -50 -118 -100 -235 -111 -260
-33 -69 -56 -143 -51 -160 9 -31 36 -40 122 -40 70 0 90 3 102 18 8 9 46 94
83 187 78 198 135 325 145 325 4 0 38 -73 75 -162 38 -90 95 -225 127 -301 32
-75 58 -142 58 -147 0 -6 -137 -10 -390 -10 l-391 0 -30 -67 c-42 -94 -45
-114 -20 -137 20 -18 34 -19 304 -11 155 5 404 7 554 6 259 -3 271 -2 281 16
17 32 0 93 -73 248 -18 39 -110 255 -205 482 -104 248 -179 414 -189 418 -28
11 -175 15 -196 6z"/>

<path fill="url('#myGradients')"  d="M994 2502 c-28 -18 -34 -56 -34 -201 0 -189 1 -191 118 -191 113 0
112 -2 112 196 0 203 0 204 -108 204 -42 0 -82 -4 -88 -8z"/>






<path fill="url('#myGradient')" d="M1306 1153 c-10 -11 -7 -223 4 -223 6 0 10 33 10 79 0 44 4 82 9 85
4 3 23 -15 41 -41 l33 -46 19 26 c10 14 27 36 38 49 l19 23 1 -87 c0 -71 3
-88 15 -88 12 0 15 19 15 109 0 146 -10 151 -86 45 l-21 -28 -32 44 c-34 47
-54 64 -65 53z"/>
<path fill="url('#myGradient')"  d="M1725 1124 c-29 -71 -65 -176 -65 -192 0 -20 17 -5 34 30 9 18 21 24
59 26 46 3 49 2 60 -27 6 -17 17 -31 24 -31 17 0 18 -2 -23 108 -51 136 -63
148 -89 86z m53 -71 c11 -33 11 -33 -24 -33 -39 0 -39 -1 -19 47 17 40 26 37
43 -14z"/>
<path fill="url('#myGradient')" d="M1990 1145 c0 -10 10 -15 30 -15 l30 0 0 -100 c0 -82 3 -100 15 -100
12 0 15 18 15 100 l0 100 31 0 c20 0 29 4 27 13 -3 8 -30 13 -76 15 -60 2 -72
0 -72 -13z"/>

<path fill="url('#myGradient')" d="M2282 1043 l3 -118 73 -3 c59 -2 72 0 72 13 0 12 -13 15 -60 15 l-60
0 0 45 0 45 49 0 c28 0 52 4 55 9 9 13 -19 32 -38 25 -31 -12 -66 4 -66 31 0
24 3 25 60 25 47 0 60 3 60 15 0 12 -15 15 -75 15 l-76 0 3 -117z"/>

<path fill="url('#myGradient')" d="M2585 1128 c-10 -55 -1 -191 13 -196 9 -3 12 17 12 77 0 45 4 81 8
81 4 0 22 -18 39 -41 l31 -40 34 42 33 41 5 -83 c4 -66 8 -84 20 -84 12 0 15
19 15 114 0 119 -8 142 -39 104 -8 -10 -27 -33 -41 -51 l-27 -32 -40 50 c-22
27 -44 50 -48 50 -5 0 -12 -15 -15 -32z"/>

<path fill="url('#myGradient')" d="M3023 1148 c-12 -15 -72 -170 -80 -207 -8 -33 16 -23 37 15 14 25 22
29 60 29 37 0 46 -4 59 -29 15 -26 38 -34 34 -11 -2 15 -39 114 -62 168 -21
49 -31 56 -48 35z m33 -83 c19 -45 19 -45 -16 -45 -16 0 -30 4 -30 9 0 13 21
71 26 71 3 0 12 -16 20 -35z"/>

<path fill="url('#myGradient')" d="M3277 1154 c-15 -15 -6 -24 23 -24 l30 0 0 -69 c0 -38 3 -83 6 -100
12 -58 24 -31 24 53 0 105 4 116 42 116 19 0 28 4 26 13 -5 13 -139 23 -151
11z"/>

<path fill="url('#myGradient')" d="M3596 1153 c-3 -3 -6 -55 -6 -115 0 -89 3 -108 15 -108 12 0 15 19
15 109 0 100 -6 131 -24 114z"/>

<path fill="url('#myGradient')" d="M3796 1153 c-3 -3 -6 -55 -6 -115 0 -89 3 -108 15 -108 11 0 15 11
15 38 0 27 7 45 23 60 13 12 26 22 29 22 3 0 25 -27 49 -60 26 -35 52 -60 62
-60 17 0 17 3 -4 33 -13 17 -36 49 -52 70 l-29 37 33 37 c47 54 19 53 -45 -1
-29 -25 -56 -46 -60 -46 -3 0 -6 20 -6 44 0 43 -10 63 -24 49z"/>


</g>
</svg>
