<?xml version="1.0" encoding="utf-8"?>
<!-- Generator: Adobe Illustrator 27.5.0, SVG Export Plug-In . SVG Version: 6.00 Build 0)  -->
<svg version="1.1" xmlns="http://www.w3.org/2000/svg" xmlns:xlink="http://www.w3.org/1999/xlink" x="0px" y="0px"
	 viewBox="0 0 500 500" style="enable-background:new 0 0 500 500;" xml:space="preserve">




<g id="Character_1_">
	<g>
		<polygon style="fill:#FFB573;" points="247.176,409.281 239.644,409.281 239.726,391.839 247.258,391.839 		"/>
		<polygon style="fill:#FFB573;" points="292.4,409.281 284.868,409.281 281.914,391.839 289.446,391.839 		"/>
		<path style="fill:#263238;" d="M284.374,408.409h8.462c0.308,0,0.564,0.214,0.617,0.514l1.168,6.695
			c0.121,0.694-0.456,1.352-1.167,1.339c-2.952-0.051-4.379-0.224-8.1-0.224c-2.289,0-8.464,0.238-11.626,0.238
			c-3.092,0-3.425-3.126-2.117-3.409c5.864-1.27,9.58-3.02,11.518-4.69C283.479,408.571,283.923,408.409,284.374,408.409z"/>
		<path style="fill:#263238;" d="M239.735,408.409h8.225c0.308,0,0.564,0.214,0.617,0.514l1.168,6.695
			c0.121,0.694-0.437,1.352-1.148,1.34c-2.965-0.05-7.244-0.224-10.974-0.224c-4.361,0-6.755,0.238-11.869,0.238
			c-3.092,0-3.801-3.126-2.493-3.409c5.954-1.289,9.389-1.427,14.631-4.567C238.462,408.655,239.085,408.409,239.735,408.409z"/>
		<path style="fill:#FFB573;" d="M246.449,174.71l-10.292-3.006c0,0-10.488,24.908-14.036,26.536
			c-4.828,2.215-14.136,3.738-20.394,4.632c-0.812,0.991-2.098,4.11-1.924,5.241c8.538,2.742,26.635,1.147,30.16-2.233
			C238.001,198.174,246.449,174.71,246.449,174.71z"/>
		<path style="fill:#407BFF;" d="M249.565,170.012c2.925,6.514-5.745,20.35-5.745,20.35l-15.398-6.682c0,0,2.862-10.308,7.52-18.613
			C240.723,156.539,246.355,162.863,249.565,170.012z"/>
		<path style="opacity:0.2;" d="M249.565,170.012c2.925,6.514-5.745,20.35-5.745,20.35l-15.398-6.682c0,0,2.862-10.308,7.52-18.613
			C240.723,156.539,246.355,162.863,249.565,170.012z"/>
		<path style="fill:#FFB573;" d="M202.997,202.793l-5.586-3.515l-3.091,9.179c0,0,1.978,0.926,7.423,0.025L202.997,202.793z"/>
		<polygon style="fill:#FFB573;" points="188.619,198.638 188.619,204.731 194.319,208.457 197.411,199.277 		"/>
		<g>
			<polygon style="opacity:0.2;" points="239.727,391.843 239.684,400.834 247.219,400.834 247.263,391.843 			"/>
			<polygon style="opacity:0.2;" points="289.449,391.843 281.914,391.843 283.44,400.834 290.975,400.834 			"/>
		</g>
		<path style="fill:#407BFF;" d="M239.992,161.116c0,0-10.048,25.883-3.625,68.241c12.139,0,34.38,0,40.287,0
			c0.573-6.184-1.801-39.49,5.554-68.629c0,0-6.839-1.386-13.405-1.703c-5.136-0.248-12.581-0.412-17.126,0.001
			C245.685,159.57,239.992,161.116,239.992,161.116z"/>
		<path style="opacity:0.2;" d="M239.992,161.116c0,0-10.048,25.883-3.625,68.241c12.139,0,34.38,0,40.287,0
			c0.573-6.184-1.801-39.49,5.554-68.629c0,0-6.839-1.386-13.405-1.703c-5.136-0.248-12.581-0.412-17.126,0.001
			C245.685,159.57,239.992,161.116,239.992,161.116z"/>
		<path style="fill:#FFFFFF;" d="M256.09,176.374h-3.101c-0.067,0-0.132-0.027-0.179-0.076c-0.048-0.048-0.073-0.114-0.071-0.181
			c0.168-6.123,1.264-10.818,1.274-10.865c0.032-0.133,0.167-0.218,0.301-0.186c0.134,0.032,0.218,0.166,0.186,0.301
			c-0.011,0.045-1.064,4.565-1.253,10.507h2.61c0.102-1.351,0.616-7.961,1.155-10.159c0.033-0.134,0.171-0.215,0.303-0.183
			c0.134,0.033,0.216,0.168,0.184,0.302c-0.579,2.36-1.154,10.229-1.16,10.308C256.33,176.273,256.221,176.374,256.09,176.374z"/>
		<path style="opacity:0.2;" d="M273.113,167.922c-0.9,4.795,0.066,16.269,4,29.527c0.501-10.204,1.679-22.035,4.397-33.823
			l0.003-0.057C278.871,163.298,273.97,163.427,273.113,167.922z"/>
		<path style="fill:#FFB573;" d="M267.329,143.008c-1.343,5.51-2.206,12.34,1.474,16.017c0,0-2.481,5.59-12.72,5.59
			c-9.356,0-4.406-5.589-4.406-5.589c6.215-1.467,6.257-9.066,5.391-13.348L267.329,143.008z"/>
		<path style="fill:#FFFFFF;" d="M256.09,164.614c0.955,3.821,7.233,3.821,7.233,3.821s7.511-3.053,7.228-9.68
			c0,0-1.768-1.081-2.883-1.959C267.669,156.796,267.011,161.96,256.09,164.614z"/>
		<path style="fill:#FFFFFF;" d="M256.09,164.614c-2.009,2.748-5.951,2.554-5.951,2.554s-2.428-1.591-0.372-8.143
			c0,0,1.673-0.687,3.333-1.044C253.1,157.982,252.113,163.196,256.09,164.614z"/>
		<path style="opacity:0.2;" d="M257.063,145.682c0.518,2.508,0.714,6.158-0.473,9.046c0.911-0.134,1.85-0.411,2.785-0.843
			c3.543-1.634,5.372-4.204,7.332-8.018c0.18-0.977,0.39-1.933,0.619-2.858L257.063,145.682z"/>
		<g>
			<path style="fill:#FFB573;" d="M248.491,139.655c0.583,1.906,2.001,3.322,3.47,4.012c2.211,1.038,3.814-0.903,3.617-3.252
				c-0.178-2.114-1.542-5.202-3.961-5.252C249.233,135.113,247.824,137.476,248.491,139.655z"/>
			<path style="opacity:0.2;" d="M248.491,139.655c0.583,1.906,2.001,3.322,3.47,4.012c2.211,1.038,3.814-0.903,3.617-3.252
				c-0.178-2.114-1.542-5.202-3.961-5.252C249.233,135.113,247.824,137.476,248.491,139.655z"/>
		</g>
		<path style="fill:#263238;" d="M255.783,124.653c-1.169,0.202-5.435,4.654-3.18,9.646
			C254.859,139.291,260.907,123.767,255.783,124.653z"/>
		<path style="fill:#FFB573;" d="M272.12,136.292c-2.345,7.223-3.358,11.554-7.97,14.516c-6.937,4.457-14.948-0.837-14.765-8.519
			c0.165-6.915,3.973-17.566,11.774-18.939C268.845,121.997,274.465,129.069,272.12,136.292z"/>
		<path style="fill:#263238;" d="M255.594,126.345c4.879,3.62,9.418,3.086,12.088,3.28c1.541,0.112,2.691,0.58,1.12,2.481
			c-1.571,1.901-0.895,5.705-0.895,5.705l-3.38,3.42l3.38,3.084l4.985-3.211c0,0,1.249-3.858,4.274-5.942
			c4.074-2.807,2.675-6.495-1.208-7.12c-6.002-4.698-11.25-12.583-17.978-10.215C254.328,119.113,252.844,124.304,255.594,126.345z"
			/>
		<path style="fill:#263238;" d="M256.02,143.936c2.377,0.188,3.857-1.191,3.924-1.256c0.072-0.068,0.076-0.181,0.009-0.251
			c-0.067-0.071-0.179-0.072-0.251-0.004c-0.017,0.016-1.701,1.588-4.302,1.064c-0.097-0.02-0.191,0.043-0.212,0.14
			c-0.022,0.096,0.039,0.19,0.135,0.209C255.563,143.886,255.796,143.918,256.02,143.936z"/>
		<path style="fill:#FFB573;" d="M273.272,145.071c-1.459,1.46-3.42,2.137-5.071,2.145c-2.484,0.012-2.959-2.383-1.627-4.398
			c1.199-1.813,3.936-4.005,6.12-3.049C274.844,140.71,274.939,143.402,273.272,145.071z"/>
		<path style="fill:#263238;" d="M262.845,229.356c0,0-1.022,9.468-2.337,22.309c-1.499,14.547-3.366,33.431-4.554,47.824
			c-0.002,0.072-0.013,0.134-0.015,0.196c-0.228,2.734-0.432,5.294-0.599,7.638c-1.686,23.47-5.625,91.772-5.625,91.772h-12.758
			c0,0-4.808-69.7-4.521-93.592c0.276-22.966,3.926-76.146,3.926-76.146H262.845z"/>
		<path style="fill:#407BFF;" d="M250.773,394.1c0.059,0-0.224,5.254-0.224,5.254h-14.707l-0.37-5.768L250.773,394.1z"/>
		<path style="opacity:0.2;" d="M260.508,251.665c-1.499,14.547-3.366,33.431-4.554,47.824c-0.002,0.072-0.013,0.134-0.015,0.196
			c-2.809-13.642-3.679-30.615-2.589-58.557L260.508,251.665z"/>
		<path style="fill:#263238;" d="M250.658,229.356c0,0,5.874,54.424,9.538,75.989c4.012,23.615,19.816,93.748,19.816,93.748h13.796
			c0,0-9.301-68.226-11.118-91.607c-1.972-25.376-6.036-78.13-6.036-78.13H250.658z"/>
		<path style="fill:#407BFF;" d="M294.004,394.414c0.059,0,0.478,4.94,0.478,4.94h-15.163l-1.106-5.511L294.004,394.414z"/>
		<path style="fill:#263238;" d="M260.672,135.952c-0.155,0.596-0.591,1.011-0.974,0.928c-0.383-0.084-0.568-0.635-0.413-1.231
			c0.155-0.596,0.591-1.011,0.974-0.928C260.642,134.805,260.827,135.356,260.672,135.952z"/>
		<path style="fill:#263238;" d="M254.049,134.505c-0.155,0.596-0.591,1.011-0.974,0.928c-0.383-0.084-0.568-0.635-0.413-1.231
			c0.155-0.596,0.591-1.011,0.974-0.928C254.019,133.358,254.204,133.909,254.049,134.505z"/>
		<path style="fill:#ED893E;" d="M256.077,135.262c0,0-2.227,3.147-4.125,4.486c0.781,1.211,2.66,1.146,2.66,1.146L256.077,135.262z
			"/>
		<path style="fill:#263238;" d="M263.233,134.216c-0.104-0.023-0.195-0.093-0.238-0.199c-0.603-1.448-1.887-1.649-1.901-1.65
			c-0.183-0.019-0.32-0.209-0.283-0.405c0.037-0.196,0.223-0.332,0.417-0.304c0.069,0.009,1.678,0.26,2.426,2.057
			c0.075,0.18-0.013,0.392-0.194,0.476C263.384,134.224,263.305,134.232,263.233,134.216z"/>
		<path style="fill:#263238;" d="M251.695,131.467c-0.049-0.014-0.097-0.04-0.136-0.078c-0.141-0.131-0.143-0.357-0.005-0.505
			c1.377-1.479,2.991-1.251,3.059-1.241c0.189,0.021,0.318,0.211,0.28,0.407c-0.038,0.195-0.225,0.329-0.417,0.301l0,0
			c-0.054-0.008-1.315-0.171-2.414,1.009C251.964,131.466,251.82,131.503,251.695,131.467z"/>
		<path style="fill:#FFB573;" d="M286.675,171.014l-9.517,5.752c0,0,11.878,23.259,10.563,26.897
			c-1.789,4.95-4.511,15.814-7.683,21.273c0.303,1.204,2.05,3.99,3.082,4.493c7.564-5.204,15.9-21.944,15.891-26.676
			C298.994,191.964,286.675,171.014,286.675,171.014z"/>
		<path style="fill:#407BFF;" d="M282.208,160.728c7.077,1.036,14.06,25.73,14.06,25.73l-15.37,8.454c0,0-6.031-11.745-8.866-20.466
			C269.061,165.308,274.617,159.616,282.208,160.728z"/>
		<path style="opacity:0.2;" d="M282.208,160.728c7.077,1.036,14.06,25.73,14.06,25.73l-15.37,8.454c0,0-6.031-11.745-8.866-20.466
			C269.061,165.308,274.617,159.616,282.208,160.728z"/>
		<path style="fill:#407BFF;" d="M281.82,409.724c-0.574,0-1.105-0.098-1.432-0.383c-0.259-0.227-0.368-0.545-0.324-0.944
			c0.032-0.297,0.197-0.438,0.329-0.505c0.845-0.426,3.211,1.065,3.478,1.236c0.059,0.039,0.087,0.11,0.073,0.181
			c-0.015,0.07-0.071,0.127-0.141,0.143C283.275,409.581,282.517,409.724,281.82,409.724z M280.776,408.166
			c-0.093,0-0.172,0.014-0.233,0.045c-0.049,0.025-0.107,0.071-0.122,0.209c-0.032,0.284,0.037,0.496,0.211,0.648
			c0.395,0.347,1.376,0.393,2.667,0.135C282.471,408.711,281.353,408.166,280.776,408.166z"/>
		<path style="fill:#407BFF;" d="M283.762,409.46c-0.029,0-0.058-0.007-0.084-0.021c-0.759-0.424-2.187-2.074-1.988-2.914
			c0.036-0.152,0.161-0.415,0.59-0.467c0.281-0.035,0.53,0.043,0.749,0.229c0.841,0.715,0.917,2.889,0.92,2.981
			c0.003,0.066-0.032,0.128-0.089,0.163C283.83,409.45,283.796,409.46,283.762,409.46z M282.388,406.406
			c-0.026,0-0.053,0.003-0.081,0.006c-0.233,0.028-0.259,0.135-0.269,0.18c-0.118,0.496,0.782,1.743,1.529,2.332
			c-0.057-0.636-0.237-1.902-0.777-2.361C282.667,406.458,282.535,406.406,282.388,406.406z"/>
		<path style="fill:#407BFF;" d="M236.54,409.726c-0.748,0-1.434-0.116-1.808-0.463c-0.238-0.22-0.337-0.513-0.292-0.868
			c0.026-0.212,0.136-0.376,0.317-0.474c0.938-0.514,3.893,1.024,4.228,1.201c0.065,0.035,0.1,0.109,0.085,0.184
			c-0.014,0.075-0.073,0.135-0.149,0.151C238.276,409.584,237.369,409.726,236.54,409.726z M235.251,408.166
			c-0.139,0-0.253,0.021-0.336,0.065c-0.073,0.04-0.11,0.098-0.121,0.191c-0.03,0.241,0.032,0.429,0.188,0.574
			c0.444,0.411,1.68,0.481,3.356,0.205C237.319,408.706,235.964,408.166,235.251,408.166z"/>
		<path style="fill:#407BFF;" d="M238.885,409.46c-0.025,0-0.049-0.006-0.072-0.015c-0.889-0.408-2.613-2.036-2.434-2.889
			c0.042-0.199,0.196-0.449,0.688-0.498c0.36-0.045,0.694,0.065,0.975,0.305c0.921,0.787,1.027,2.815,1.031,2.902
			c0.003,0.063-0.028,0.124-0.082,0.162C238.959,409.448,238.922,409.46,238.885,409.46z M237.193,406.406
			c-0.035,0-0.071,0.003-0.108,0.006c-0.323,0.033-0.349,0.159-0.358,0.201c-0.107,0.512,1.056,1.791,1.957,2.348
			c-0.068-0.592-0.279-1.806-0.883-2.322C237.62,406.483,237.42,406.406,237.193,406.406z"/>
		<path style="fill:#FFB573;" d="M281.31,224.598l-7.144-0.551l3.399,7.921c0,0,6.271,0.274,7.548-4.523L281.31,224.598z"/>
		<polygon style="fill:#FFB573;" points="268.168,227.659 271.606,234.665 277.565,231.968 274.166,224.048 		"/>
	</g>
</g>
<g id="Dartboard">
	<g>
		<g>
			<g>
				<g>
					<path style="fill:#407BFF;" d="M282.58,93.5c0.051-0.295,0.094-0.593,0.134-0.892c0.01-0.073,0.024-0.145,0.033-0.218
						c0.002-0.016,0.003-0.031,0.005-0.047c0.043-0.36,0.08-0.723,0.107-1.088c0.034-0.457,0.05-0.908,0.057-1.357
						c0.001-0.056,0.007-0.113,0.007-0.169c0-0.059-0.004-0.117-0.004-0.176c0.001-0.449-0.007-0.896-0.033-1.336
						c-0.001-0.009,0-0.019-0.001-0.028c-0.026-0.449-0.071-0.891-0.123-1.33c-0.006-0.054-0.008-0.109-0.015-0.163
						c-0.009-0.068-0.022-0.135-0.031-0.203c-0.032-0.234-0.069-0.466-0.108-0.697c-0.022-0.127-0.042-0.254-0.066-0.381
						c-0.05-0.263-0.106-0.522-0.165-0.78c-0.02-0.088-0.037-0.176-0.058-0.263c-0.083-0.342-0.174-0.681-0.273-1.015
						c-0.023-0.078-0.05-0.153-0.074-0.23c-0.079-0.255-0.162-0.509-0.25-0.759c-0.013-0.036-0.023-0.074-0.036-0.111
						c-0.018-0.05-0.041-0.096-0.059-0.145c-0.148-0.4-0.306-0.794-0.477-1.178c-0.015-0.034-0.028-0.069-0.044-0.102
						c-0.182-0.402-0.38-0.791-0.586-1.174c-0.043-0.081-0.087-0.161-0.131-0.241c-0.209-0.373-0.427-0.738-0.659-1.091
						c-0.037-0.056-0.076-0.11-0.113-0.166c-0.221-0.33-0.452-0.65-0.693-0.961c-0.025-0.033-0.047-0.068-0.073-0.101
						c-0.013-0.016-0.027-0.031-0.04-0.048c-0.204-0.258-0.415-0.511-0.632-0.755c-0.039-0.044-0.081-0.085-0.12-0.129
						c-0.181-0.199-0.365-0.394-0.555-0.583c-0.078-0.077-0.157-0.152-0.236-0.228c-0.158-0.152-0.319-0.301-0.483-0.446
						c-0.087-0.077-0.175-0.154-0.264-0.229c-0.17-0.144-0.342-0.282-0.517-0.418c-0.058-0.045-0.113-0.094-0.172-0.139
						c-0.02-0.015-0.042-0.028-0.062-0.043c-0.31-0.232-0.628-0.451-0.954-0.658c-0.07-0.045-0.141-0.087-0.212-0.13
						c-0.301-0.185-0.607-0.36-0.92-0.523c-0.034-0.018-0.066-0.04-0.101-0.057c-0.013-0.007-0.028-0.012-0.041-0.019
						c-0.3-0.153-0.606-0.294-0.917-0.426c-0.078-0.033-0.157-0.062-0.235-0.094c-0.24-0.097-0.482-0.189-0.727-0.273
						c-0.052-0.018-0.102-0.041-0.154-0.058c-0.054-0.018-0.111-0.031-0.166-0.049c-0.212-0.068-0.426-0.13-0.642-0.189
						c-0.103-0.028-0.204-0.057-0.308-0.083c-0.286-0.071-0.574-0.134-0.866-0.188c-0.029-0.005-0.058-0.014-0.087-0.019
						c-0.004-0.001-0.008-0.001-0.012-0.002c-0.324-0.058-0.653-0.103-0.984-0.14c-0.1-0.011-0.202-0.017-0.303-0.027
						c-0.235-0.021-0.472-0.039-0.711-0.05c-0.054-0.002-0.106-0.009-0.16-0.011c-0.174-0.006-0.348-0.009-0.524-0.009l-3.082-0.001
						c0.23,0,0.457,0.01,0.684,0.02c0.239,0.011,0.475,0.028,0.711,0.05c0.101,0.009,0.203,0.016,0.303,0.027
						c0.332,0.037,0.66,0.082,0.984,0.14c0.033,0.006,0.066,0.014,0.099,0.021c0.292,0.054,0.581,0.117,0.866,0.188
						c0.103,0.026,0.205,0.055,0.308,0.083c0.216,0.059,0.43,0.121,0.642,0.189c0.107,0.034,0.214,0.07,0.32,0.107
						c0.245,0.085,0.487,0.176,0.727,0.273c0.078,0.032,0.158,0.061,0.235,0.094c0.311,0.132,0.616,0.274,0.916,0.426
						c0.048,0.024,0.094,0.052,0.142,0.077c0.313,0.163,0.62,0.339,0.92,0.523c0.071,0.043,0.142,0.086,0.212,0.13
						c0.326,0.207,0.644,0.426,0.954,0.658c0.079,0.059,0.156,0.121,0.234,0.182c0.175,0.136,0.348,0.275,0.517,0.418
						c0.089,0.075,0.177,0.152,0.264,0.229c0.164,0.145,0.324,0.294,0.483,0.446c0.079,0.076,0.159,0.15,0.236,0.228
						c0.189,0.189,0.374,0.384,0.555,0.583c0.04,0.044,0.081,0.085,0.12,0.129c0.217,0.244,0.428,0.497,0.632,0.755
						c0.038,0.049,0.075,0.099,0.113,0.148c0.24,0.311,0.471,0.632,0.692,0.961c0.038,0.056,0.076,0.11,0.113,0.166
						c0.232,0.353,0.45,0.718,0.659,1.092c0.044,0.08,0.088,0.16,0.131,0.241c0.207,0.383,0.404,0.773,0.587,1.174
						c0.015,0.034,0.029,0.068,0.044,0.102c0.171,0.384,0.329,0.778,0.477,1.178c0.032,0.085,0.065,0.17,0.095,0.256
						c0.089,0.25,0.171,0.503,0.25,0.759c0.024,0.077,0.051,0.152,0.074,0.23c0.099,0.334,0.19,0.672,0.273,1.015
						c0.021,0.087,0.038,0.176,0.058,0.263c0.059,0.258,0.115,0.517,0.165,0.78c0.024,0.126,0.044,0.254,0.066,0.381
						c0.039,0.231,0.076,0.463,0.108,0.697c0.017,0.121,0.032,0.243,0.046,0.366c0.053,0.439,0.097,0.881,0.123,1.33
						c0.001,0.009,0.001,0.019,0.001,0.028c0.025,0.44,0.033,0.887,0.033,1.336c0,0.115-0.001,0.23-0.003,0.345
						c-0.007,0.449-0.023,0.9-0.057,1.357c-0.027,0.365-0.064,0.728-0.107,1.088c-0.011,0.089-0.026,0.176-0.037,0.265
						c-0.04,0.299-0.083,0.597-0.134,0.892c-0.023,0.132-0.048,0.262-0.073,0.394c-0.047,0.252-0.098,0.504-0.154,0.753
						c-0.03,0.135-0.061,0.27-0.093,0.404c-0.063,0.263-0.132,0.524-0.204,0.783c-0.031,0.113-0.061,0.228-0.094,0.34
						c-0.107,0.366-0.221,0.73-0.345,1.088c-0.006,0.018-0.013,0.035-0.02,0.053c-0.128,0.368-0.267,0.729-0.412,1.087
						c-0.044,0.11-0.091,0.219-0.137,0.328c-0.119,0.282-0.244,0.561-0.373,0.836c-0.044,0.093-0.086,0.187-0.131,0.28
						c-0.206,0.424-0.425,0.84-0.655,1.248c-0.047,0.083-0.095,0.165-0.143,0.248c-0.24,0.414-0.488,0.821-0.751,1.216
						c-0.028,0.043-0.059,0.083-0.087,0.125c-0.177,0.261-0.358,0.519-0.544,0.771c-0.072,0.097-0.145,0.191-0.218,0.287
						c-0.151,0.198-0.305,0.394-0.462,0.585c-0.081,0.099-0.163,0.198-0.245,0.295c-0.165,0.195-0.334,0.386-0.506,0.574
						c-0.073,0.08-0.144,0.161-0.218,0.24c-0.245,0.261-0.494,0.517-0.75,0.764c-0.029,0.028-0.06,0.054-0.089,0.082
						c-0.229,0.218-0.461,0.43-0.698,0.636c-0.087,0.076-0.176,0.149-0.264,0.223c-0.186,0.156-0.374,0.309-0.564,0.458
						c-0.098,0.076-0.195,0.152-0.294,0.226c-0.198,0.149-0.399,0.293-0.602,0.433c-0.087,0.06-0.173,0.122-0.26,0.181
						c-0.289,0.194-0.582,0.381-0.88,0.558c-0.026,0.015-0.052,0.029-0.078,0.044c-0.273,0.16-0.55,0.313-0.83,0.458
						c-0.099,0.051-0.198,0.099-0.298,0.148c-0.213,0.106-0.428,0.208-0.645,0.305c-0.11,0.049-0.22,0.097-0.331,0.144
						c-0.222,0.094-0.447,0.183-0.672,0.268c-0.098,0.037-0.196,0.076-0.295,0.111c-0.322,0.114-0.647,0.221-0.975,0.316
						c-0.015,0.004-0.03,0.007-0.044,0.011c-0.313,0.089-0.63,0.168-0.948,0.238c-0.106,0.023-0.213,0.043-0.32,0.064
						c-0.233,0.047-0.466,0.089-0.701,0.126c-0.119,0.018-0.238,0.035-0.357,0.051c-0.238,0.031-0.476,0.056-0.716,0.077
						c-0.108,0.009-0.215,0.021-0.323,0.028c-0.344,0.023-0.689,0.037-1.036,0.037l3.082,0.001c0.347,0,0.692-0.014,1.036-0.037
						c0.108-0.007,0.215-0.019,0.323-0.028c0.239-0.021,0.478-0.046,0.715-0.077c0.119-0.016,0.238-0.033,0.357-0.051
						c0.235-0.036,0.469-0.079,0.701-0.126c0.106-0.021,0.214-0.041,0.32-0.064c0.318-0.071,0.635-0.149,0.948-0.238
						c0.015-0.004,0.03-0.007,0.044-0.011c0.328-0.094,0.653-0.201,0.976-0.316c0.099-0.035,0.197-0.074,0.295-0.111
						c0.226-0.085,0.45-0.173,0.672-0.268c0.111-0.047,0.221-0.095,0.331-0.144c0.217-0.097,0.431-0.2,0.645-0.306
						c0.099-0.049,0.199-0.097,0.297-0.148c0.28-0.146,0.557-0.298,0.83-0.458c0.026-0.015,0.052-0.029,0.078-0.044
						c0.298-0.177,0.59-0.364,0.88-0.558c0.088-0.059,0.173-0.121,0.26-0.181c0.203-0.141,0.404-0.285,0.602-0.433
						c0.099-0.074,0.197-0.15,0.294-0.226c0.191-0.149,0.378-0.302,0.564-0.458c0.088-0.074,0.177-0.147,0.264-0.223
						c0.237-0.206,0.47-0.418,0.698-0.636c0.029-0.028,0.06-0.054,0.089-0.083c0.256-0.247,0.505-0.502,0.75-0.764
						c0.074-0.078,0.145-0.16,0.217-0.24c0.172-0.189,0.341-0.38,0.507-0.575c0.082-0.097,0.163-0.195,0.244-0.294
						c0.158-0.193,0.312-0.389,0.464-0.588c0.072-0.095,0.145-0.188,0.216-0.284c0.188-0.254,0.37-0.513,0.548-0.776
						c0.024-0.036,0.051-0.07,0.075-0.106c0.003-0.005,0.006-0.01,0.009-0.015c0.263-0.395,0.511-0.802,0.751-1.216
						c0.048-0.082,0.096-0.165,0.143-0.248c0.23-0.408,0.449-0.824,0.655-1.248c0.013-0.027,0.029-0.053,0.042-0.081
						c0.031-0.065,0.058-0.133,0.089-0.199c0.129-0.275,0.254-0.554,0.373-0.836c0.046-0.109,0.093-0.218,0.137-0.328
						c0.145-0.358,0.284-0.72,0.412-1.087c0.005-0.015,0.012-0.03,0.017-0.045c0.001-0.003,0.002-0.005,0.003-0.008
						c0.124-0.358,0.238-0.722,0.345-1.088c0.033-0.113,0.063-0.227,0.094-0.34c0.072-0.259,0.14-0.52,0.204-0.783
						c0.015-0.063,0.034-0.125,0.049-0.188c0.017-0.071,0.028-0.145,0.044-0.216c0.056-0.249,0.106-0.5,0.154-0.753
						C282.532,93.763,282.557,93.632,282.58,93.5z"/>
				</g>
				<g style="opacity:0.3;">
					<path d="M282.58,93.5c0.051-0.295,0.094-0.593,0.134-0.892c0.01-0.073,0.024-0.145,0.033-0.218
						c0.002-0.016,0.003-0.031,0.005-0.047c0.043-0.36,0.08-0.723,0.107-1.088c0.034-0.457,0.05-0.908,0.057-1.357
						c0.001-0.056,0.007-0.113,0.007-0.169c0-0.059-0.004-0.117-0.004-0.176c0.001-0.449-0.007-0.896-0.033-1.336
						c-0.001-0.009,0-0.019-0.001-0.028c-0.026-0.449-0.071-0.891-0.123-1.33c-0.006-0.054-0.008-0.109-0.015-0.163
						c-0.009-0.068-0.022-0.135-0.031-0.203c-0.032-0.234-0.069-0.466-0.108-0.697c-0.022-0.127-0.042-0.254-0.066-0.381
						c-0.05-0.263-0.106-0.522-0.165-0.78c-0.02-0.088-0.037-0.176-0.058-0.263c-0.083-0.342-0.174-0.681-0.273-1.015
						c-0.023-0.078-0.05-0.153-0.074-0.23c-0.079-0.255-0.162-0.509-0.25-0.759c-0.013-0.036-0.023-0.074-0.036-0.111
						c-0.018-0.05-0.041-0.096-0.059-0.145c-0.148-0.4-0.306-0.794-0.477-1.178c-0.015-0.034-0.028-0.069-0.044-0.102
						c-0.182-0.402-0.38-0.791-0.586-1.174c-0.043-0.081-0.087-0.161-0.131-0.241c-0.209-0.373-0.427-0.738-0.659-1.091
						c-0.037-0.056-0.076-0.11-0.113-0.166c-0.221-0.33-0.452-0.65-0.693-0.961c-0.025-0.033-0.047-0.068-0.073-0.101
						c-0.013-0.016-0.027-0.031-0.04-0.048c-0.204-0.258-0.415-0.511-0.632-0.755c-0.039-0.044-0.081-0.085-0.12-0.129
						c-0.181-0.199-0.365-0.394-0.555-0.583c-0.078-0.077-0.157-0.152-0.236-0.228c-0.158-0.152-0.319-0.301-0.483-0.446
						c-0.087-0.077-0.175-0.154-0.264-0.229c-0.17-0.144-0.342-0.282-0.517-0.418c-0.058-0.045-0.113-0.094-0.172-0.139
						c-0.02-0.015-0.042-0.028-0.062-0.043c-0.31-0.232-0.628-0.451-0.954-0.658c-0.07-0.045-0.141-0.087-0.212-0.13
						c-0.301-0.185-0.607-0.36-0.92-0.523c-0.034-0.018-0.066-0.04-0.101-0.057c-0.013-0.007-0.028-0.012-0.041-0.019
						c-0.3-0.153-0.606-0.294-0.917-0.426c-0.078-0.033-0.157-0.062-0.235-0.094c-0.24-0.097-0.482-0.189-0.727-0.273
						c-0.052-0.018-0.102-0.041-0.154-0.058c-0.054-0.018-0.111-0.031-0.166-0.049c-0.212-0.068-0.426-0.13-0.642-0.189
						c-0.103-0.028-0.204-0.057-0.308-0.083c-0.286-0.071-0.574-0.134-0.866-0.188c-0.029-0.005-0.058-0.014-0.087-0.019
						c-0.004-0.001-0.008-0.001-0.012-0.002c-0.324-0.058-0.653-0.103-0.984-0.14c-0.1-0.011-0.202-0.017-0.303-0.027
						c-0.235-0.021-0.472-0.039-0.711-0.05c-0.054-0.002-0.106-0.009-0.16-0.011c-0.174-0.006-0.348-0.009-0.524-0.009l-3.082-0.001
						c0.23,0,0.457,0.01,0.684,0.02c0.239,0.011,0.475,0.028,0.711,0.05c0.101,0.009,0.203,0.016,0.303,0.027
						c0.332,0.037,0.66,0.082,0.984,0.14c0.033,0.006,0.066,0.014,0.099,0.021c0.292,0.054,0.581,0.117,0.866,0.188
						c0.103,0.026,0.205,0.055,0.308,0.083c0.216,0.059,0.43,0.121,0.642,0.189c0.107,0.034,0.214,0.07,0.32,0.107
						c0.245,0.085,0.487,0.176,0.727,0.273c0.078,0.032,0.158,0.061,0.235,0.094c0.311,0.132,0.616,0.274,0.916,0.426
						c0.048,0.024,0.094,0.052,0.142,0.077c0.313,0.163,0.62,0.339,0.92,0.523c0.071,0.043,0.142,0.086,0.212,0.13
						c0.326,0.207,0.644,0.426,0.954,0.658c0.079,0.059,0.156,0.121,0.234,0.182c0.175,0.136,0.348,0.275,0.517,0.418
						c0.089,0.075,0.177,0.152,0.264,0.229c0.164,0.145,0.324,0.294,0.483,0.446c0.079,0.076,0.159,0.15,0.236,0.228
						c0.189,0.189,0.374,0.384,0.555,0.583c0.04,0.044,0.081,0.085,0.12,0.129c0.217,0.244,0.428,0.497,0.632,0.755
						c0.038,0.049,0.075,0.099,0.113,0.148c0.24,0.311,0.471,0.632,0.692,0.961c0.038,0.056,0.076,0.11,0.113,0.166
						c0.232,0.353,0.45,0.718,0.659,1.092c0.044,0.08,0.088,0.16,0.131,0.241c0.207,0.383,0.404,0.773,0.587,1.174
						c0.015,0.034,0.029,0.068,0.044,0.102c0.171,0.384,0.329,0.778,0.477,1.178c0.032,0.085,0.065,0.17,0.095,0.256
						c0.089,0.25,0.171,0.503,0.25,0.759c0.024,0.077,0.051,0.152,0.074,0.23c0.099,0.334,0.19,0.672,0.273,1.015
						c0.021,0.087,0.038,0.176,0.058,0.263c0.059,0.258,0.115,0.517,0.165,0.78c0.024,0.126,0.044,0.254,0.066,0.381
						c0.039,0.231,0.076,0.463,0.108,0.697c0.017,0.121,0.032,0.243,0.046,0.366c0.053,0.439,0.097,0.881,0.123,1.33
						c0.001,0.009,0.001,0.019,0.001,0.028c0.025,0.44,0.033,0.887,0.033,1.336c0,0.115-0.001,0.23-0.003,0.345
						c-0.007,0.449-0.023,0.9-0.057,1.357c-0.027,0.365-0.064,0.728-0.107,1.088c-0.011,0.089-0.026,0.176-0.037,0.265
						c-0.04,0.299-0.083,0.597-0.134,0.892c-0.023,0.132-0.048,0.262-0.073,0.394c-0.047,0.252-0.098,0.504-0.154,0.753
						c-0.03,0.135-0.061,0.27-0.093,0.404c-0.063,0.263-0.132,0.524-0.204,0.783c-0.031,0.113-0.061,0.228-0.094,0.34
						c-0.107,0.366-0.221,0.73-0.345,1.088c-0.006,0.018-0.013,0.035-0.02,0.053c-0.128,0.368-0.267,0.729-0.412,1.087
						c-0.044,0.11-0.091,0.219-0.137,0.328c-0.119,0.282-0.244,0.561-0.373,0.836c-0.044,0.093-0.086,0.187-0.131,0.28
						c-0.206,0.424-0.425,0.84-0.655,1.248c-0.047,0.083-0.095,0.165-0.143,0.248c-0.24,0.414-0.488,0.821-0.751,1.216
						c-0.028,0.043-0.059,0.083-0.087,0.125c-0.177,0.261-0.358,0.519-0.544,0.771c-0.072,0.097-0.145,0.191-0.218,0.287
						c-0.151,0.198-0.305,0.394-0.462,0.585c-0.081,0.099-0.163,0.198-0.245,0.295c-0.165,0.195-0.334,0.386-0.506,0.574
						c-0.073,0.08-0.144,0.161-0.218,0.24c-0.245,0.261-0.494,0.517-0.75,0.764c-0.029,0.028-0.06,0.054-0.089,0.082
						c-0.229,0.218-0.461,0.43-0.698,0.636c-0.087,0.076-0.176,0.149-0.264,0.223c-0.186,0.156-0.374,0.309-0.564,0.458
						c-0.098,0.076-0.195,0.152-0.294,0.226c-0.198,0.149-0.399,0.293-0.602,0.433c-0.087,0.06-0.173,0.122-0.26,0.181
						c-0.289,0.194-0.582,0.381-0.88,0.558c-0.026,0.015-0.052,0.029-0.078,0.044c-0.273,0.16-0.55,0.313-0.83,0.458
						c-0.099,0.051-0.198,0.099-0.298,0.148c-0.213,0.106-0.428,0.208-0.645,0.305c-0.11,0.049-0.22,0.097-0.331,0.144
						c-0.222,0.094-0.447,0.183-0.672,0.268c-0.098,0.037-0.196,0.076-0.295,0.111c-0.322,0.114-0.647,0.221-0.975,0.316
						c-0.015,0.004-0.03,0.007-0.044,0.011c-0.313,0.089-0.63,0.168-0.948,0.238c-0.106,0.023-0.213,0.043-0.32,0.064
						c-0.233,0.047-0.466,0.089-0.701,0.126c-0.119,0.018-0.238,0.035-0.357,0.051c-0.238,0.031-0.476,0.056-0.716,0.077
						c-0.108,0.009-0.215,0.021-0.323,0.028c-0.344,0.023-0.689,0.037-1.036,0.037l3.082,0.001c0.347,0,0.692-0.014,1.036-0.037
						c0.108-0.007,0.215-0.019,0.323-0.028c0.239-0.021,0.478-0.046,0.715-0.077c0.119-0.016,0.238-0.033,0.357-0.051
						c0.235-0.036,0.469-0.079,0.701-0.126c0.106-0.021,0.214-0.041,0.32-0.064c0.318-0.071,0.635-0.149,0.948-0.238
						c0.015-0.004,0.03-0.007,0.044-0.011c0.328-0.094,0.653-0.201,0.976-0.316c0.099-0.035,0.197-0.074,0.295-0.111
						c0.226-0.085,0.45-0.173,0.672-0.268c0.111-0.047,0.221-0.095,0.331-0.144c0.217-0.097,0.431-0.2,0.645-0.306
						c0.099-0.049,0.199-0.097,0.297-0.148c0.28-0.146,0.557-0.298,0.83-0.458c0.026-0.015,0.052-0.029,0.078-0.044
						c0.298-0.177,0.59-0.364,0.88-0.558c0.088-0.059,0.173-0.121,0.26-0.181c0.203-0.141,0.404-0.285,0.602-0.433
						c0.099-0.074,0.197-0.15,0.294-0.226c0.191-0.149,0.378-0.302,0.564-0.458c0.088-0.074,0.177-0.147,0.264-0.223
						c0.237-0.206,0.47-0.418,0.698-0.636c0.029-0.028,0.06-0.054,0.089-0.083c0.256-0.247,0.505-0.502,0.75-0.764
						c0.074-0.078,0.145-0.16,0.217-0.24c0.172-0.189,0.341-0.38,0.507-0.575c0.082-0.097,0.163-0.195,0.244-0.294
						c0.158-0.193,0.312-0.389,0.464-0.588c0.072-0.095,0.145-0.188,0.216-0.284c0.188-0.254,0.37-0.513,0.548-0.776
						c0.024-0.036,0.051-0.07,0.075-0.106c0.003-0.005,0.006-0.01,0.009-0.015c0.263-0.395,0.511-0.802,0.751-1.216
						c0.048-0.082,0.096-0.165,0.143-0.248c0.23-0.408,0.449-0.824,0.655-1.248c0.013-0.027,0.029-0.053,0.042-0.081
						c0.031-0.065,0.058-0.133,0.089-0.199c0.129-0.275,0.254-0.554,0.373-0.836c0.046-0.109,0.093-0.218,0.137-0.328
						c0.145-0.358,0.284-0.72,0.412-1.087c0.005-0.015,0.012-0.03,0.017-0.045c0.001-0.003,0.002-0.005,0.003-0.008
						c0.124-0.358,0.238-0.722,0.345-1.088c0.033-0.113,0.063-0.227,0.094-0.34c0.072-0.259,0.14-0.52,0.204-0.783
						c0.015-0.063,0.034-0.125,0.049-0.188c0.017-0.071,0.028-0.145,0.044-0.216c0.056-0.249,0.106-0.5,0.154-0.753
						C282.532,93.763,282.557,93.632,282.58,93.5z"/>
				</g>
			</g>
			<g>
				<g style="enable-background:new    ;">
					<g>
						<path style="fill:#FFFFFF;" d="M263.364,75.108c7.786,0.003,13.556,7.233,12.893,16.145
							c-0.664,8.919-7.51,16.144-15.295,16.14c-7.779-0.003-13.55-7.233-12.886-16.152
							C248.739,82.329,255.585,75.104,263.364,75.108z M261.263,103.355c5.839,0.002,10.972-5.414,11.47-12.104
							c0.497-6.682-3.83-12.103-9.669-12.105c-5.833-0.002-10.965,5.414-11.463,12.096
							C251.104,97.932,255.43,103.352,261.263,103.355"/>
					</g>
					<g>
						<path style="fill:#407BFF;" d="M246.579,78.246l-0.822-0.569c0.73-1.057,1.542-2.062,2.41-2.987l0.728,0.685
							C248.061,76.264,247.282,77.23,246.579,78.246z M251.337,73.113l-0.625-0.78c3.882-3.112,8.358-4.756,12.946-4.756v1
							C259.301,68.577,255.04,70.146,251.337,73.113z"/>
						<path style="fill:#407BFF;" d="M263.664,71.077c9.732,0.004,16.941,9.035,16.112,20.177
							c-0.829,11.142-9.382,20.174-19.114,20.17c-9.726-0.004-16.934-9.043-16.105-20.185
							C245.386,80.098,253.939,71.073,263.664,71.077z M260.963,107.393c7.786,0.003,14.632-7.221,15.295-16.14
							c0.663-8.912-5.108-16.142-12.893-16.145c-7.779-0.003-14.625,7.221-15.288,16.133
							C247.413,100.16,253.184,107.39,260.963,107.393"/>
					</g>
					<g>
						<path style="fill:#FFFFFF;" d="M262.764,83.177c3.893,0.002,6.775,3.62,6.444,8.072c-0.332,4.46-3.751,8.068-7.644,8.067
							c-3.886-0.002-6.775-3.613-6.443-8.073C255.451,86.791,258.878,83.176,262.764,83.177z M261.863,95.285
							c1.947,0.001,3.66-1.807,3.826-4.037c0.166-2.23-1.279-4.032-3.225-4.033c-1.94-0.001-3.653,1.8-3.819,4.03
							C258.479,93.475,259.923,95.284,261.863,95.285"/>
					</g>
					<g>
						<path style="fill:#407BFF;" d="M262.464,87.216c1.946,0.001,3.391,1.803,3.225,4.033c-0.166,2.23-1.879,4.038-3.826,4.037
							c-1.94-0.001-3.384-1.81-3.218-4.04C258.811,89.016,260.524,87.215,262.464,87.216z"/>
					</g>
					<g>
						<path style="fill:#407BFF;" d="M263.064,79.146c5.839,0.002,10.166,5.423,9.669,12.105c-0.498,6.689-5.63,12.106-11.47,12.104
							c-5.833-0.002-10.159-5.423-9.662-12.112C252.098,84.56,257.231,79.144,263.064,79.146z M261.564,99.316
							c3.893,0.002,7.312-3.607,7.644-8.067c0.331-4.452-2.551-8.071-6.444-8.072c-3.886-0.002-7.313,3.614-7.644,8.067
							C254.788,95.704,257.677,99.315,261.564,99.316"/>
					</g>
				</g>
			</g>
		</g>
		<g>
			<path style="fill:#263238;" d="M262.091,91.751c-0.05,0-0.1-0.007-0.15-0.023l-30.13-9.47c-0.263-0.083-0.409-0.364-0.326-0.627
				c0.082-0.263,0.36-0.409,0.627-0.327l30.13,9.47c0.263,0.083,0.409,0.364,0.326,0.627
				C262.501,91.614,262.304,91.751,262.091,91.751z"/>
			<path style="fill:#263238;" d="M234.511,83.082c-0.15,0-0.3-0.068-0.397-0.197l-3.094-4.066c-0.168-0.22-0.125-0.533,0.095-0.701
				c0.22-0.167,0.534-0.125,0.7,0.095l3.094,4.066c0.168,0.22,0.125,0.533-0.095,0.701
				C234.723,83.049,234.616,83.082,234.511,83.082z"/>
			<path style="fill:#263238;" d="M237.609,84.057c-0.15,0-0.3-0.068-0.398-0.197l-3.094-4.066c-0.168-0.22-0.125-0.533,0.095-0.701
				c0.22-0.167,0.534-0.125,0.7,0.095l3.094,4.066c0.168,0.22,0.125,0.533-0.095,0.701
				C237.821,84.023,237.715,84.057,237.609,84.057z"/>
			<path style="fill:#263238;" d="M240.708,85.03c-0.15,0-0.3-0.068-0.397-0.197l-3.094-4.066c-0.168-0.22-0.125-0.533,0.095-0.701
				c0.22-0.167,0.534-0.125,0.7,0.095l3.094,4.066c0.168,0.22,0.125,0.533-0.095,0.701C240.92,84.997,240.814,85.03,240.708,85.03z"
				/>
			<path style="fill:#263238;" d="M231.417,85.204c-0.159,0-0.315-0.076-0.412-0.217c-0.156-0.228-0.099-0.539,0.129-0.695
				l3.094-2.122c0.23-0.155,0.54-0.099,0.695,0.13c0.156,0.228,0.099,0.539-0.129,0.695l-3.094,2.121
				C231.613,85.176,231.515,85.204,231.417,85.204z"/>
			<path style="fill:#263238;" d="M234.516,86.178c-0.159,0-0.315-0.076-0.412-0.217c-0.156-0.228-0.099-0.539,0.129-0.695
				l3.094-2.121c0.23-0.155,0.54-0.098,0.695,0.13c0.156,0.228,0.099,0.539-0.129,0.695l-3.094,2.121
				C234.712,86.149,234.613,86.178,234.516,86.178z"/>
			<path style="fill:#263238;" d="M237.614,87.152c-0.159,0-0.316-0.076-0.412-0.217c-0.156-0.228-0.099-0.539,0.129-0.695
				l3.094-2.121c0.229-0.156,0.54-0.099,0.695,0.129c0.156,0.228,0.099,0.539-0.129,0.695l-3.094,2.122
				C237.811,87.123,237.712,87.152,237.614,87.152z"/>
		</g>
	</g>
</g>
</svg>
