<?xml version="1.0" encoding="utf-8"?>
<!-- Generator: Adobe Illustrator 27.5.0, SVG Export Plug-In . SVG Version: 6.00 Build 0)  -->
<svg version="1.1" xmlns="http://www.w3.org/2000/svg" xmlns:xlink="http://www.w3.org/1999/xlink" x="0px" y="0px"
	 viewBox="0 0 500 500" style="enable-background:new 0 0 500 500;" xml:space="preserve">
<g id="Floor">
	<ellipse id="Floor_22_" style="fill:#F5F5F5;" cx="247.989" cy="346.189" rx="227.056" ry="125.028"/>
</g>
<g id="Shadow_3_">
	<path id="Shadow_11_" style="fill:#E0E0E0;" d="M215.265,366.126c-16.615,9.588-43.552,9.588-60.167,0
		c-16.615-9.585-16.615-25.129,0-34.717c16.615-9.585,43.552-9.585,60.167,0C231.88,340.997,231.88,356.541,215.265,366.126z"/>
	<path id="Shadow_7_" style="fill:#E0E0E0;" d="M347.813,342.381l46.394-26.781c1.241-0.717,3.303-0.812,4.605-0.21l47.309,27.311
		c1.302,0.601,1.35,1.67,0.109,2.387l-47.284,27.228c-1.242,0.717-3.191,0.617-4.353-0.222L347.67,345.2
		C346.508,344.361,346.572,343.099,347.813,342.381z"/>
	<path id="Shadow_9_" style="fill:#E0E0E0;" d="M303.64,310.619l46.394-26.781c1.241-0.717,3.303-0.812,4.605-0.21l47.309,27.311
		c1.302,0.601,1.35,1.67,0.109,2.387l-47.284,27.228c-1.242,0.717-3.191,0.617-4.353-0.222l-46.923-26.892
		C302.334,312.599,302.399,311.336,303.64,310.619z"/>
	<path id="Shadow" style="fill:#E0E0E0;" d="M350.582,432.283l-128.017-74.022c-1.307-0.755-1.307-1.978,0-2.732l76.678-44.35
		c1.307-0.754,3.421-0.768,4.728-0.014L431.993,385.2c1.307,0.754,1.307,1.978,0,2.732l-76.678,44.35
		C354.008,433.037,351.889,433.037,350.582,432.283z"/>
</g>
<g id="Plants">
	<g id="Plants_8_">
		<g id="XMLID_8946_">
			<g id="XMLID_8949_">
				<path id="XMLID_8951_" style="fill:#27DEBF;" d="M439.879,322.091c0.482-5.99,5.812-18.048,12.653-25.326
					c6.841-7.278,17.071-12.179,23.822-9.246c6.288,2.732,4.905,11.158-3.391,16.147c-8.297,4.99-20.656,11.102-24.887,20.541
					l-8.197,11.339V322.091z"/>
				<path id="XMLID_8950_" style="opacity:0.2;" d="M439.879,322.091c0.482-5.99,5.812-18.048,12.653-25.326
					c6.841-7.278,17.071-12.179,23.822-9.246c6.288,2.732,4.905,11.158-3.391,16.147c-8.297,4.99-20.656,11.102-24.887,20.541
					l-8.197,11.339V322.091z"/>
			</g>
			<g id="XMLID_8947_">
				<path id="XMLID_8948_" style="fill:#FFFFFF;" d="M438.778,330.253c0.192,0,0.368-0.127,0.422-0.32
					c5.655-20.125,23.533-35.414,33.728-38.29c0.233-0.066,0.369-0.309,0.303-0.542c-0.065-0.232-0.302-0.373-0.542-0.303
					c-10.39,2.93-28.594,18.468-34.335,38.898c-0.066,0.233,0.07,0.475,0.303,0.541
					C438.699,330.247,438.739,330.253,438.778,330.253z"/>
			</g>
		</g>
		<g id="XMLID_8937_">
			<g id="XMLID_8944_">
				<path id="XMLID_8945_" style="fill:#27DEBF;" d="M440.775,343.586c1.233-3.289,5.792-8.515,12.813-12.57
					c7.767-4.485,17.267-6.071,19.731-9.851c2.961-4.54-0.68-9.347-8.314-9.018c-7.634,0.33-21.753,9.574-25.126,24.93
					L440.775,343.586z"/>
			</g>
			<g id="XMLID_8941_">
				<path id="XMLID_8942_" style="fill:#FFFFFF;" d="M439.597,339.935c0.167,0,0.327-0.096,0.4-0.259
					c7.679-17.013,21.538-22.086,27.793-22.392c0.242-0.012,0.429-0.218,0.417-0.46c-0.012-0.243-0.208-0.429-0.46-0.417
					c-6.917,0.338-20.713,5.543-28.551,22.908c-0.1,0.221-0.001,0.481,0.22,0.581C439.475,339.922,439.536,339.935,439.597,339.935z
					"/>
			</g>
		</g>
	</g>
</g>
<g id="Characters_with_desk">
	<g id="Boy">
		<g id="XMLID_8700_">
			<g id="XMLID_8812_">
				<path id="XMLID_8904_" style="fill:#263238;" d="M378.675,264.904v46.691c0,0.377,0.265,0.836,0.591,1.025l1.592,0.919
					c0.327,0.189,0.856,0.189,1.183,0l1.591-0.919c0.327-0.189,0.591-0.647,0.591-1.025v-46.691c0-0.377-0.306-0.683-0.683-0.683
					l-4.184,0C378.981,264.221,378.675,264.527,378.675,264.904z"/>
				<path id="XMLID_8813_" style="fill:#37474F;" d="M383.542,264.221h-1.409c-0.377,0-0.683,0.306-0.683,0.683l0,48.293
					c0,0.377,0.265,0.53,0.592,0.342l1.591-0.919c0.327-0.189,0.591-0.647,0.591-1.025v-46.691
					C384.225,264.527,383.919,264.221,383.542,264.221z"/>
			</g>
			<g id="XMLID_8809_">
				<path id="XMLID_8811_" style="fill:#263238;" d="M351.883,280.313v46.691c0,0.377,0.265,0.836,0.592,1.025l1.592,0.919
					c0.327,0.189,0.856,0.189,1.183,0l1.592-0.919c0.327-0.189,0.591-0.647,0.591-1.025v-46.691c0-0.377-0.306-0.683-0.683-0.683
					h-4.184C352.188,279.63,351.883,279.936,351.883,280.313z"/>
				<path id="XMLID_8810_" style="fill:#37474F;" d="M356.749,279.63h-1.409c-0.377,0-0.683,0.306-0.683,0.683l0,48.293
					c0,0.377,0.265,0.53,0.591,0.341l1.592-0.919c0.327-0.189,0.591-0.647,0.591-1.025v-46.691
					C357.432,279.936,357.127,279.63,356.749,279.63z"/>
			</g>
			<path id="XMLID_8808_" style="fill:#455A64;" d="M353.661,246.038c0.082,0.656-0.1,1.321-0.51,1.849
				c-0.41,0.528-1.002,0.856-1.667,0.947c-0.109,0.009-0.21,0.018-0.31,0.018c-1.266,0-2.332-0.947-2.486-2.195
				c-1.44-11.528,0.612-37.31,5.543-51.838c0.507-1.492,1.95-1.817,3.315-1.029l0,0c1.039,0.599,1.792,1.514,1.399,2.647
				C354.218,210.082,352.273,234.936,353.661,246.038z"/>
			<g id="XMLID_8778_">
				<path id="XMLID_8807_" style="fill:#37474F;" d="M382.703,252.671c0.164,0,0.333-0.026,0.498-0.08
					c0.836-0.275,1.291-1.176,1.016-2.012c-3.694-11.228-21.85-21.218-33.571-21.218c-0.88,0-1.594,0.714-1.594,1.594
					c0,0.88,0.713,1.594,1.594,1.594c10.603,0,27.319,9.227,30.544,19.026C381.409,252.245,382.033,252.671,382.703,252.671z"/>
			</g>
			<g id="XMLID_8767_">
				<path id="XMLID_8770_" style="fill:#37474F;" d="M384.414,238.114c0.165,0,0.333-0.026,0.498-0.081
					c0.836-0.275,1.291-1.176,1.016-2.012c-3.839-11.668-22.539-21.107-34.209-19.907c-0.876,0.09-1.513,0.872-1.423,1.748
					c0.09,0.876,0.867,1.517,1.749,1.423c10.34-1.053,27.491,7.51,30.856,17.732C383.121,237.689,383.745,238.114,384.414,238.114z"
					/>
			</g>
			<g id="XMLID_8762_">
				<path id="XMLID_8763_" style="fill:#37474F;" d="M387.96,226.576c0.214,0,0.431-0.044,0.641-0.135
					c0.806-0.354,1.172-1.294,0.818-2.1c-5.495-12.504-25.032-22.777-35.599-21.311c-0.872,0.121-1.481,0.925-1.36,1.797
					c0.12,0.872,0.913,1.485,1.798,1.36c9.339-1.297,27.332,8.26,32.242,19.436C386.762,226.22,387.347,226.576,387.96,226.576z"/>
			</g>
			<path id="XMLID_8761_" style="fill:#455A64;" d="M392.016,213.187c1.102,0.638,1.531,1.996,1.03,3.166
				c-5.759,13.452-8.792,29.888-8.792,47.881v2.413l-0.191,0.2c-0.219,0.228-0.483,0.31-0.756,0.31
				c-0.364,0-0.738-0.137-1.047-0.255c-0.155-0.055-0.419-0.155-0.51-0.164c-1.384,0-2.504-1.12-2.504-2.504
				c0-18.663,3.174-35.775,9.211-49.861c0.592-1.382,2.249-1.945,3.55-1.192L392.016,213.187z"/>
			<path id="XMLID_8723_" style="fill:#37474F;" d="M384.225,266.06v0.612c0,1.006-0.661,2.299-1.476,2.889l-26.615,19.241
				c-0.815,0.589-2.182,0.659-3.054,0.156l-37.54-21.673c-0.871-0.503-1.577-1.726-1.577-2.732v-0.629
				c0-1.006,0.74-2.163,1.654-2.585l33.688-15.56c0.913-0.422,2.36-0.356,3.231,0.148l30.113,17.401
				C383.519,263.831,384.225,265.055,384.225,266.06z"/>
			<path id="XMLID_8721_" style="fill:#27DEBF;" d="M382.648,263.328l-30.113-17.401c-0.871-0.503-2.318-0.569-3.231-0.148
				l-33.688,15.56c-0.913,0.422-0.947,1.172-0.076,1.674l37.539,21.673c0.871,0.503,2.238,0.433,3.054-0.156l26.614-19.225
				C383.564,264.716,383.519,263.831,382.648,263.328z"/>
		</g>
		<g id="XMLID_8636_">
			<g id="XMLID_8637_">
				<rect id="XMLID_8660_" x="334.198" y="327.4" style="fill:#FFA8A7;" width="7.498" height="12.836"/>
				<polygon id="XMLID_8659_" style="fill:#FFA8A7;" points="319.982,324.273 312.488,324.531 312.113,310.947 319.607,310.69 				
					"/>
				<path id="XMLID_8658_" style="fill:#263238;" d="M334.198,336.868v-1.332c-0.78,0.34-4.328,7.841-7.561,10.79
					c-2.571,2.345-7.089,5.554-6.98,7.777c0.142,2.869,4.234,4.141,7.764,3.313c2.759-0.647,6.697-2.319,8.586-4.359
					c1.845-1.992,2.505-4.721,3.492-6.055c0.987-1.335,3.261-2.825,3.794-4.37c0.293-0.849-0.055-2.708-0.467-4.278
					c-0.378-1.441-0.787-3.025-1.279-2.89c-0.001,0.176,0,0.889,0,0.889c-0.592,0.656-2.229,1.306-4.074,1.377
					C336.281,337.775,334.188,337.778,334.198,336.868z"/>
				<path id="XMLID_8657_" style="fill:#263238;" d="M312.409,322.219c-0.389,0.014-0.706,0.563-1.565,1.492
					c-1.038,1.123-3.358,2.297-5.034,3.136c-2.808,1.405-10.157,3.292-12.628,4.405c-1.543,0.695-1.156,3.09,1.032,4.438
					c1.631,1.005,6.825,1.976,11.45,0.942c2.519-0.564,6.353-2.311,8.229-2.606c2.054-0.324,5.834-0.719,7.366-1.775
					c1.532-1.056,0.919-3.312,0.486-5.25c-0.472-2.115-1.149-5.352-1.849-5.208l0.023,0.665c-0.901,1.365-5.491,1.922-7.471,0.918
					L312.409,322.219z"/>
				<path id="XMLID_8656_" style="fill:#37474F;" d="M371.899,249.335c1.643,11.587-0.571,13.812-11.584,24.911
					c-5.922,5.968-15.466,14.724-15.466,14.724s0.138,3.7,0.216,11.999c0.069,7.309-2.987,31.094-2.987,31.094
					s-4.975,2.093-8.391-0.079c0,0-1.542-17.695-2.375-26.913c-1.129-12.503-1.722-18.766-1.083-21.456
					c0.453-1.906,11.151-19.756,11.151-19.756l3.94-2.504l-24.553,15.604c0,0,0.812,6.06,0.693,10.578
					c-0.261,9.922-1.48,29.737-1.48,29.737s-5.455,2.441-8.16,0.337c0,0-6.863-43.336-6.863-46.893
					c0-5.405,23.471-21.537,27.913-25.294c2.535-2.144,5.363-4.433,5.363-4.433L371.899,249.335z"/>
				<path id="XMLID_8655_" style="fill:#263238;" d="M345.321,261.356c0,0-3.586-1.78-6.78-8.552c0,0,0.292,3.955,2.199,6.943
					c1.429,2.239-19.971,17.213-19.971,17.213L345.321,261.356z"/>
			</g>
		</g>
	</g>
	<g id="Girl_1_">
		<g id="XMLID_8588_">
			<g id="XMLID_8631_">
				<path id="XMLID_8634_" style="fill:#263238;" d="M435.321,297.73v46.691c0,0.377,0.265,0.836,0.592,1.025l1.592,0.919
					c0.327,0.189,0.856,0.189,1.183,0l1.591-0.919c0.327-0.189,0.592-0.647,0.592-1.025V297.73c0-0.377-0.306-0.683-0.683-0.683
					l-4.184,0C435.626,297.047,435.321,297.353,435.321,297.73z"/>
				<path id="XMLID_8633_" style="fill:#37474F;" d="M440.187,297.047h-1.409c-0.377,0-0.683,0.306-0.683,0.683l0,48.293
					c0,0.377,0.265,0.53,0.591,0.341l1.591-0.919c0.327-0.189,0.592-0.647,0.592-1.025V297.73
					C440.871,297.353,440.565,297.047,440.187,297.047z"/>
			</g>
			<g id="XMLID_8628_">
				<path id="XMLID_8630_" style="fill:#263238;" d="M408.528,313.139v46.691c0,0.377,0.265,0.836,0.592,1.024l1.592,0.919
					c0.327,0.189,0.856,0.189,1.183,0l1.591-0.919c0.327-0.189,0.591-0.647,0.591-1.025v-46.691c0-0.377-0.306-0.683-0.683-0.683
					l-4.184,0C408.834,312.456,408.528,312.762,408.528,313.139z"/>
				<path id="XMLID_8629_" style="fill:#37474F;" d="M413.395,312.456h-1.409c-0.377,0-0.683,0.306-0.683,0.683l0.001,48.293
					c0,0.377,0.265,0.53,0.591,0.341l1.591-0.919c0.327-0.189,0.591-0.647,0.591-1.025v-46.691
					C414.078,312.762,413.772,312.456,413.395,312.456z"/>
			</g>
			<path id="XMLID_8627_" style="fill:#455A64;" d="M410.307,278.865c0.082,0.656-0.1,1.321-0.51,1.849
				c-0.41,0.528-1.002,0.856-1.667,0.947c-0.109,0.009-0.21,0.018-0.31,0.018c-1.266,0-2.331-0.947-2.486-2.195
				c-1.44-11.528,0.612-37.31,5.543-51.838c0.506-1.492,1.95-1.817,3.314-1.029l0,0c1.039,0.6,1.792,1.514,1.399,2.647
				C410.863,242.909,408.918,267.762,410.307,278.865z"/>
			<g id="XMLID_8625_">
				<path id="XMLID_8626_" style="fill:#37474F;" d="M439.348,285.497c0.164,0,0.333-0.026,0.498-0.08
					c0.836-0.275,1.291-1.176,1.016-2.012c-3.694-11.228-21.85-21.218-33.571-21.218c-0.881,0-1.594,0.714-1.594,1.594
					s0.713,1.594,1.594,1.594c10.603,0,27.319,9.227,30.543,19.026C438.055,285.072,438.678,285.497,439.348,285.497z"/>
			</g>
			<g id="XMLID_8623_">
				<path id="XMLID_8624_" style="fill:#37474F;" d="M441.06,270.941c0.164,0,0.333-0.026,0.498-0.081
					c0.836-0.275,1.291-1.176,1.016-2.012c-3.839-11.668-22.539-21.107-34.209-19.907c-0.876,0.09-1.513,0.872-1.423,1.748
					c0.09,0.876,0.867,1.517,1.749,1.423c10.34-1.053,27.491,7.511,30.856,17.732C439.767,270.515,440.39,270.941,441.06,270.941z"
					/>
			</g>
			<g id="XMLID_8620_">
				<path id="XMLID_8622_" style="fill:#37474F;" d="M444.605,259.402c0.214,0,0.431-0.044,0.64-0.135
					c0.806-0.354,1.172-1.294,0.818-2.1c-5.495-12.504-25.032-22.777-35.599-21.311c-0.872,0.121-1.481,0.925-1.36,1.797
					c0.12,0.872,0.913,1.485,1.797,1.36c9.34-1.297,27.332,8.26,32.242,19.436C443.407,259.047,443.992,259.402,444.605,259.402z"/>
			</g>
			<path id="XMLID_8604_" style="fill:#455A64;" d="M448.661,246.014c1.102,0.637,1.531,1.996,1.03,3.166
				c-5.759,13.452-8.792,29.888-8.792,47.881v2.413l-0.191,0.2c-0.219,0.228-0.483,0.31-0.756,0.31
				c-0.364,0-0.738-0.137-1.047-0.255c-0.155-0.055-0.419-0.155-0.51-0.164c-1.384,0-2.505-1.12-2.505-2.504
				c0-18.663,3.174-35.775,9.211-49.861c0.592-1.382,2.249-1.945,3.55-1.192L448.661,246.014z"/>
			<path id="XMLID_8603_" style="fill:#37474F;" d="M440.871,298.887v0.612c0,1.006-0.661,2.299-1.476,2.889l-26.615,19.241
				c-0.815,0.589-2.182,0.659-3.054,0.156l-37.539-21.673c-0.871-0.503-1.578-1.726-1.578-2.732v-0.629
				c0-1.006,0.74-2.163,1.654-2.585l33.688-15.56c0.913-0.422,2.36-0.356,3.231,0.148l30.113,17.401
				C440.164,296.657,440.871,297.881,440.871,298.887z"/>
			<path id="XMLID_8589_" style="fill:#27DEBF;" d="M439.293,296.154l-30.113-17.401c-0.871-0.503-2.317-0.569-3.231-0.148
				l-33.688,15.56c-0.913,0.422-0.947,1.172-0.076,1.675l37.539,21.673c0.871,0.503,2.239,0.433,3.054-0.156l26.615-19.225
				C440.21,297.543,440.164,296.657,439.293,296.154z"/>
		</g>
		<g id="XMLID_8574_">
			<g id="XMLID_8582_">
				<path id="XMLID_8585_" style="fill:#263238;" d="M393.654,333.441c0.674,0.464,1.446,1.004,1.528,1.746
					c0.081,0.742,0.075,2.573-1.106,4.546c-1.181,1.973-1.525,5.331-1.361,7.53c0.164,2.198,1.11,7.693-1.153,10.406
					c-2.263,2.713-8.617,5.163-9.451,1.186c-0.834-3.977,3.825-20.916,3.825-20.916L393.654,333.441z"/>
				<path id="XMLID_8583_" style="fill:#9A4A4D;" d="M390.545,336.762c-0.354,2.163-0.862,5.767-0.868,9.1
					c-0.006,3.333-0.48,5.776-1.927,6.977c-1.447,1.201-3.913,1.551-3.452-0.808c0.461-2.36,1.637-14.094,1.637-14.094
					L390.545,336.762z"/>
			</g>
			<path id="XMLID_8580_" style="fill:#37474F;" d="M393.859,275.341c0,0-10.244,9.96-15.827,14.65
				c-5.583,4.69-10.872,9.246-11.553,12.228c-0.72,3.153,0.983,7.1,5.076,14.304c1.255,2.209,8.537,14.967,8.537,14.967
				l8.135-26.355l16.589-15.362L393.859,275.341z"/>
			<g id="XMLID_8575_">
				<path id="XMLID_8579_" style="fill:#263238;" d="M383.226,358.93c0.606,0.241,0.81,1.575,0.958,2.548
					c0.148,0.974,1.112,2.097,0.021,3.878c-1.09,1.781-3.426,2.409-4.914,4.84c-1.487,2.431-2.251,5.751-7.454,7.121
					c-5.203,1.37-9.29-0.173-10.348-1.69c-1.057-1.518-0.249-3.042,3.02-5.126c3.471-2.212,4.453-2.861,4.453-2.861L383.226,358.93z
					"/>
				<path id="XMLID_8578_" style="fill:#B16668;" d="M377.051,348.397c0,0-2.205,7.148-3.591,10.447
					c-1.386,3.299-2.29,5.426-4.859,8.405c-0.559,0.649-1.834,1.855-2.291,2.38c-0.407,0.467-0.472,1.007,0.11,1.561
					c1.147,1.092,6,1.343,8.715-0.701c2.716-2.043,3.991-4.881,5.609-6.525c0.81-0.823,1.571-1.609,2.129-2.189
					c0.535-0.557,0.742-1.349,0.542-2.095c-0.057-0.211-0.12-0.46-0.19-0.751c-0.376-1.566,1.68-8.003,1.68-8.003L377.051,348.397z"
					/>
				<path id="XMLID_8577_" style="fill:#37474F;" d="M430.182,275.341c2.708,5.845,1.575,12.268-0.18,17.643
					c-1.755,5.375-8.801,11.275-14.892,14.888c-6.091,3.613-15.455,8.003-17.282,8.817c-1.827,0.813-2.016,1.923-1.749,5.412
					c0.267,3.49-0.925,9.2-4.787,16.354c-4.079,7.557-6.386,12.472-6.386,12.472s-4.437,1.684-8.187-1.972
					c0,0,6.509-34.548,8.051-39.11c1.542-4.562,18.662-19.346,18.662-19.346s-8.203-9.906-9.573-15.159L430.182,275.341z"/>
				<path id="XMLID_8576_" style="opacity:0.2;" d="M382.384,312.051c0.938-4.608,4.317-8.242,7.55-11.32
					c2.65-2.516,9.439-8.62,11.798-10.741c-0.556-1.278-1.323-3.218-1.703-4.988c0,0,1.348,2.421,2.535,4.246l0.002-0.001
					l0.748,1.093c0.039,0.053,0.081,0.111,0.118,0.161l-0.002,0.002l0.001,0.001c0,0-0.018,0.018-0.046,0.046
					c-1.011,0.865-17.122,14.881-18.615,19.298c-0.856,2.532-3.242,14.308-5.2,24.28C379.725,332.633,381.5,316.44,382.384,312.051z
					"/>
			</g>
		</g>
	</g>
	<g id="Table">
		<g id="XMLID_8559_">
			<path id="XMLID_8561_" style="fill:#263238;" d="M349.281,360.082v66.342c0,0.479,0.336,1.062,0.751,1.301l2.022,1.167
				c0.415,0.24,1.088,0.24,1.503,0l2.022-1.167c0.415-0.24,0.751-0.822,0.751-1.302v-66.342c0-0.479-0.388-0.868-0.868-0.868h-5.314
				C349.669,359.214,349.281,359.602,349.281,360.082z"/>
			<path id="XMLID_8560_" style="fill:#37474F;" d="M355.463,359.214h-1.79c-0.479,0-0.868,0.388-0.868,0.868l0,68.377
				c0,0.479,0.336,0.673,0.751,0.434l2.022-1.167c0.415-0.24,0.751-0.822,0.751-1.302v-66.342
				C356.331,359.602,355.942,359.214,355.463,359.214z"/>
		</g>
		<g id="XMLID_8556_">
			<path id="XMLID_8558_" style="fill:#263238;" d="M418.192,320.322v66.342c0,0.479,0.336,1.062,0.751,1.301l2.022,1.167
				c0.415,0.24,1.088,0.24,1.503,0l2.021-1.167c0.415-0.24,0.751-0.822,0.751-1.301v-66.342c0-0.479-0.388-0.868-0.868-0.867h-5.314
				C418.58,319.454,418.192,319.842,418.192,320.322z"/>
			<path id="XMLID_8557_" style="fill:#37474F;" d="M424.374,319.454h-1.79c-0.479,0-0.868,0.389-0.868,0.868l0.001,68.377
				c0,0.479,0.336,0.673,0.751,0.434l2.021-1.167c0.415-0.24,0.751-0.822,0.751-1.301v-66.342
				C425.241,319.842,424.853,319.454,424.374,319.454z"/>
		</g>
		<g id="XMLID_8553_">
			<path id="XMLID_8555_" style="fill:#263238;" d="M228.729,291.383v65.085c0,0.479,0.337,1.062,0.751,1.301l2.022,1.167
				c0.415,0.24,1.088,0.24,1.503,0l2.022-1.167c0.415-0.24,0.751-0.822,0.751-1.301v-65.085c0-0.479-0.388-0.868-0.868-0.868
				l-5.314,0C229.117,290.515,228.729,290.904,228.729,291.383z"/>
			<path id="XMLID_8554_" style="fill:#37474F;" d="M234.911,290.515h-1.79c-0.479,0-0.868,0.388-0.868,0.868l0.001,67.12
				c0,0.479,0.336,0.673,0.751,0.434l2.022-1.167c0.415-0.24,0.751-0.822,0.751-1.301v-65.085
				C235.779,290.904,235.39,290.515,234.911,290.515z"/>
		</g>
		<g id="XMLID_8398_">
			<path id="XMLID_8552_" style="fill:#27DEBF;" d="M350.582,364.447l-128.017-74.022c-1.307-0.754-2.366-2.589-2.366-4.098v-0.943
				c0-1.509,1.059-3.344,2.366-4.098l76.678-44.35c1.307-0.754,3.426-0.754,4.732,0l128.017,74.022
				c1.307,0.754,2.366,2.589,2.366,4.098v0.943c0,1.509-1.059,3.344-2.366,4.098l-76.678,44.35
				C354.008,365.202,351.889,365.202,350.582,364.447z"/>
			<path id="XMLID_9223_" style="opacity:0.35;" d="M434.359,315.054v0.943c0,1.51-1.06,3.346-2.37,4.098l-76.671,44.356
				c-0.651,0.376-1.51,0.568-2.37,0.568v-6.409c0.86,0,1.719-0.192,2.37-0.568l76.671-44.356c1.143-0.659,1.294-1.669,0.434-2.42
				C433.525,312.124,434.359,313.718,434.359,315.054z"/>
			<path id="XMLID_8551_" style="opacity:0.45;" d="M352.944,365.019c-0.847,0-1.708-0.191-2.363-0.574l-128.011-74.024
				c-1.311-0.751-2.363-2.582-2.363-4.098v-0.943c0-1.325,0.82-2.923,1.926-3.798c-0.847,0.751-0.71,1.776,0.437,2.432
				l128.011,74.024c0.628,0.369,1.544,0.546,2.363,0.56V365.019z"/>
			<path id="XMLID_8545_" style="fill:#27DEBF;" d="M350.582,358.039l-128.017-74.022c-1.307-0.754-1.307-1.978,0-2.732
				l76.678-44.35c1.307-0.754,3.421-0.768,4.728-0.014l128.022,74.036c1.307,0.754,1.307,1.978,0,2.732l-76.678,44.35
				C354.008,358.794,351.889,358.794,350.582,358.039z"/>
			<path id="XMLID_9206_" style="opacity:0.2;" d="M350.582,358.039l-128.017-74.022c-1.307-0.754-1.307-1.978,0-2.732l76.678-44.35
				c1.307-0.754,3.421-0.768,4.728-0.014l128.022,74.036c1.307,0.754,1.307,1.978,0,2.732l-76.678,44.35
				C354.008,358.794,351.889,358.794,350.582,358.039z"/>
		</g>
	</g>
	<g id="Character_20_">
		<g id="XMLID_8641_">
			<path id="XMLID_9190_" style="fill:#FFA8A7;" d="M346.306,192.831c0,0-4.278-1.323-7.843,4.299
				c-1.57,2.476-5.677,9.442-8.374,14.04c-1.465,2.498-2.514,4.297-2.514,4.297s-16.472-8.734-17.4-9.876
				c-0.928-1.141-0.872-3.464-1.009-4.71c-0.23-2.085,0.532-3.877,0.641-4.63c0.23-1.598-2.072-1.229-2.801-0.594
				c-0.526,0.458-0.819,1.119-1.181,1.716c-0.361,0.597-1.029,2.537-1.716,2.661c-0.535,0.097-1.6-0.667-2.035-0.995
				c-1.81-1.366-2.928-3.267-4.318-4.998c-0.279-0.348-0.579-0.711-0.998-0.863c-0.681-0.248-1.417,0.135-2.025,0.53
				c-0.559,0.362-1.118,0.76-1.478,1.321c-0.256,0.399-0.397,0.86-0.503,1.322c-0.724,3.152,0.876,5.819,2.789,8.204
				c1.885,2.349,4.223,4.32,6.739,5.963c1.502,0.98,3.483,1.852,5.181,2.776c1.697,0.923,20.225,16.421,22.808,14.661
				c1.055-0.719,5.365-4.38,8.29-8.355c4.24-5.762,8.139-12.885,8.139-12.885C349.668,198.383,346.306,192.831,346.306,192.831z"/>
			<g id="XMLID_9184_">
				<path id="XMLID_9185_" style="fill:#27DEBF;" d="M353.821,192.959c0,0-4.715-1.913-7.775-1.718s-5.325,1.069-7.569,4.676
					c-2.996,4.816-7.953,13.133-7.953,13.133s2.858,6.582,9.634,10.306l9.135-13.784L353.821,192.959z"/>
			</g>
			<g id="XMLID_9187_" style="opacity:0.1;">
				<path id="XMLID_9188_" d="M353.821,192.959c0,0-4.715-1.913-7.775-1.718s-5.325,1.069-7.569,4.676
					c-2.996,4.816-7.953,13.133-7.953,13.133s2.858,6.582,9.634,10.306l9.135-13.784L353.821,192.959z"/>
			</g>
		</g>
		<g id="XMLID_8643_">
			<path id="XMLID_9011_" style="fill:#27DEBF;" d="M361.207,192.11c0.885,0.215,8.196,1.926,11.413,3.021v24.686l-0.145,31.579
				c-5.317,5.784-32.043,3.153-35.316-9.143c0,0,0-31.053,0-36.959c0-5.906,3.281-13,12.341-13.527L361.207,192.11z"/>
			<polygon id="XMLID_8455_" style="opacity:0.1;" points="372.62,224.906 369.535,213.953 372.548,235.481 			"/>
		</g>
		<g id="XMLID_8646_">
			<g id="XMLID_8654_">
				<path id="XMLID_9010_" style="fill:#263238;" d="M363.759,161.885c0,0,1.879-0.322,3.343,1.175
					c1.436,1.468,1.138,4.186-0.002,10.432l-4.437,0.509L363.759,161.885z"/>
				<path id="XMLID_9009_" style="fill:#263238;" d="M337.886,160.079c0,0-1.792,0.001-2.776-0.564
					c-1.362-0.782-1.718,0.765-0.971,2.11c0.746,1.345,2.141,3.097,5.148,3.429c0.04-0.193,1.274-3.466,1.274-3.466L337.886,160.079
					z"/>
				<path id="XMLID_9008_" style="fill:#FFA8A7;" d="M361.677,174.005c0.659,0.393,1.599-0.872,2.411-1.722
					c0.812-0.85,3.465-2.012,4.788,0.776c1.348,2.841-1.168,6.595-3.256,7.25c-3.598,1.13-4.139-1.179-4.139-1.179l-0.275,12.98
					c0,0-2.356,5.765-8.736,6.63c-6.38,0.865-5.066-4.395-2.971-6.973l0.01-3.95c0,0-3.26,0.495-4.851,0.249
					c-2.646-0.409-4.311-2.497-5.114-5.361c-1.289-4.601-1.779-8.316-0.685-17.364c1.199-9.918,12.734-10.021,18.964-6.1
					C364.053,163.16,361.677,174.005,361.677,174.005z"/>
				<path id="XMLID_9007_" style="fill:#263238;" d="M361.677,175.113c0.332,0.007,1.591-2.084,2.411-2.83
					c1.136-1.034-0.329-10.397-0.329-10.397s1.149-3.552-1.096-5.906c-2.245-2.355-6.598-1.958-9.78-2.073
					c-3.311-0.119-6.856-0.319-11.376-2.282c-4.52-1.963-4.857-2.195-5.418-0.211c-0.561,1.985-0.772,6.53,1.925,9.576l2.244,0.825
					c0,0,1.212,1.075,5.427,1.588c4.215,0.513,10.781-0.099,11.678-0.221c1.222-0.167,1.483,1.017,2.142,4.254
					C360.084,170.276,360.564,175.091,361.677,175.113z"/>
				<path id="XMLID_8667_" style="fill:#263238;" d="M363.753,162.613l3.983-2.138c-0.565-1.141-1.915-1.588-3.015-0.997
					C363.621,160.068,363.187,161.472,363.753,162.613z"/>
				<path id="XMLID_8665_" style="fill:#F28F8F;" d="M349.51,187.816c0,0,5.907-1.19,7.972-2.288
					c1.382-0.735,2.521-2.008,2.855-2.825c0,0-0.387,1.753-1.622,3.332c-1.51,1.931-9.205,3.353-9.205,3.353L349.51,187.816z"/>
			</g>
			<g id="XMLID_8647_">
				<path id="XMLID_8653_" style="fill:#263238;" d="M348.616,172.472c0,0.679,0.53,1.229,1.184,1.227
					c0.654-0.002,1.184-0.554,1.184-1.233c0-0.679-0.53-1.228-1.184-1.227C349.146,171.24,348.616,171.792,348.616,172.472z"/>
				<path id="XMLID_8652_" style="fill:#263238;" d="M349.872,168.002l2.533,1.398c0.373-0.728,0.109-1.63-0.59-2.016
					C351.115,166.998,350.245,167.275,349.872,168.002z"/>
				<path id="XMLID_8651_" style="fill:#F28F8F;" d="M348.455,180.649l-2.703,1.014c0.268,0.775,1.089,1.176,1.836,0.896
					C348.334,182.279,348.722,181.424,348.455,180.649z"/>
				<path id="XMLID_8650_" style="fill:#263238;" d="M339.11,168.988l2.309-1.779c-0.471-0.661-1.37-0.799-2.007-0.308
					C338.774,167.392,338.639,168.327,339.11,168.988z"/>
				<path id="XMLID_8649_" style="fill:#263238;" d="M339.377,171.749c0,0.679,0.53,1.228,1.184,1.227
					c0.654-0.002,1.184-0.554,1.184-1.233c0-0.679-0.53-1.229-1.184-1.227C339.907,170.517,339.377,171.07,339.377,171.749z"/>
				<polygon id="XMLID_8648_" style="fill:#F28F8F;" points="345.198,171.012 344.81,178.131 341.092,176.864 				"/>
			</g>
		</g>
		<g id="XMLID_8642_">
			<path id="XMLID_8640_" style="fill:#FFA8A7;" d="M385.354,235.79c0.436-2.109-4.276-23.003-6.127-29.609l-9.173,9.616
				l5.46,20.276c-0.077,1.4-1.231,9.753-3.023,14.633c-0.317,0.864-0.963,1.567-1.775,2.002c-2.178,1.166-3.111,2.451-4.796,3.993
				c-1.319,1.207-2.39,1.457-2.256,1.878c0.173,0.542,0.995,1.455,2.536,1.096c0.776-0.181,1.797-0.709,3.074-1.408
				c0,0-1.048,2.509-3.389,5.014c-3.173,3.395-3.451,5.592,2.462,6.044c3.705,0.283,6.818-1.804,10.159-9.785
				c0.962-2.299,2.174-5.642,3.084-8.668C383.739,243.719,384.348,240.661,385.354,235.79z"/>
			<path id="XMLID_8639_" style="fill:#27DEBF;" d="M368.07,208.75c-2.412-5.538-1.21-12.025,1.465-14.542
				c6.803,1.165,8.522,4.376,10.391,10.702c2.878,9.746,4.333,16.074,4.333,16.074c-1.694,2.265-9.425,5.095-12.606,4.128
				L368.07,208.75z"/>
			<path id="XMLID_8638_" style="opacity:0.1;" d="M368.07,208.75c-2.412-5.538-1.21-12.025,1.465-14.542
				c6.803,1.165,8.522,4.376,10.391,10.702c2.878,9.746,4.333,16.074,4.333,16.074c-1.694,2.265-9.425,5.095-12.606,4.128
				L368.07,208.75z"/>
		</g>
	</g>
	<g id="XMLID_9312_">
		<g id="XMLID_9475_">
			<g id="XMLID_9537_">
				<path id="XMLID_9540_" style="fill:#263238;" d="M357.126,282.824l18.641,9.814l0.383,0.603v0.485
					c0,0.242-0.14,0.462-0.383,0.603l-24.567,14.184c-0.177,0.102-0.404,0.159-0.639,0.159s-0.462-0.056-0.639-0.159l-18.224-10.522
					v-0.485L357.126,282.824z"/>
				<path id="XMLID_9538_" style="fill:#455A64;" d="M350.56,308.186c0.235,0,0.462-0.056,0.639-0.159l24.567-14.184
					c0.243-0.141,0.383-0.36,0.383-0.603c0-0.242-0.14-0.462-0.383-0.603l-17.82-10.288l-26.25,15.156l18.224,10.522
					C350.098,308.13,350.325,308.186,350.56,308.186z"/>
			</g>
			<g id="XMLID_9533_">
				<path id="XMLID_9536_" style="fill:#EBEBEB;" d="M357.946,280.926l17.618,10.172l0.181,0.253v1.891l0,0
					c0,0.091-0.06,0.183-0.181,0.253l-24.567,14.184c-0.242,0.139-0.633,0.139-0.875,0l-17.618-10.172v-1.891L357.946,280.926z"/>
				<path id="XMLID_9535_" style="fill:#F0F0F0;" d="M332.503,295.616l0.22,0.127l2.867,1.655l0.533,0.309l13.998,8.08
					c0.242,0.139,0.634,0.139,0.875,0l24.569-14.185c0.24-0.139,0.24-0.366,0-0.505l-0.234-0.135l-17.384-10.036l-25.225,14.563
					l-0.052,0.032L332.503,295.616z"/>
				<path id="XMLID_9534_" style="fill:#E0E0E0;" d="M350.56,305.892v1.891c0.158,0,0.317-0.034,0.436-0.105l24.569-14.185
					c0.119-0.069,0.18-0.16,0.18-0.253v-1.891c0,0.091-0.061,0.182-0.18,0.253l-24.569,14.185
					C350.877,305.858,350.718,305.892,350.56,305.892z"/>
			</g>
			<path id="XMLID_9532_" style="fill:#FAFAFA;" d="M332.503,295.363l3.172,1.831l0.497,0.287l13.949,8.053
				c0.242,0.139,0.634,0.139,0.875,0l22.001-12.702c0.198-0.109,0.382-0.216,0.554-0.319c0.895-0.546,1.435-1.033,1.78-1.552
				c0.014-0.022,0.028-0.043,0.043-0.065c0.028-0.042,0.046-0.087,0.055-0.131c0.04-0.194-0.089-0.38-0.307-0.444
				c-0.426-0.127-1.071-0.354-1.659-0.691c-0.008-0.004-0.014-0.008-0.022-0.012l-15.493-8.945L332.503,295.363z"/>
			<g id="XMLID_9490_">
				<g id="XMLID_9527_">
					<path id="XMLID_9531_" style="opacity:0.1;" d="M335.787,295.142c0.224,0.131,0.224,0.343,0,0.474
						c-0.224,0.131-0.59,0.131-0.817,0c-0.227-0.131-0.227-0.343,0-0.474C335.197,295.011,335.563,295.011,335.787,295.142z"/>
					<path id="XMLID_9529_" style="fill:#263238;" d="M332.596,294.885c0,0.133,0.01,0.271,0.03,0.408l0.287-0.166
						c-0.01-0.081-0.014-0.162-0.014-0.242c0-0.491,0.151-0.861,0.414-1.012c0.089-0.051,0.188-0.077,0.295-0.077
						c0.154,0,0.323,0.053,0.501,0.154c0.546,0.317,1.018,1.018,1.233,1.762c0.103,0.006,0.208-0.006,0.301-0.036
						c-0.232-0.834-0.766-1.63-1.382-1.988c-0.398-0.228-0.788-0.257-1.099-0.077C332.802,293.818,332.596,294.283,332.596,294.885z
						"/>
					<path id="XMLID_9528_" style="fill:#263238;" d="M332.655,295.45c0.002,0.022,0.008,0.046,0.014,0.071l0.052-0.032
						L332.655,295.45z"/>
				</g>
				<g id="XMLID_9523_">
					<path id="XMLID_9526_" style="opacity:0.1;" d="M338.249,293.72c0.224,0.131,0.224,0.343,0,0.474
						c-0.224,0.131-0.59,0.131-0.817,0c-0.227-0.131-0.227-0.343,0-0.474C337.659,293.589,338.025,293.589,338.249,293.72z"/>
					<path id="XMLID_9524_" style="fill:#263238;" d="M335.058,293.463c0,0.133,0.01,0.271,0.03,0.408l0.287-0.166
						c-0.01-0.081-0.014-0.162-0.014-0.242c0-0.491,0.151-0.861,0.414-1.012c0.089-0.051,0.188-0.077,0.295-0.077
						c0.154,0,0.323,0.053,0.501,0.154c0.546,0.317,1.018,1.018,1.232,1.762c0.103,0.006,0.208-0.006,0.301-0.036
						c-0.232-0.834-0.766-1.63-1.382-1.988c-0.398-0.228-0.788-0.257-1.099-0.077C335.264,292.396,335.058,292.861,335.058,293.463z
						"/>
				</g>
				<g id="XMLID_9519_">
					<path id="XMLID_9522_" style="opacity:0.1;" d="M340.711,292.298c0.225,0.131,0.225,0.343,0,0.474
						c-0.224,0.131-0.59,0.131-0.817,0c-0.227-0.131-0.227-0.343,0-0.474C340.121,292.167,340.487,292.167,340.711,292.298z"/>
					<path id="XMLID_9520_" style="fill:#263238;" d="M337.521,292.041c0,0.133,0.01,0.271,0.03,0.408l0.287-0.166
						c-0.01-0.081-0.014-0.162-0.014-0.243c0-0.491,0.151-0.861,0.414-1.012c0.089-0.051,0.188-0.077,0.295-0.077
						c0.154,0,0.323,0.052,0.501,0.154c0.546,0.317,1.018,1.018,1.232,1.762c0.103,0.006,0.208-0.006,0.301-0.036
						c-0.232-0.834-0.766-1.63-1.382-1.988c-0.398-0.228-0.788-0.257-1.099-0.077C337.727,290.974,337.521,291.439,337.521,292.041z
						"/>
				</g>
				<g id="XMLID_9515_">
					<path id="XMLID_9518_" style="opacity:0.1;" d="M343.173,290.877c0.224,0.131,0.225,0.343,0,0.474
						c-0.224,0.131-0.59,0.131-0.817,0c-0.227-0.131-0.227-0.343,0-0.474C342.583,290.746,342.949,290.746,343.173,290.877z"/>
					<path id="XMLID_9516_" style="fill:#263238;" d="M339.983,290.62c0,0.133,0.01,0.271,0.03,0.408l0.287-0.166
						c-0.01-0.081-0.014-0.162-0.014-0.242c0-0.491,0.151-0.861,0.414-1.012c0.089-0.051,0.188-0.077,0.295-0.077
						c0.154,0,0.323,0.052,0.501,0.153c0.546,0.317,1.018,1.018,1.232,1.762c0.103,0.006,0.208-0.006,0.301-0.036
						c-0.232-0.835-0.766-1.631-1.382-1.988c-0.398-0.228-0.788-0.257-1.099-0.077C340.189,289.553,339.983,290.018,339.983,290.62z
						"/>
				</g>
				<g id="XMLID_9511_">
					<path id="XMLID_9514_" style="opacity:0.1;" d="M345.636,289.455c0.224,0.131,0.225,0.343,0,0.474
						c-0.224,0.131-0.59,0.131-0.817,0c-0.227-0.131-0.227-0.343,0-0.474C345.045,289.324,345.411,289.324,345.636,289.455z"/>
					<path id="XMLID_9512_" style="fill:#263238;" d="M342.445,289.198c0,0.133,0.01,0.271,0.03,0.408l0.287-0.166
						c-0.01-0.081-0.014-0.162-0.014-0.242c0-0.491,0.151-0.861,0.414-1.012c0.089-0.051,0.188-0.077,0.295-0.077
						c0.154,0,0.323,0.052,0.501,0.154c0.546,0.317,1.018,1.018,1.232,1.762c0.103,0.006,0.208-0.006,0.301-0.036
						c-0.232-0.834-0.766-1.631-1.382-1.988c-0.398-0.228-0.788-0.257-1.099-0.077C342.651,288.132,342.445,288.596,342.445,289.198
						z"/>
				</g>
				<g id="XMLID_9507_">
					<path id="XMLID_9510_" style="opacity:0.1;" d="M348.098,288.034c0.225,0.131,0.225,0.343,0,0.474
						c-0.224,0.131-0.59,0.131-0.817,0c-0.227-0.131-0.227-0.343,0-0.474C347.508,287.903,347.874,287.903,348.098,288.034z"/>
					<path id="XMLID_9508_" style="fill:#263238;" d="M344.908,287.777c0,0.133,0.01,0.271,0.03,0.408l0.287-0.166
						c-0.01-0.081-0.014-0.162-0.014-0.242c0-0.491,0.152-0.861,0.414-1.012c0.089-0.051,0.188-0.077,0.295-0.077
						c0.154,0,0.323,0.053,0.501,0.154c0.546,0.317,1.018,1.018,1.232,1.762c0.103,0.006,0.208-0.006,0.301-0.036
						c-0.232-0.834-0.766-1.63-1.382-1.988c-0.398-0.228-0.788-0.257-1.099-0.077C345.113,286.71,344.908,287.175,344.908,287.777z"
						/>
				</g>
				<g id="XMLID_9503_">
					<path id="XMLID_9506_" style="opacity:0.1;" d="M350.56,286.612c0.224,0.131,0.224,0.343,0,0.474
						c-0.225,0.131-0.59,0.131-0.817,0c-0.227-0.131-0.227-0.343,0-0.474C349.97,286.481,350.336,286.481,350.56,286.612z"/>
					<path id="XMLID_9504_" style="fill:#263238;" d="M347.369,286.355c0,0.133,0.01,0.271,0.03,0.408l0.287-0.166
						c-0.01-0.081-0.014-0.162-0.014-0.242c0-0.491,0.152-0.861,0.414-1.012c0.089-0.051,0.188-0.077,0.295-0.077
						c0.154,0,0.323,0.052,0.501,0.154c0.546,0.317,1.018,1.018,1.233,1.762c0.103,0.006,0.208-0.006,0.301-0.036
						c-0.232-0.835-0.766-1.63-1.382-1.988c-0.398-0.228-0.788-0.257-1.099-0.077C347.575,285.288,347.369,285.753,347.369,286.355z
						"/>
				</g>
				<g id="XMLID_9499_">
					<path id="XMLID_9502_" style="opacity:0.1;" d="M353.023,285.191c0.224,0.131,0.224,0.343,0,0.474
						c-0.224,0.131-0.59,0.131-0.817,0c-0.227-0.131-0.227-0.343,0-0.474C352.433,285.06,352.798,285.06,353.023,285.191z"/>
					<path id="XMLID_9500_" style="fill:#263238;" d="M349.832,284.934c0,0.133,0.01,0.271,0.03,0.408l0.287-0.166
						c-0.01-0.081-0.014-0.162-0.014-0.242c0-0.491,0.151-0.861,0.414-1.012c0.089-0.05,0.188-0.077,0.295-0.077
						c0.154,0,0.323,0.052,0.501,0.154c0.546,0.317,1.018,1.018,1.232,1.762c0.103,0.006,0.208-0.006,0.301-0.036
						c-0.232-0.834-0.766-1.63-1.382-1.988c-0.398-0.228-0.788-0.257-1.099-0.077C350.038,283.867,349.832,284.332,349.832,284.934z
						"/>
				</g>
				<g id="XMLID_9495_">
					<path id="XMLID_9498_" style="opacity:0.1;" d="M355.484,283.769c0.225,0.131,0.225,0.343,0,0.474
						c-0.224,0.131-0.59,0.131-0.817,0c-0.227-0.131-0.227-0.343,0-0.474C354.894,283.638,355.26,283.638,355.484,283.769z"/>
					<path id="XMLID_9496_" style="fill:#263238;" d="M352.294,283.512c0,0.133,0.01,0.271,0.03,0.408l0.287-0.166
						c-0.01-0.081-0.014-0.162-0.014-0.242c0-0.491,0.151-0.861,0.414-1.012c0.089-0.051,0.188-0.077,0.295-0.077
						c0.154,0,0.323,0.053,0.501,0.154c0.546,0.317,1.018,1.018,1.232,1.762c0.103,0.006,0.208-0.006,0.301-0.036
						c-0.232-0.835-0.766-1.63-1.382-1.988c-0.398-0.228-0.788-0.257-1.099-0.077C352.5,282.445,352.294,282.91,352.294,283.512z"/>
				</g>
				<g id="XMLID_9491_">
					<path id="XMLID_9494_" style="opacity:0.1;" d="M357.947,282.347c0.224,0.131,0.224,0.343,0,0.474
						c-0.225,0.131-0.59,0.131-0.817,0c-0.227-0.131-0.227-0.343,0-0.474C357.357,282.216,357.723,282.216,357.947,282.347z"/>
					<path id="XMLID_9492_" style="fill:#263238;" d="M354.756,282.09c0,0.133,0.01,0.271,0.03,0.408l0.287-0.166
						c-0.01-0.081-0.014-0.162-0.014-0.242c0-0.491,0.152-0.861,0.414-1.012c0.089-0.05,0.188-0.077,0.295-0.077
						c0.154,0,0.323,0.052,0.501,0.154c0.546,0.317,1.018,1.018,1.232,1.762c0.103,0.006,0.208-0.006,0.301-0.036
						c-0.232-0.834-0.766-1.63-1.382-1.988c-0.398-0.228-0.788-0.257-1.099-0.077C354.962,281.024,354.756,281.488,354.756,282.09z"
						/>
				</g>
			</g>
			<g id="XMLID_9476_">
				<path style="fill:#EBEBEB;" d="M353.022,303.007c-0.049,0-0.098-0.012-0.143-0.038l-13.555-7.826
					c-0.136-0.079-0.183-0.253-0.103-0.389c0.078-0.137,0.253-0.182,0.389-0.105l13.555,7.826c0.136,0.079,0.183,0.253,0.104,0.389
					C353.216,302.956,353.12,303.007,353.022,303.007z"/>
				<path style="fill:#EBEBEB;" d="M354.664,302.06c-0.049,0-0.098-0.012-0.143-0.038l-13.555-7.826
					c-0.136-0.079-0.183-0.253-0.103-0.389c0.079-0.137,0.253-0.182,0.389-0.104l13.555,7.826c0.136,0.079,0.183,0.253,0.104,0.389
					C354.857,302.008,354.762,302.06,354.664,302.06z"/>
				<path style="fill:#EBEBEB;" d="M356.306,301.112c-0.049,0-0.098-0.012-0.143-0.038l-13.555-7.826
					c-0.136-0.079-0.183-0.253-0.103-0.389c0.078-0.137,0.254-0.182,0.389-0.104l13.555,7.826c0.136,0.079,0.183,0.253,0.104,0.389
					C356.499,301.06,356.403,301.112,356.306,301.112z"/>
				<path style="fill:#EBEBEB;" d="M357.947,300.164c-0.049,0-0.098-0.012-0.143-0.038L344.25,292.3
					c-0.136-0.079-0.183-0.253-0.103-0.389c0.078-0.137,0.253-0.182,0.389-0.104l13.555,7.826c0.136,0.079,0.183,0.253,0.104,0.389
					C358.141,300.113,358.045,300.164,357.947,300.164z"/>
				<path style="fill:#EBEBEB;" d="M359.589,299.216c-0.049,0-0.098-0.012-0.143-0.038l-13.555-7.826
					c-0.136-0.079-0.183-0.253-0.104-0.389c0.079-0.137,0.253-0.182,0.389-0.104l13.555,7.826c0.136,0.079,0.183,0.253,0.104,0.389
					C359.782,299.165,359.686,299.216,359.589,299.216z"/>
				<path style="fill:#EBEBEB;" d="M361.23,298.269c-0.049,0-0.098-0.012-0.143-0.038l-13.555-7.826
					c-0.136-0.079-0.183-0.253-0.104-0.389c0.078-0.137,0.254-0.182,0.389-0.105l13.555,7.826c0.136,0.079,0.183,0.253,0.104,0.389
					C361.424,298.217,361.328,298.269,361.23,298.269z"/>
				<path style="fill:#EBEBEB;" d="M362.872,297.321c-0.049,0-0.098-0.012-0.143-0.038l-13.555-7.826
					c-0.136-0.079-0.183-0.253-0.104-0.389c0.078-0.137,0.253-0.182,0.389-0.104l13.555,7.826c0.136,0.079,0.183,0.253,0.104,0.389
					C363.065,297.27,362.97,297.321,362.872,297.321z"/>
				<path style="fill:#EBEBEB;" d="M364.514,296.373c-0.049,0-0.098-0.012-0.143-0.038l-13.555-7.826
					c-0.136-0.079-0.183-0.253-0.104-0.389c0.079-0.137,0.253-0.182,0.389-0.104l13.555,7.826c0.136,0.079,0.183,0.253,0.103,0.389
					C364.707,296.322,364.611,296.373,364.514,296.373z"/>
				<path style="fill:#EBEBEB;" d="M366.155,295.425c-0.049,0-0.098-0.012-0.143-0.038l-13.555-7.826
					c-0.136-0.079-0.183-0.253-0.104-0.389c0.078-0.137,0.254-0.182,0.389-0.105l13.555,7.826c0.136,0.079,0.183,0.253,0.103,0.389
					C366.349,295.374,366.253,295.425,366.155,295.425z"/>
				<path style="fill:#EBEBEB;" d="M367.797,294.478c-0.049,0-0.098-0.012-0.143-0.038l-13.555-7.826
					c-0.136-0.079-0.183-0.253-0.104-0.389c0.078-0.137,0.253-0.183,0.389-0.105l13.555,7.826c0.136,0.079,0.183,0.253,0.103,0.389
					C367.99,294.426,367.895,294.478,367.797,294.478z"/>
				<path style="fill:#EBEBEB;" d="M369.439,293.53c-0.049,0-0.098-0.012-0.143-0.038l-13.555-7.826
					c-0.136-0.079-0.183-0.253-0.104-0.389c0.079-0.137,0.253-0.183,0.389-0.104l13.555,7.826c0.136,0.079,0.183,0.253,0.104,0.389
					C369.632,293.478,369.536,293.53,369.439,293.53z"/>
				<path style="fill:#EBEBEB;" d="M371.08,292.582c-0.049,0-0.098-0.012-0.143-0.038l-13.555-7.826
					c-0.136-0.079-0.183-0.253-0.104-0.389c0.078-0.137,0.254-0.183,0.389-0.104l13.555,7.826c0.136,0.079,0.183,0.253,0.104,0.389
					C371.273,292.53,371.178,292.582,371.08,292.582z"/>
				<path style="fill:#EBEBEB;" d="M372.722,291.634c-0.049,0-0.098-0.012-0.143-0.038l-13.555-7.826
					c-0.136-0.079-0.183-0.253-0.104-0.389c0.078-0.137,0.253-0.183,0.389-0.104l13.555,7.826c0.136,0.079,0.183,0.253,0.104,0.389
					C372.915,291.582,372.819,291.634,372.722,291.634z"/>
			</g>
			<g id="XMLID_9473_">
				<path style="fill:#27DEBF;" d="M351.355,303.955c-0.049,0-0.098-0.012-0.143-0.038l-14.337-8.292
					c-0.136-0.079-0.183-0.253-0.104-0.389c0.078-0.137,0.253-0.183,0.389-0.104l14.337,8.292c0.136,0.079,0.183,0.253,0.104,0.389
					C351.549,303.904,351.453,303.955,351.355,303.955z"/>
			</g>
			<g id="XMLID_9165_" style="opacity:0.25;">
				<g id="XMLID_9466_">
					<path id="XMLID_9470_" style="fill:#455A64;" d="M344.517,293.905c0.205-0.107,0.511-0.406,0.693-0.715
						c0.117-0.05,0.227-0.084,0.305-0.073c0.397,0.056,0.062,0.208,0.019,0.36c-0.015,0.052,0.023,0.094,0.077,0.085
						c0.277-0.044,0.944-0.209,0.763,0.241c-0.012,0.029,0.003,0.072,0.036,0.08c0.084,0.019,0.463,0.079,0.421,0.173
						c-0.016,0.037,0.015,0.085,0.056,0.083c0.294-0.015,0.585-0.001,0.877,0.016c0.047,0.003,0.38,0.022,0.4,0.047
						c0.088,0.106-0.056,0.33-0.096,0.403c-0.021,0.039-0.013,0.079,0.028,0.098c0.149,0.069,0.264,0.157,0.165,0.317
						c-0.02,0.033-0.017,0.087,0.027,0.099c0.377,0.104,1.048-0.206,1.154,0.244c0.065,0.276,0.028,0.339,0.366,0.31
						c0.06-0.005,0.107-0.123,0.027-0.125c-0.361-0.007-0.095-0.413-0.3-0.554c-0.23-0.159-0.701,0.128-0.927-0.013
						c-0.161-0.101,0.036-0.157-0.092-0.318c-0.034-0.042-0.127-0.032-0.15-0.064c-0.035-0.049-0.054-0.058-0.064-0.056
						c0.006-0.013,0.013-0.042,0.02-0.102c0.009-0.073,0.045-0.067,0.054-0.112c0.088-0.418-0.584-0.317-0.855-0.339
						c-0.099-0.008-0.442,0.026-0.493-0.004c-0.015-0.008,0.003-0.101-0.023-0.117c-0.058-0.036-0.391-0.148-0.398-0.163
						c-0.015-0.033,0.088-0.155,0.043-0.243c-0.109-0.212-0.576-0.099-0.747-0.092c-0.079,0.003-0.116,0.008-0.129,0.01
						c0.024-0.006,0.107-0.033,0.115-0.117c0.005-0.055,0.036-0.087,0.014-0.16c-0.04-0.133-0.137-0.137-0.251-0.147
						c-0.113-0.011-0.235,0.019-0.356,0.066c0.057-0.135,0.083-0.266,0.056-0.378c-0.099-0.411-0.561-0.111-0.803-0.017
						c-0.056,0.022-0.074,0.138,0.006,0.115c0.142-0.042,0.396-0.18,0.527-0.155c0.219,0.042,0.054,0.368-0.071,0.569
						c-0.096,0.05-0.187,0.1-0.268,0.136c-0.198,0.09-0.429,0.165-0.554,0.355C343.987,293.951,344.254,294.042,344.517,293.905z
						 M344.664,293.471c0.053-0.024,0.125-0.064,0.206-0.109c-0.092,0.133-0.194,0.301-0.348,0.37
						c-0.032,0.014-0.293,0.105-0.21-0.007C344.409,293.596,344.521,293.537,344.664,293.471z"/>
					<path id="XMLID_9467_" style="fill:#455A64;" d="M350.358,297.177c-0.002,0.026,0.017,0.049,0.041,0.057
						c0.323,0.101,0.619-0.276,0.732-0.649c0.117-0.031,0.37-0.052,0.414,0.133c0.001,0.002-0.066,0.164-0.069,0.193
						c-0.004,0.037,0.029,0.058,0.06,0.064c0.175,0.033,0.732-0.208,0.642,0.099c-0.007,0.025-0.002,0.053,0.02,0.068
						c0.145,0.099,0.462-0.069,0.508,0.152c0.02,0.099-0.196,0.202-0.079,0.349c0.091,0.114,0.251,0.036,0.357,0.002
						c0.066-0.021,0.128-0.093,0.199-0.068c0.098,0.034-0.016,0.073,0.034,0.106c0.02,0.013,0.044,0.082,0.081,0.105
						c0.05,0.029,0.108,0.003,0.163,0.003c0.042,0,0.074-0.061,0.114-0.063c0.06-0.003,0.173,0.044,0.22,0.06
						c0.031,0.01,0.311,0.141,0.28,0.087c0.047,0.082-0.141,0.232-0.046,0.36c0.129,0.175,0.567-0.01,0.697-0.02
						c0.063-0.005,0.115-0.139,0.033-0.137c0.007,0-0.32,0.044-0.326,0.041c-0.283-0.121-0.207-0.207-0.155-0.347
						c0.015-0.042-0.002-0.088-0.053-0.084c-0.188,0.016-0.32-0.175-0.464-0.172c-0.049,0.001-0.203,0.088-0.23,0.086
						c-0.224-0.014-0.116-0.068-0.121-0.223c-0.002-0.039-0.045-0.062-0.08-0.049c-0.127,0.047-0.458,0.311-0.466-0.001
						c-0.001-0.041,0.139-0.127,0.149-0.192c0.021-0.144-0.047-0.182-0.177-0.211c-0.095-0.021-0.188,0.024-0.278,0.038
						c-0.354,0.057-0.055,0.008-0.176-0.093c-0.118-0.099-0.135-0.111-0.33-0.103c-0.057,0.002-0.176,0.036-0.224,0.023
						c-0.193-0.051-0.064,0.002-0.073-0.126c-0.006-0.087,0.072-0.15,0.04-0.247c-0.053-0.163-0.156-0.158-0.315-0.128
						c-0.085,0.016-0.191,0.052-0.304,0.103c0.032-0.257-0.045-0.469-0.29-0.461c-0.065,0.002-0.127,0.121-0.04,0.132
						c0.182,0.024,0.176,0.238,0.126,0.434C350.668,296.674,350.38,296.929,350.358,297.177z M350.668,296.943
						c0.017-0.05,0.119-0.144,0.227-0.224c-0.016,0.038-0.031,0.069-0.042,0.088C350.822,296.859,350.605,297.129,350.668,296.943z"
						/>
				</g>
				<g id="XMLID_9459_">
					<path id="XMLID_9463_" style="fill:#455A64;" d="M346.37,298.762c0.205-0.107,0.511-0.406,0.694-0.715
						c0.117-0.05,0.227-0.084,0.304-0.073c0.397,0.056,0.062,0.208,0.019,0.36c-0.015,0.052,0.023,0.094,0.077,0.085
						c0.277-0.044,0.944-0.209,0.763,0.241c-0.012,0.029,0.003,0.072,0.036,0.08c0.084,0.019,0.463,0.079,0.421,0.173
						c-0.016,0.037,0.016,0.085,0.056,0.083c0.294-0.015,0.585-0.001,0.877,0.016c0.047,0.003,0.38,0.022,0.4,0.047
						c0.087,0.106-0.056,0.33-0.096,0.403c-0.021,0.039-0.013,0.079,0.028,0.098c0.149,0.069,0.264,0.157,0.165,0.317
						c-0.02,0.033-0.017,0.087,0.027,0.099c0.377,0.104,1.048-0.206,1.154,0.244c0.065,0.276,0.028,0.339,0.366,0.31
						c0.06-0.005,0.107-0.123,0.027-0.125c-0.361-0.007-0.095-0.413-0.3-0.554c-0.23-0.159-0.701,0.128-0.927-0.014
						c-0.16-0.1,0.036-0.157-0.092-0.318c-0.034-0.042-0.127-0.033-0.15-0.064c-0.035-0.049-0.054-0.058-0.064-0.056
						c0.006-0.013,0.013-0.042,0.021-0.102c0.009-0.073,0.045-0.067,0.054-0.112c0.088-0.418-0.584-0.317-0.855-0.339
						c-0.099-0.008-0.442,0.026-0.493-0.004c-0.015-0.008,0.003-0.101-0.023-0.117c-0.058-0.036-0.391-0.148-0.398-0.163
						c-0.015-0.033,0.088-0.155,0.043-0.243c-0.108-0.212-0.576-0.099-0.746-0.093c-0.079,0.003-0.116,0.008-0.129,0.01
						c0.024-0.005,0.108-0.033,0.115-0.117c0.005-0.055,0.036-0.087,0.014-0.161c-0.04-0.133-0.137-0.136-0.251-0.147
						c-0.113-0.01-0.235,0.019-0.356,0.066c0.057-0.135,0.083-0.267,0.056-0.378c-0.099-0.411-0.561-0.111-0.803-0.017
						c-0.056,0.022-0.074,0.138,0.006,0.115c0.142-0.042,0.396-0.18,0.527-0.155c0.219,0.042,0.054,0.368-0.071,0.569
						c-0.096,0.05-0.187,0.1-0.268,0.136c-0.198,0.089-0.429,0.165-0.554,0.355C345.841,298.808,346.108,298.899,346.37,298.762z
						 M346.517,298.328c0.053-0.024,0.125-0.064,0.206-0.109c-0.092,0.133-0.194,0.301-0.348,0.37
						c-0.032,0.014-0.293,0.105-0.21-0.007C346.262,298.453,346.375,298.394,346.517,298.328z"/>
					<path id="XMLID_9460_" style="fill:#455A64;" d="M341.266,295.734c-0.002,0.026,0.017,0.049,0.041,0.057
						c0.323,0.101,0.619-0.276,0.732-0.649c0.117-0.031,0.37-0.052,0.414,0.133c0,0.002-0.066,0.164-0.069,0.193
						c-0.005,0.037,0.029,0.058,0.06,0.064c0.175,0.033,0.732-0.207,0.642,0.099c-0.007,0.025-0.002,0.053,0.021,0.068
						c0.145,0.099,0.462-0.07,0.507,0.152c0.02,0.099-0.196,0.202-0.079,0.35c0.091,0.114,0.251,0.035,0.357,0.002
						c0.066-0.021,0.128-0.093,0.199-0.069c0.098,0.034-0.016,0.073,0.034,0.106c0.02,0.013,0.044,0.082,0.081,0.105
						c0.05,0.029,0.108,0.003,0.163,0.003c0.042,0,0.074-0.061,0.114-0.063c0.06-0.003,0.173,0.044,0.219,0.06
						c0.031,0.011,0.311,0.141,0.281,0.087c0.047,0.082-0.141,0.232-0.046,0.36c0.13,0.175,0.567-0.01,0.697-0.02
						c0.063-0.005,0.115-0.139,0.033-0.137c0.008,0-0.32,0.044-0.326,0.041c-0.283-0.122-0.207-0.207-0.155-0.347
						c0.015-0.042-0.002-0.088-0.053-0.084c-0.188,0.016-0.32-0.176-0.464-0.172c-0.049,0.001-0.203,0.088-0.23,0.086
						c-0.224-0.014-0.116-0.068-0.121-0.222c-0.001-0.039-0.045-0.062-0.08-0.049c-0.127,0.047-0.458,0.311-0.466-0.001
						c-0.001-0.041,0.139-0.127,0.149-0.192c0.021-0.144-0.047-0.182-0.177-0.211c-0.095-0.021-0.188,0.024-0.278,0.038
						c-0.354,0.057-0.055,0.008-0.176-0.093c-0.118-0.099-0.135-0.111-0.33-0.103c-0.057,0.003-0.175,0.036-0.224,0.023
						c-0.193-0.051-0.065,0.002-0.073-0.126c-0.006-0.087,0.072-0.15,0.04-0.247c-0.053-0.163-0.156-0.158-0.315-0.128
						c-0.085,0.016-0.192,0.052-0.304,0.103c0.032-0.257-0.045-0.469-0.29-0.462c-0.065,0.002-0.127,0.121-0.04,0.132
						c0.182,0.024,0.176,0.238,0.126,0.434C341.576,295.231,341.288,295.486,341.266,295.734z M341.576,295.5
						c0.017-0.05,0.119-0.144,0.227-0.224c-0.016,0.038-0.031,0.069-0.042,0.088C341.73,295.417,341.514,295.686,341.576,295.5z"/>
				</g>
				<g id="XMLID_9452_">
					<path id="XMLID_9456_" style="fill:#455A64;" d="M354.529,288.371c0.205-0.107,0.511-0.406,0.693-0.715
						c0.117-0.05,0.227-0.084,0.304-0.073c0.397,0.056,0.062,0.208,0.019,0.36c-0.015,0.052,0.023,0.094,0.077,0.085
						c0.277-0.044,0.944-0.209,0.763,0.241c-0.012,0.029,0.003,0.072,0.036,0.08c0.084,0.019,0.463,0.079,0.421,0.173
						c-0.017,0.037,0.015,0.085,0.056,0.083c0.293-0.015,0.585-0.001,0.877,0.016c0.047,0.003,0.38,0.022,0.4,0.047
						c0.087,0.106-0.056,0.33-0.096,0.404c-0.021,0.039-0.013,0.079,0.028,0.098c0.149,0.069,0.264,0.157,0.165,0.317
						c-0.02,0.033-0.016,0.087,0.027,0.099c0.377,0.104,1.048-0.206,1.154,0.244c0.065,0.276,0.028,0.339,0.366,0.31
						c0.06-0.005,0.107-0.123,0.027-0.125c-0.361-0.007-0.095-0.413-0.3-0.554c-0.23-0.159-0.701,0.128-0.927-0.013
						c-0.16-0.101,0.036-0.157-0.092-0.318c-0.034-0.042-0.127-0.032-0.15-0.064c-0.035-0.049-0.054-0.058-0.064-0.056
						c0.006-0.013,0.013-0.042,0.021-0.102c0.009-0.073,0.045-0.067,0.054-0.112c0.088-0.418-0.584-0.317-0.855-0.339
						c-0.099-0.008-0.442,0.026-0.493-0.003c-0.015-0.009,0.003-0.101-0.023-0.117c-0.058-0.036-0.391-0.148-0.398-0.163
						c-0.015-0.033,0.088-0.155,0.043-0.243c-0.109-0.212-0.576-0.099-0.747-0.092c-0.079,0.003-0.116,0.008-0.129,0.01
						c0.024-0.006,0.107-0.033,0.115-0.117c0.005-0.055,0.036-0.087,0.014-0.16c-0.04-0.133-0.137-0.137-0.251-0.147
						c-0.113-0.01-0.234,0.019-0.356,0.066c0.057-0.135,0.083-0.267,0.056-0.378c-0.099-0.411-0.561-0.111-0.803-0.016
						c-0.056,0.022-0.074,0.138,0.006,0.115c0.142-0.042,0.396-0.18,0.527-0.155c0.219,0.041,0.054,0.368-0.071,0.569
						c-0.096,0.05-0.187,0.1-0.268,0.136c-0.198,0.089-0.429,0.165-0.554,0.355C354,288.417,354.266,288.508,354.529,288.371z
						 M354.676,287.937c0.053-0.024,0.126-0.064,0.206-0.109c-0.092,0.133-0.194,0.301-0.348,0.37
						c-0.032,0.014-0.293,0.105-0.21-0.007C354.421,288.062,354.533,288.003,354.676,287.937z"/>
					<path id="XMLID_9453_" style="fill:#455A64;" d="M360.37,291.643c-0.002,0.026,0.017,0.049,0.041,0.057
						c0.323,0.101,0.619-0.276,0.732-0.649c0.117-0.031,0.37-0.051,0.414,0.133c0.001,0.002-0.066,0.164-0.069,0.193
						c-0.005,0.037,0.029,0.058,0.06,0.064c0.175,0.033,0.732-0.207,0.642,0.099c-0.007,0.025-0.002,0.053,0.02,0.068
						c0.145,0.098,0.462-0.07,0.508,0.152c0.02,0.099-0.196,0.202-0.079,0.35c0.091,0.114,0.251,0.036,0.357,0.002
						c0.066-0.021,0.128-0.093,0.199-0.069c0.098,0.034-0.016,0.073,0.034,0.106c0.02,0.013,0.043,0.082,0.081,0.105
						c0.05,0.029,0.108,0.003,0.163,0.003c0.042,0,0.074-0.061,0.114-0.063c0.06-0.003,0.173,0.044,0.219,0.06
						c0.031,0.01,0.311,0.141,0.28,0.087c0.047,0.082-0.141,0.232-0.046,0.36c0.13,0.175,0.567-0.01,0.697-0.02
						c0.063-0.005,0.115-0.139,0.033-0.137c0.008,0-0.32,0.044-0.326,0.041c-0.283-0.121-0.207-0.207-0.155-0.347
						c0.015-0.042-0.002-0.088-0.053-0.084c-0.188,0.016-0.32-0.175-0.464-0.172c-0.049,0.001-0.203,0.088-0.23,0.086
						c-0.224-0.014-0.116-0.068-0.121-0.223c-0.001-0.039-0.045-0.062-0.08-0.049c-0.127,0.047-0.458,0.311-0.466-0.001
						c-0.001-0.041,0.139-0.127,0.149-0.192c0.022-0.144-0.047-0.182-0.177-0.211c-0.095-0.021-0.188,0.024-0.278,0.039
						c-0.354,0.057-0.055,0.008-0.176-0.093c-0.118-0.099-0.135-0.111-0.33-0.103c-0.057,0.003-0.175,0.036-0.224,0.023
						c-0.193-0.051-0.064,0.002-0.073-0.126c-0.006-0.087,0.072-0.15,0.04-0.247c-0.053-0.163-0.156-0.158-0.315-0.128
						c-0.085,0.016-0.191,0.052-0.304,0.103c0.032-0.257-0.045-0.469-0.29-0.462c-0.065,0.002-0.127,0.121-0.04,0.132
						c0.182,0.024,0.176,0.238,0.126,0.434C360.68,291.14,360.392,291.395,360.37,291.643z M360.68,291.409
						c0.017-0.05,0.119-0.144,0.227-0.224c-0.016,0.038-0.031,0.069-0.042,0.088C360.834,291.325,360.618,291.595,360.68,291.409z"
						/>
				</g>
				<g id="XMLID_9360_">
					<path id="XMLID_9449_" style="fill:#455A64;" d="M356.383,293.228c0.205-0.107,0.511-0.406,0.694-0.715
						c0.117-0.05,0.227-0.084,0.304-0.073c0.397,0.056,0.062,0.208,0.019,0.36c-0.015,0.052,0.023,0.094,0.077,0.085
						c0.277-0.044,0.944-0.209,0.763,0.241c-0.012,0.029,0.003,0.073,0.036,0.08c0.084,0.019,0.463,0.079,0.421,0.173
						c-0.017,0.037,0.015,0.085,0.056,0.083c0.294-0.015,0.585-0.001,0.877,0.015c0.047,0.003,0.38,0.022,0.4,0.047
						c0.088,0.106-0.056,0.33-0.096,0.403c-0.022,0.039-0.013,0.079,0.028,0.098c0.149,0.069,0.264,0.157,0.165,0.317
						c-0.02,0.033-0.016,0.087,0.027,0.099c0.377,0.104,1.048-0.206,1.154,0.244c0.065,0.276,0.028,0.339,0.366,0.31
						c0.06-0.005,0.107-0.123,0.027-0.125c-0.361-0.007-0.095-0.413-0.3-0.554c-0.23-0.159-0.701,0.128-0.927-0.014
						c-0.16-0.1,0.036-0.157-0.092-0.318c-0.034-0.042-0.127-0.032-0.15-0.064c-0.035-0.049-0.054-0.058-0.064-0.056
						c0.006-0.013,0.013-0.042,0.021-0.102c0.009-0.073,0.045-0.067,0.054-0.112c0.088-0.418-0.584-0.317-0.855-0.339
						c-0.099-0.008-0.442,0.026-0.493-0.003c-0.015-0.009,0.003-0.101-0.023-0.117c-0.058-0.036-0.391-0.148-0.398-0.163
						c-0.015-0.033,0.088-0.155,0.043-0.243c-0.109-0.212-0.576-0.099-0.747-0.092c-0.079,0.003-0.116,0.007-0.129,0.01
						c0.024-0.006,0.107-0.033,0.115-0.117c0.005-0.055,0.036-0.087,0.014-0.16c-0.04-0.133-0.137-0.137-0.251-0.147
						c-0.113-0.011-0.235,0.019-0.356,0.066c0.057-0.135,0.083-0.267,0.056-0.378c-0.099-0.411-0.561-0.111-0.803-0.016
						c-0.056,0.022-0.074,0.138,0.006,0.114c0.142-0.042,0.396-0.18,0.527-0.155c0.219,0.042,0.054,0.368-0.071,0.569
						c-0.096,0.05-0.187,0.1-0.268,0.136c-0.198,0.089-0.429,0.165-0.554,0.355C355.853,293.274,356.12,293.365,356.383,293.228z
						 M356.53,292.794c0.053-0.024,0.125-0.065,0.206-0.109c-0.092,0.133-0.194,0.301-0.348,0.37
						c-0.032,0.014-0.293,0.105-0.21-0.007C356.275,292.919,356.387,292.86,356.53,292.794z"/>
					<path id="XMLID_9366_" style="fill:#455A64;" d="M351.279,290.2c-0.002,0.026,0.017,0.049,0.041,0.057
						c0.323,0.101,0.619-0.276,0.732-0.649c0.117-0.031,0.37-0.052,0.414,0.132c0.001,0.002-0.066,0.164-0.069,0.193
						c-0.005,0.037,0.029,0.058,0.06,0.064c0.175,0.033,0.732-0.207,0.642,0.099c-0.007,0.025-0.002,0.053,0.02,0.068
						c0.145,0.099,0.462-0.07,0.508,0.152c0.02,0.099-0.196,0.202-0.079,0.349c0.091,0.114,0.251,0.036,0.357,0.002
						c0.066-0.021,0.128-0.093,0.199-0.068c0.098,0.034-0.016,0.073,0.034,0.106c0.02,0.013,0.044,0.082,0.081,0.105
						c0.05,0.029,0.108,0.003,0.163,0.003c0.042,0,0.074-0.061,0.114-0.063c0.06-0.003,0.173,0.044,0.219,0.06
						c0.031,0.01,0.311,0.141,0.28,0.087c0.047,0.082-0.141,0.232-0.046,0.36c0.13,0.175,0.567-0.01,0.697-0.02
						c0.063-0.005,0.115-0.139,0.033-0.137c0.007,0-0.32,0.044-0.326,0.041c-0.283-0.121-0.207-0.207-0.155-0.347
						c0.015-0.042-0.002-0.088-0.053-0.084c-0.188,0.016-0.32-0.175-0.464-0.172c-0.049,0.001-0.203,0.088-0.23,0.086
						c-0.224-0.014-0.116-0.068-0.121-0.223c-0.001-0.04-0.045-0.062-0.08-0.049c-0.127,0.047-0.458,0.311-0.466-0.001
						c-0.001-0.041,0.139-0.127,0.149-0.192c0.022-0.144-0.047-0.182-0.177-0.211c-0.095-0.021-0.188,0.024-0.278,0.038
						c-0.354,0.057-0.056,0.008-0.176-0.093c-0.118-0.099-0.135-0.111-0.33-0.103c-0.057,0.003-0.175,0.036-0.224,0.023
						c-0.193-0.051-0.064,0.002-0.073-0.126c-0.006-0.087,0.072-0.15,0.04-0.247c-0.053-0.163-0.156-0.158-0.315-0.128
						c-0.085,0.016-0.191,0.052-0.304,0.103c0.032-0.257-0.045-0.469-0.29-0.462c-0.065,0.002-0.127,0.121-0.04,0.132
						c0.182,0.024,0.176,0.238,0.126,0.434C351.589,289.697,351.301,289.952,351.279,290.2z M351.589,289.966
						c0.017-0.05,0.119-0.144,0.227-0.224c-0.016,0.038-0.031,0.069-0.042,0.088C351.743,289.882,351.526,290.152,351.589,289.966z"
						/>
				</g>
				<g id="XMLID_9175_">
					<path id="XMLID_9182_" style="fill:#455A64;" d="M355.353,296.57c0.205-0.107,0.511-0.406,0.694-0.715
						c0.117-0.05,0.227-0.084,0.304-0.073c0.397,0.056,0.062,0.208,0.019,0.36c-0.015,0.052,0.023,0.094,0.077,0.085
						c0.277-0.044,0.944-0.209,0.763,0.241c-0.012,0.029,0.003,0.072,0.036,0.08c0.084,0.019,0.463,0.079,0.421,0.173
						c-0.017,0.037,0.015,0.085,0.056,0.083c0.294-0.015,0.585-0.001,0.877,0.016c0.047,0.003,0.38,0.022,0.4,0.047
						c0.088,0.106-0.056,0.33-0.096,0.404c-0.021,0.039-0.013,0.079,0.028,0.098c0.149,0.069,0.264,0.157,0.165,0.317
						c-0.02,0.033-0.016,0.087,0.027,0.099c0.377,0.104,1.048-0.206,1.154,0.244c0.065,0.276,0.028,0.339,0.366,0.31
						c0.06-0.005,0.107-0.123,0.027-0.125c-0.361-0.007-0.095-0.413-0.3-0.554c-0.23-0.159-0.701,0.128-0.927-0.013
						c-0.16-0.101,0.036-0.157-0.092-0.318c-0.034-0.042-0.127-0.032-0.15-0.064c-0.035-0.049-0.054-0.058-0.064-0.056
						c0.006-0.013,0.013-0.042,0.021-0.102c0.009-0.073,0.045-0.067,0.054-0.112c0.088-0.418-0.584-0.317-0.855-0.339
						c-0.099-0.008-0.442,0.026-0.493-0.003c-0.015-0.009,0.003-0.101-0.023-0.117c-0.058-0.036-0.391-0.148-0.398-0.163
						c-0.015-0.033,0.088-0.155,0.043-0.243c-0.109-0.212-0.576-0.099-0.747-0.093c-0.079,0.003-0.116,0.008-0.129,0.01
						c0.024-0.005,0.107-0.032,0.115-0.117c0.005-0.055,0.036-0.087,0.014-0.16c-0.04-0.133-0.137-0.137-0.251-0.147
						c-0.113-0.01-0.235,0.019-0.356,0.066c0.057-0.135,0.083-0.267,0.056-0.378c-0.099-0.411-0.561-0.111-0.803-0.017
						c-0.056,0.022-0.074,0.138,0.006,0.115c0.142-0.042,0.396-0.18,0.527-0.155c0.219,0.041,0.054,0.368-0.071,0.569
						c-0.096,0.05-0.187,0.1-0.268,0.136c-0.198,0.089-0.429,0.165-0.554,0.355C354.824,296.616,355.091,296.707,355.353,296.57z
						 M355.5,296.136c0.053-0.024,0.125-0.065,0.206-0.109c-0.092,0.133-0.194,0.301-0.348,0.37
						c-0.032,0.014-0.293,0.104-0.21-0.007C355.245,296.261,355.358,296.202,355.5,296.136z"/>
					<path id="XMLID_9178_" style="fill:#455A64;" d="M351.115,293.848c-0.002,0.026,0.017,0.049,0.041,0.057
						c0.323,0.101,0.619-0.276,0.732-0.649c0.117-0.031,0.37-0.052,0.414,0.133c0.001,0.002-0.066,0.164-0.069,0.193
						c-0.005,0.037,0.029,0.058,0.06,0.064c0.175,0.033,0.732-0.207,0.642,0.099c-0.007,0.025-0.002,0.053,0.02,0.068
						c0.145,0.099,0.462-0.069,0.508,0.152c0.02,0.099-0.196,0.202-0.079,0.35c0.091,0.114,0.251,0.036,0.357,0.002
						c0.066-0.021,0.128-0.093,0.199-0.068c0.098,0.034-0.016,0.073,0.034,0.106c0.02,0.013,0.043,0.082,0.081,0.105
						c0.05,0.029,0.108,0.003,0.163,0.003c0.041,0,0.074-0.061,0.114-0.063c0.06-0.003,0.173,0.044,0.219,0.06
						c0.031,0.01,0.311,0.141,0.281,0.087c0.047,0.082-0.141,0.232-0.046,0.36c0.129,0.175,0.567-0.01,0.697-0.02
						c0.063-0.005,0.115-0.139,0.033-0.137c0.007,0-0.32,0.044-0.326,0.041c-0.283-0.121-0.207-0.207-0.155-0.347
						c0.015-0.042-0.002-0.088-0.053-0.084c-0.188,0.016-0.32-0.175-0.464-0.172c-0.049,0.001-0.203,0.088-0.23,0.086
						c-0.224-0.014-0.116-0.068-0.121-0.223c-0.001-0.039-0.045-0.062-0.08-0.049c-0.127,0.047-0.458,0.311-0.466-0.001
						c-0.001-0.041,0.139-0.127,0.148-0.192c0.022-0.144-0.047-0.182-0.177-0.211c-0.095-0.021-0.188,0.024-0.278,0.038
						c-0.354,0.057-0.055,0.008-0.176-0.093c-0.118-0.099-0.135-0.111-0.33-0.103c-0.057,0.003-0.175,0.036-0.224,0.023
						c-0.193-0.051-0.064,0.002-0.073-0.126c-0.006-0.087,0.072-0.15,0.04-0.247c-0.053-0.163-0.156-0.158-0.315-0.128
						c-0.085,0.016-0.191,0.052-0.304,0.103c0.032-0.257-0.045-0.469-0.29-0.461c-0.065,0.002-0.127,0.121-0.04,0.132
						c0.182,0.024,0.176,0.238,0.126,0.434C351.425,293.345,351.137,293.6,351.115,293.848z M351.425,293.614
						c0.017-0.05,0.119-0.144,0.227-0.224c-0.016,0.038-0.031,0.069-0.042,0.088C351.579,293.53,351.363,293.8,351.425,293.614z"/>
					<path id="XMLID_9176_" style="fill:#455A64;" d="M347.969,290.717c0.039,0.152-0.008,0.252-0.025,0.395
						c-0.005,0.037,0.029,0.058,0.06,0.064c0.175,0.033,0.732-0.207,0.642,0.099c-0.007,0.025-0.002,0.053,0.02,0.068
						c0.145,0.099,0.462-0.069,0.508,0.152c0.02,0.099-0.196,0.202-0.079,0.349c0.091,0.114,0.251,0.036,0.357,0.002
						c0.066-0.021,0.128-0.093,0.199-0.068c0.098,0.034-0.016,0.073,0.034,0.106c0.02,0.013,0.043,0.082,0.081,0.105
						c0.05,0.029,0.108,0.003,0.163,0.003c0.042,0,0.074-0.061,0.114-0.063c0.06-0.003,0.173,0.044,0.219,0.06
						c0.031,0.011,0.311,0.141,0.281,0.087c0.047,0.082-0.141,0.232-0.046,0.36c0.129,0.175,0.567-0.01,0.697-0.02
						c0.063-0.005,0.115-0.139,0.033-0.136c0.007,0-0.32,0.044-0.326,0.041c-0.283-0.121-0.207-0.207-0.155-0.347
						c0.015-0.042-0.002-0.088-0.053-0.084c-0.188,0.016-0.32-0.176-0.464-0.172c-0.049,0.001-0.203,0.088-0.23,0.086
						c-0.224-0.014-0.116-0.068-0.121-0.223c-0.001-0.039-0.045-0.062-0.08-0.049c-0.127,0.047-0.458,0.311-0.466-0.001
						c-0.001-0.041,0.139-0.127,0.149-0.192c0.021-0.144-0.047-0.181-0.177-0.211c-0.095-0.021-0.188,0.024-0.278,0.039
						c-0.354,0.057-0.055,0.008-0.176-0.093c-0.118-0.099-0.135-0.111-0.33-0.103c-0.057,0.003-0.176,0.036-0.224,0.023
						c-0.193-0.051-0.065,0.002-0.073-0.126c-0.006-0.087,0.072-0.15,0.04-0.247c-0.038-0.117-0.259-0.26-0.311-0.069
						c-0.007,0.025-0.006,0.049-0.002,0.074C347.952,290.658,347.961,290.688,347.969,290.717z"/>
				</g>
			</g>
		</g>
		<path id="XMLID_9166_" style="fill:#B16668;" d="M361.272,275.958c0.076-1.691,0.864-1.505,2.23-1.946
			c0.865-0.279,1.729-0.559,2.593-0.841c2.368-0.772,4.733-1.552,7.094-2.346c3.025-1.017,6.047-2.047,9.042-3.15
			c1.537-0.567,3.677-1.047,4.967-2.12c2.155-1.793,8.111-16.479,8.84-17.614c1.959-3.05,6.25-25.174,6.25-25.174
			c-3.952-0.928-7.941,2.412-9.987,6.734c-2.021,4.267-10.877,26.268-10.877,26.268c-3.306,1.695-6.61,3.395-9.912,5.098
			c-3.293,1.698-6.587,3.393-9.873,5.105c-2.851,1.485-6.211,2.649-8.409,5.034c-1.312,1.424-2.658,2.902-3.304,4.728
			c-0.613,1.732-0.53,3.686,0.155,5.39c0.685,1.705,1.956,3.155,3.517,4.125c0.554,0.345,1.22,0.639,1.843,0.445
			c0.122-0.038,0.244-0.098,0.322-0.2c0.095-0.124,0.113-0.289,0.124-0.444c0.089-1.254-0.023-2.514,0.011-3.771
			c0.03-1.086,0.119-4.025,1.703-3.781"/>
		<g id="Pencil_1_">
			<g id="XMLID_8405_">
				<g id="XMLID_8406_">
					<path id="XMLID_8644_" style="fill:#FFA8A7;" d="M356.492,287.749l3.233,4.602c0.094,0.134,0.304,0.072,0.311-0.091
						l0.235-5.652L356.492,287.749z"/>
					<path id="XMLID_8562_" style="fill:#F28F8F;" d="M360.03,292.288c0.002-0.01,0.005-0.018,0.006-0.029l0.235-5.652l-1.999,0.604
						l0.196,0.666l1.372,4.353L360.03,292.288z"/>
					<path id="XMLID_8454_" style="fill:#263238;" d="M360.036,292.259c-0.007,0.163-0.217,0.225-0.311,0.091l-0.631-0.898l0,0
						c0.347,0.074,0.707-0.052,0.931-0.327l0.061-0.075L360.036,292.259z"/>
					<path id="XMLID_8453_" style="fill:#455A64;" d="M353.597,263.842l0.146,0.5l0.179,0.602l6.349,21.664
						c-0.268,0.574-0.794,0.979-1.378,1.214c-0.889,0.361-1.916,0.333-2.398-0.073l-6.345-21.651l-0.337-1.152
						C350.072,265.679,353.847,264.581,353.597,263.842z"/>
					<path id="XMLID_9073_" style="fill:#37474F;" d="M353.596,263.842l0.147,0.5l0.179,0.602l6.349,21.663
						c-0.394,0.725-1.003,1.151-1.778,1.348l-6.851-22.87c-0.071,0.019-0.097-0.001-0.085-0.05
						C352.616,264.781,353.737,264.256,353.596,263.842z"/>
					<path id="XMLID_8452_" style="fill:#EBEBEB;" d="M354.16,265.742l0.325,1.116c0.105,0.32-0.524,0.729-1.298,1.033
						c-1.028,0.407-2.355,0.481-2.495,0.057l-0.241-0.822l-0.081-0.296c0.14,0.424,1.467,0.351,2.495-0.056
						c0.742-0.292,1.352-0.684,1.302-0.997l-0.001-0.003C354.167,265.763,354.165,265.753,354.16,265.742z"/>
					<path id="XMLID_8410_" style="fill:#37474F;" d="M354.239,266.021c0.245,0.744-3.546,1.833-3.791,1.089l-0.329-1.116
						c0.245,0.744,4.036-0.345,3.79-1.089L354.239,266.021z"/>
					<path id="XMLID_8409_" style="fill:#EBEBEB;" d="M353.597,263.842l0.325,1.102c0.246,0.728-3.403,1.81-3.772,1.154
						c-0.008-0.01-0.013-0.025-0.019-0.04l-0.319-1.112C350.072,265.679,353.847,264.581,353.597,263.842z"/>
					<path id="XMLID_9075_" style="fill:#FFA8A7;" d="M359.925,292.411c0.05-0.019,0.093-0.06,0.106-0.118
						C360.018,292.351,359.976,292.393,359.925,292.411z"/>
					<path id="XMLID_8407_" style="fill:#F28F8F;" d="M352.221,259.166l1.376,4.676c0.107,0.316-0.513,0.725-1.28,1.03
						c-1.027,0.41-2.358,0.493-2.505,0.073c-0.002-0.001-0.002-0.001-0.003-0.005l-1.379-4.692c-0.271-0.934,1.556-1.718,2.8-1.657
						C351.696,258.611,352.073,258.783,352.221,259.166z"/>
				</g>
			</g>
			<path id="XMLID_8404_" style="opacity:0.1;" d="M351.494,260.287c-0.835,0.52-2.04,0.659-2.691,0.312
				c-0.239-0.128-0.369-0.303-0.398-0.5c-0.05-0.867,1.648-1.566,2.825-1.508c0.457,0.019,0.827,0.186,0.98,0.554
				C352.311,259.498,352.061,259.935,351.494,260.287z"/>
		</g>
		<g id="XMLID_9313_">
			<g id="XMLID_9361_">
				<g id="XMLID_9362_">
					<path id="XMLID_9363_" style="fill:#27DEBF;" d="M395.911,251.467c-0.503,4.662-2.258,24.073-2.258,24.073
						c10.043,8.099,32.451,6.316,36.529-0.199c-3.007-6.999-4.434-14.034-4.434-14.034l2.988-13.047c0,0-7.142-6.504,0.001-19.793
						l-9.445-2.826l-17.005-2.873c0,0-6.265,8.983-8.142,13.788C392.936,239.653,390.542,245.145,395.911,251.467z"/>
				</g>
			</g>
			<path id="XMLID_8362_" style="opacity:0.15;" d="M427.13,266.726c-0.103-0.355-0.201-0.698-0.292-1.027
				c-0.733-2.634-1.089-4.393-1.089-4.393l2.988-13.047c0,0-0.003-0.002-0.003-0.003c-0.002-0.002-0.013-0.012-0.03-0.029
				c-0.007-0.006-0.008-0.008-0.017-0.017c-0.056-0.055-0.16-0.162-0.298-0.322c-0.004-0.005-0.008-0.009-0.012-0.013
				c-0.945-1.091-3.384-4.543-2.685-10.419c0-0.001,0-0.001,0-0.001l0-0.001c0,0-2.056,7.502,0.611,11.409l-2.518,11.307
				l-3.644,5.301l4.418-1.734c0,0,1.611,6.233,1.744,8.291c0.103,1.591-3.651,6.853-11.684,8.871
				c7.177-0.318,13.565-2.368,15.562-5.556c0-0.001,0.001-0.001,0.001-0.001C428.867,272.279,427.854,269.21,427.13,266.726z"/>
			<path id="XMLID_1609_" style="fill:#B16668;" d="M427.644,228.139c0,0,4.72,0.818,6.885,5.091
				c1.298,2.561,5.559,9.247,8.2,13.749c1.435,2.447,2.462,4.208,2.462,4.208s16.131-8.553,17.039-9.671
				c0.908-1.118,0.853-3.392,0.988-4.612c0.225-2.042-0.521-3.797-0.628-4.534c-0.226-1.565,2.029-1.204,2.743-0.582
				c0.515,0.449,0.802,1.096,1.156,1.68c0.354,0.584,1.008,2.484,1.68,2.605c0.524,0.095,1.567-0.654,1.992-0.975
				c1.772-1.338,2.867-3.199,4.229-4.895c0.273-0.34,0.568-0.696,0.978-0.846c0.667-0.243,1.388,0.133,1.983,0.519
				c0.547,0.355,1.095,0.744,1.447,1.293c0.251,0.391,0.389,0.842,0.493,1.295c0.709,3.087-0.858,5.698-2.732,8.034
				c-1.846,2.301-4.135,4.231-6.599,5.839c-1.471,0.96-3.411,1.814-5.073,2.718c-1.662,0.904-19.805,16.081-22.336,14.357
				c-1.033-0.704-5.052-4.447-8.118-8.181c-3.575-4.354-5.698-6.975-5.698-6.975C421.761,242.069,427.644,228.139,427.644,228.139z"
				/>
			<path id="XMLID_8355_" style="fill:#263238;" d="M419.963,215.631l-0.289,11.601c-0.152,6.123,4.77,11.169,10.895,11.169h0.292
				v-11.877C430.86,220.505,425.982,215.631,419.963,215.631z"/>
			<g id="XMLID_9314_">
				<g id="XMLID_9356_">
					<path id="XMLID_9359_" style="fill:#263238;" d="M409.343,218.255l6.192,0.169c8.624,0.235,15.807-6.566,16.041-15.191l0,0
						c0.281-10.334-7.868-18.94-18.203-19.222l0,0c-10.335-0.281-18.94,7.868-19.222,18.203l0,0
						C393.917,210.838,400.718,218.02,409.343,218.255z"/>
					<path id="XMLID_9358_" style="fill:#263238;" d="M428.531,194.135l4.65-1.628c-0.415-1.324-1.793-2.034-3.077-1.584
						C428.82,191.373,428.116,192.811,428.531,194.135z"/>
					<path id="XMLID_9357_" style="fill:#263238;" d="M428.579,192.939l1.434-4.713c-1.314-0.448-2.7,0.245-3.096,1.547
						C426.521,191.074,427.265,192.492,428.579,192.939z"/>
				</g>
				<g id="XMLID_9315_">
					<g id="XMLID_9354_">
						<path id="XMLID_9355_" style="fill:#B16668;" d="M401.614,192.079c-2.008,1.114-4.586,6.019-4.629,16.447
							c-0.036,8.838,2.767,11.098,4.188,11.766c1.421,0.668,4.203,0.361,6.911-0.015l-0.048,3.66c0,0-4.859,5.317-4.691,7.754
							c0.168,2.437,6.217,3.701,9.768,1.421c3.55-2.28,6.622-6.769,6.622-6.769l0.262-12.25c0,0,1.544,1.584,4.298-0.695
							c2.273-1.881,3.111-5.134,1.428-6.938c-1.682-1.804-4.894-1.413-6.188,1.059c0,0-4.303,0.04-9.942-3.26
							C403.954,200.96,401.901,195.514,401.614,192.079z"/>
					</g>
					<g id="XMLID_9352_">
						<path id="XMLID_9353_" style="fill:#263238;" d="M405.795,206.098c-0.05,0.635,0.407,1.188,1.018,1.234
							c0.612,0.046,1.148-0.432,1.197-1.068c0.049-0.636-0.407-1.188-1.019-1.234C406.38,204.984,405.845,205.462,405.795,206.098z"
							/>
					</g>
					<g id="XMLID_9350_">
						<path id="XMLID_9351_" style="fill:#9A4A4D;" d="M406.406,214.055l-2.602,0.753c0.194,0.744,0.934,1.179,1.652,0.971
							C406.175,215.571,406.6,214.799,406.406,214.055z"/>
					</g>
					<g id="XMLID_9348_">
						<path id="XMLID_9349_" style="fill:#263238;" d="M397.893,202.192l2.29-1.497c-0.393-0.653-1.224-0.847-1.856-0.434
							C397.694,200.675,397.5,201.539,397.893,202.192z"/>
					</g>
					<g id="XMLID_9320_">
						<path id="XMLID_9321_" style="fill:#263238;" d="M397.828,204.943c-0.049,0.636,0.407,1.188,1.019,1.234
							c0.612,0.046,1.148-0.433,1.197-1.068c0.05-0.636-0.407-1.188-1.018-1.234C398.414,203.83,397.878,204.308,397.828,204.943z"
							/>
					</g>
					<g id="XMLID_9318_">
						<polygon id="XMLID_9319_" style="fill:#9A4A4D;" points="402.934,204.817 402.803,212.057 399.314,210.871 						"/>
					</g>
					<g id="XMLID_9316_">
						<path id="XMLID_9317_" style="fill:#9A4A4D;" d="M408.083,220.277c2.85-0.295,8.74-1.815,9.714-4.101
							c0,0-0.343,1.444-2.129,2.893c-1.787,1.448-7.633,2.976-7.633,2.976L408.083,220.277z"/>
					</g>
				</g>
			</g>
		</g>
		<path id="XMLID_8356_" style="fill:#B16668;" d="M357.597,277.499c-0.042,0.875-0.283,2.29-0.248,3.166
			c0.036,0.875,0.277,1.784,0.891,2.409c0.378,0.384,0.978,0.641,1.455,0.39c0.403-0.213,0.565-0.698,0.68-1.139
			c0.532-2.047,0.838-4.128,0.896-6.242c0.001-0.033-0.001-0.093,0-0.125"/>
	</g>
</g>
<g id="Board">
	<g id="XMLID_9580_">
		<g id="XMLID_9628_">
			<polygon id="XMLID_9639_" style="fill:#37474F;" points="125.094,310.048 125.094,308.045 89.499,328.636 91.197,329.637 			"/>
			<g id="XMLID_9636_">
				<path id="XMLID_9638_" style="fill:#37474F;" d="M86.711,181.509c0.18,0.104,0.272,0.313,0.226,0.516L57.447,312.947
					l-0.843,3.714c-0.426,0.025-0.851-0.058-1.177-0.234c-0.008-0.008-0.017-0.008-0.025-0.017l-1.976-1.143
					c-0.18-0.104-0.271-0.313-0.226-0.516l30.275-134.398c0.071-0.313,0.424-0.468,0.701-0.307L86.711,181.509z"/>
				<path id="XMLID_9637_" style="fill:#455A64;" d="M90.411,179.723L59.985,314.753c-0.049,0.215-0.185,0.401-0.376,0.512
					l-1.978,1.145c-0.283,0.167-0.651,0.25-1.026,0.25l0.843-3.714l29.567-131.263L90.411,179.723z"/>
			</g>
			<g id="XMLID_9633_">
				<path id="XMLID_9635_" style="fill:#37474F;" d="M87.807,354.7v3.906c-0.401,0-0.793-0.083-1.093-0.25
					c-0.008-0.008-0.017-0.008-0.025-0.017l-1.836-1.06c-0.3-0.175-0.442-0.409-0.442-0.634l-0.008-117.251l3.397,1.961
					L87.807,354.7z"/>
				<path id="XMLID_9634_" style="fill:#455A64;" d="M91.204,239.401l-0.008,117.201v0.083c-0.008,0.217-0.167,0.426-0.451,0.592
					l-1.828,1.06c-0.3,0.184-0.709,0.267-1.11,0.267V354.7l-0.008-113.345L91.204,239.401z"/>
			</g>
			<g id="XMLID_9630_">
				<path id="XMLID_9632_" style="fill:#37474F;" d="M131.812,333.202c-0.234,0-0.653-0.077-1.056-0.308l-1.889-1.093
					c-0.243-0.14-0.412-0.379-0.465-0.654l-20.223-105.482l3.397,1.961l19.511,101.779L131.812,333.202z"/>
				<path id="XMLID_9631_" style="fill:#455A64;" d="M135.2,331.224c0,0.008,0,0.008,0,0.017c0,0.234-0.159,0.459-0.467,0.643
					l-1.728,1.001l-0.083,0.05c-0.309,0.175-0.709,0.267-1.11,0.267l-0.726-3.797l-19.511-101.779l3.405-1.953l20.187,105.401
					c0,0.008,0.008,0.017,0.008,0.025L135.2,331.224z"/>
			</g>
			<polygon id="XMLID_9629_" style="fill:#455A64;" points="90.03,334.211 128.484,312.009 128.484,308.095 90.03,330.297 			"/>
		</g>
		<g id="XMLID_9581_">
			<g id="XMLID_9624_">
				<path id="XMLID_9627_" style="fill:#27DEBF;" d="M47.262,270.15v1.411c0,0.691,0.485,1.532,1.084,1.878l11.391,6.577
					c0.599,0.346,1.569,0.346,2.168,0l75.762-43.682c0.599-0.346,1.084-1.186,1.084-1.878v-1.411c0-0.691-0.485-1.532-1.084-1.878
					l-11.391-6.577c-0.599-0.346-1.569-0.346-2.168,0l-75.762,43.682C47.747,268.618,47.262,269.459,47.262,270.15z"/>
				<path id="XMLID_9626_" style="opacity:0.4;fill:#FFFFFF;" d="M48.346,269.524l11.391,6.577c0.599,0.346,1.569,0.346,2.168,0
					l75.762-43.682c0.599-0.346,0.599-0.906,0-1.252l-11.391-6.577c-0.599-0.346-1.569-0.346-2.168,0l-75.762,43.682
					C47.747,268.618,47.747,269.178,48.346,269.524z"/>
				<path id="XMLID_9625_" style="opacity:0.1;" d="M60.818,276.362v3.914c-0.392,0-0.785-0.092-1.077-0.259l-11.391-6.576
					c-0.601-0.35-1.085-1.193-1.085-1.878v-1.41c0-0.609,0.367-1.327,0.868-1.728c-0.376,0.342-0.3,0.801,0.217,1.102l11.391,6.576
					C60.033,276.271,60.433,276.362,60.818,276.362z"/>
			</g>
			<g id="XMLID_9620_">
				<path id="XMLID_9623_" style="fill:#E0E0E0;" d="M55.623,273.726l-3.167-1.828c-0.998-0.576-1.861-1.976-1.927-3.126
					l-6.537-113.263c-0.066-1.15,0.689-2.55,1.687-3.126l74.317-42.848c0.998-0.576,2.616-0.576,3.614,0l3.169,1.829
					c0.998,0.576,1.861,1.975,1.927,3.126l6.538,113.263c0.067,1.15-0.689,2.55-1.686,3.126l-74.32,42.848
					C58.238,274.302,56.62,274.302,55.623,273.726z"/>
				<path id="XMLID_9622_" style="fill:#FAFAFA;" d="M128.659,114.178c-0.192-0.918-0.976-1.243-1.886-0.726l-74.318,42.847
					c-0.501,0.292-0.943,0.793-1.243,1.36l-6.785-3.914c0.309-0.568,0.751-1.068,1.252-1.36l74.318-42.847
					c0.993-0.576,2.612-0.576,3.605-0.008l3.188,1.836C127.7,111.9,128.484,113.102,128.659,114.178z"/>
				<path id="XMLID_9621_" style="fill:#F0F0F0;" d="M50.771,159.423l6.538,113.263c0.066,1.15,0.929,1.616,1.927,1.04l74.32-42.848
					c0.998-0.576,1.753-1.976,1.686-3.126l-6.538-113.263c-0.066-1.15-0.929-1.616-1.927-1.04l-74.319,42.848
					C51.46,156.874,50.705,158.273,50.771,159.423z"/>
				<g id="XMLID_9447_">
					<g id="XMLID_9660_">
						<path id="XMLID_9662_" style="fill:#455A64;" d="M63.17,171.806c1.118-0.649,2.025-0.126,2.026,1.169
							c0.001,1.295-0.909,2.87-2.031,3.518c-1.122,0.648-2.029,0.124-2.026-1.169C61.142,174.03,62.052,172.455,63.17,171.806z"/>
						<path id="XMLID_9661_" style="fill:#455A64;" d="M71.424,167.034l40.352-23.297c1.196-0.69,2.165-0.2,2.165,1.095
							c0,1.295-0.97,2.905-2.165,3.595l-40.363,23.304c-1.196,0.69-2.162,0.198-2.159-1.099
							C69.256,169.336,70.228,167.725,71.424,167.034z"/>
					</g>
					<g id="XMLID_9657_">
						<path id="XMLID_9659_" style="fill:#455A64;" d="M63.855,182.668c1.118-0.649,2.025-0.126,2.026,1.169
							c0.001,1.295-0.909,2.87-2.031,3.518c-1.122,0.648-2.029,0.124-2.026-1.169C61.827,184.893,62.737,183.318,63.855,182.668z"/>
						<path id="XMLID_9658_" style="fill:#455A64;" d="M72.108,177.897l40.352-23.297c1.196-0.69,2.165-0.2,2.165,1.095
							c0,1.295-0.97,2.905-2.165,3.595l-40.363,23.304c-1.196,0.69-2.162,0.199-2.159-1.099
							C69.941,180.198,70.913,178.587,72.108,177.897z"/>
					</g>
					<g id="XMLID_9654_">
						<path id="XMLID_9656_" style="fill:#455A64;" d="M64.54,193.531c1.118-0.649,2.025-0.126,2.026,1.169
							c0.001,1.295-0.909,2.87-2.031,3.518s-2.029,0.124-2.026-1.169C62.512,195.755,63.422,194.18,64.54,193.531z"/>
						<path id="XMLID_9655_" style="fill:#455A64;" d="M72.794,188.759l40.352-23.297c1.196-0.69,2.165-0.2,2.165,1.095
							c0,1.295-0.97,2.905-2.166,3.595l-40.363,23.304c-1.196,0.69-2.162,0.199-2.159-1.099
							C70.626,191.06,71.598,189.449,72.794,188.759z"/>
					</g>
					<g id="XMLID_9651_">
						<path id="XMLID_9653_" style="fill:#455A64;" d="M65.225,204.393c1.118-0.649,2.025-0.126,2.026,1.169
							c0,1.295-0.909,2.87-2.031,3.518s-2.029,0.124-2.026-1.169C63.197,206.617,64.107,205.042,65.225,204.393z"/>
						<path id="XMLID_9652_" style="fill:#455A64;" d="M73.479,199.621l40.352-23.297c1.196-0.69,2.165-0.2,2.165,1.095
							c0,1.295-0.97,2.905-2.165,3.595l-40.363,23.304c-1.196,0.69-2.163,0.199-2.159-1.099
							C71.311,201.923,72.283,200.312,73.479,199.621z"/>
					</g>
					<g id="XMLID_9603_">
						<path id="XMLID_9605_" style="fill:#455A64;" d="M65.91,215.255c1.118-0.649,2.025-0.126,2.026,1.169
							c0,1.295-0.909,2.87-2.031,3.518s-2.029,0.124-2.026-1.169C63.882,217.48,64.792,215.904,65.91,215.255z"/>
						<path id="XMLID_9604_" style="fill:#455A64;" d="M74.163,210.484l40.352-23.297c1.196-0.69,2.165-0.2,2.165,1.095
							c0,1.295-0.97,2.905-2.165,3.595l-40.363,23.304c-1.196,0.69-2.162,0.199-2.159-1.099S72.968,211.174,74.163,210.484z"/>
					</g>
					<g id="XMLID_9565_">
						<path id="XMLID_9602_" style="fill:#455A64;" d="M66.595,226.118c1.118-0.649,2.025-0.126,2.026,1.169
							c0.001,1.295-0.909,2.87-2.031,3.518s-2.029,0.124-2.026-1.169C64.567,228.342,65.477,226.767,66.595,226.118z"/>
						<path id="XMLID_9566_" style="fill:#455A64;" d="M74.849,221.346l40.352-23.297c1.196-0.69,2.165-0.2,2.165,1.095
							c0,1.295-0.97,2.905-2.166,3.595l-40.363,23.304c-1.196,0.69-2.162,0.198-2.159-1.099
							C72.681,223.647,73.653,222.036,74.849,221.346z"/>
					</g>
				</g>
			</g>
		</g>
		<g id="XMLID_9616_">
			<path id="XMLID_9619_" style="fill:#263238;" d="M111.533,123.041l0,6.076c0,0.484-0.34,1.072-0.759,1.314l-39.161,22.609
				c-0.419,0.242-1.099,0.242-1.518,0l-1.872-1.081c-0.419-0.242-0.759-0.83-0.758-1.314l0.001-3.038l-6.782-3.911l-3.384,1.954
				l-0.005-6.952c0-0.484,0.339-1.072,0.758-1.314l39.161-22.61c0.419-0.242,1.099-0.242,1.518,0l12.041,6.952
				C111.193,121.969,111.533,122.558,111.533,123.041z"/>
			<path id="XMLID_9618_" style="fill:#37474F;" d="M111.533,123.043v6.075c0,0.484-0.342,1.068-0.759,1.31l-39.156,22.616
				c-0.217,0.117-0.484,0.175-0.759,0.175V145.4c0.275,0,0.551-0.067,0.759-0.184l39.156-22.616
				c0.367-0.209,0.409-0.542,0.133-0.776C111.266,122.1,111.533,122.609,111.533,123.043z"/>
			<path id="XMLID_9617_" style="fill:#455A64;" d="M58.054,138.261l12.044,6.952c0.419,0.242,1.099,0.242,1.518,0l39.159-22.609
				c0.419-0.242,0.419-0.634,0-0.876l-12.041-6.952c-0.419-0.242-1.098-0.242-1.518,0l-39.161,22.61
				C57.635,137.626,57.635,138.019,58.054,138.261z"/>
		</g>
		<g id="XMLID_9445_">
			<path id="XMLID_9544_" style="fill:#455A64;" d="M130.571,231.887l0.015-0.009c-0.052-0.098-0.117-0.182-0.176-0.272
				c-0.019-0.027-0.029-0.058-0.049-0.085c-0.008-0.012-0.019-0.022-0.028-0.034c-0.059-0.081-0.125-0.156-0.191-0.229
				c-0.056-0.062-0.113-0.121-0.174-0.179c-0.051-0.047-0.102-0.093-0.157-0.136c-0.28-0.228-0.599-0.403-0.957-0.474
				l-19.538,11.309l-0.543,0.317l-0.451,0.26l-4.216,2.446c-0.337,0.234-0.415,0.641-0.323,1.098
				c0.236,1.223,1.431,2.812,2.275,2.327l4.231-2.453c0.003-0.002,0.003-0.002,0.004-0.004c0.042-0.027,0.071-0.072,0.095-0.123
				c-0.021,0.052-0.051,0.095-0.095,0.123l1.039-0.601l19.527-11.301C131.098,233.387,130.959,232.594,130.571,231.887z
				 M108.472,242.323c0.003,0,0.007,0.002,0.01,0.003c-0.004,0-0.009-0.002-0.014-0.002
				C108.47,242.324,108.47,242.323,108.472,242.323z"/>
			<path id="XMLID_9160_" style="fill:#37474F;" d="M105.368,245.241c0.703,0.688,1.125,1.826,0.941,2.54
				c-0.067,0.262-0.207,0.43-0.391,0.505c-0.83,0.254-1.912-1.229-2.135-2.387c-0.09-0.448-0.015-0.848,0.306-1.084
				C104.408,244.635,104.892,244.775,105.368,245.241z"/>
		</g>
	</g>
</g>
<g id="Character_1">
	<g id="Character_1_">
		<g id="XMLID_31_">
			<path id="XMLID_32_" style="fill:#27DEBF;" d="M199.658,163.822h-22.557c-7.437,0-13.466-6.029-13.466-13.466v-7.194
				c0-9.134,7.405-16.539,16.539-16.539h2.945c9.134,0,16.539,7.405,16.539,16.539V163.822z"/>
		</g>
		<g id="XMLID_33_" style="opacity:0.45;">
			<path id="XMLID_34_" d="M199.658,163.822h-22.557c-7.437,0-13.466-6.029-13.466-13.466v-7.194
				c0-9.134,7.405-16.539,16.539-16.539h2.945c9.134,0,16.539,7.405,16.539,16.539V163.822z"/>
		</g>
		<g id="XMLID_24_">
			<path id="XMLID_30_" style="fill:#263238;" d="M170.884,339.759v-1.158c0.457,1.359,2.575,7.206,5.788,10.136
				c2.554,2.33,6.038,5.021,6.924,7.618c0.922,2.701-4.849,3.609-7.235,3.186c-2.773-0.491-6.36-2.064-8.313-4.463
				c-1.373-1.687-2.247-3.686-3.227-5.012c-0.98-1.326-3.24-2.807-3.77-4.342c-0.291-0.843,0.055-2.69,0.464-4.251
				c0.375-1.432,0.782-3.006,1.271-2.872c0.001,0.175,0,0.883,0,0.883c0.588,0.651,2.214,1.298,4.048,1.368
				C168.02,340.898,170.894,340.663,170.884,339.759z"/>
			<path id="XMLID_29_" style="fill:#FFA8A7;" d="M178.984,350.786c-0.792-0.707-1.589-1.398-2.312-2.057
				c-2.245-2.048-3.956-5.52-4.938-7.889c-0.561-1.353-0.85-2.797-0.85-4.261v-4.615h-8.097v7.512v0v0.001v0.2l0.041,0.021
				c0.39,1.683,4.105,6.159,6.217,9.077c1.415,1.957,4.104,4.446,7.317,4.875C179.406,354.056,180.963,353.095,178.984,350.786z"/>
			<path id="XMLID_28_" style="fill:#263238;" d="M199.466,331.777v-1.158c0.456,1.358,2.575,7.206,5.788,10.136
				c2.554,2.33,6.038,5.02,6.925,7.617c0.922,2.701-4.849,3.609-7.235,3.186c-2.773-0.491-6.36-2.064-8.312-4.463
				c-1.373-1.687-2.247-3.686-3.227-5.012c-0.98-1.326-3.24-2.807-3.77-4.342c-0.291-0.843,0.055-2.69,0.464-4.251
				c0.375-1.432,0.782-3.006,1.271-2.872c0.001,0.174,0,0.883,0,0.883c0.588,0.651,2.214,1.298,4.048,1.368
				C196.602,332.915,199.476,332.68,199.466,331.777z"/>
			<path id="XMLID_27_" style="fill:#FFA8A7;" d="M207.566,342.804c-0.792-0.707-1.589-1.398-2.312-2.057
				c-2.245-2.048-3.956-5.52-4.938-7.889c-0.561-1.353-0.85-2.797-0.85-4.261v-4.615h-8.098v7.512v0v0.001v0.2l0.041,0.021
				c0.39,1.683,4.106,6.159,6.217,9.077c1.415,1.957,4.104,4.446,7.317,4.875C207.989,346.073,209.545,345.113,207.566,342.804z"/>
			<path id="XMLID_26_" style="fill:#27DEBF;" d="M164.398,213.916c-6.278,13.711,0.227,62.01,0.227,62.01
				c-0.189,2.225-2.733,6.603-3.681,16.396c-1.12,11.571,1.757,40.624,1.757,40.624s3.749,2.452,8.183,0.325
				c0,0,7.717-43.757,9.168-55.261c1.266-10.04,3.697-32.116,3.697-32.116l3.906,32.062c0,0-1.773,5.624-2.188,9.909
				c-0.655,6.767,5.901,38.273,5.901,38.273s2.794,1.025,8.098,0.244c0,0,2.319-41.81,2.93-49.962
				c1.027-13.69,0.393-56.406-2.118-64.51L164.398,213.916z"/>
			<path id="XMLID_25_" style="opacity:0.1;" d="M183.75,245.893l2.038-12.735c0,0,8.622-1.786,12.533-5.462
				c0,0-4.103,5.103-10.196,6.775l-2.289,9.805l1.56,31.543L183.75,245.893z"/>
		</g>
		<g id="XMLID_1_">
			<path id="XMLID_23_" style="fill:#FFA8A7;" d="M188.871,165.908c0,0,6.08-0.892,10.302,4.616
				c3.242,4.23,15.644,20.379,15.644,20.379s18.28-9.148,19.179-10.232c0.899-1.085,0.393-3.277,0.146-4.485
				c-0.248-1.207-0.657-3.888-0.925-4.641c-0.47-1.314,1.475-0.96,2.621,0.269c1.173,1.259,1.655,3.631,2.227,4.044
				c0.571,0.413,4.92-4.59,7.032-7.003c2.111-2.414,3.101-4.103,4.515-3.107c1.019,0.718,0.365,2.151-1.148,4.219
				c-1.513,2.068-1.734,2.291-1.954,2.739c-0.181,0.37,0.377,0.666,0.598,0.864c0.409,0.367,1.137,0.967,1.189,1.54
				c0.028,0.313-0.029,0.635,0.057,0.937c0.197,0.688,1.049,1.011,1.289,1.685c0.174,0.488-0.018,1.034,0.08,1.543
				c0.063,0.328,0.244,0.624,0.303,0.953c0.115,0.645-0.255,1.275-0.677,1.776c-1.483,1.764-3.51,2.439-5.453,3.515
				c-1.616,0.894-3.284,1.286-5.145,2.113c-1.861,0.827-23.457,15.797-26.873,13.911c-3.417-1.886-21.064-22.413-21.064-22.413
				C185.723,170.695,188.871,165.908,188.871,165.908z"/>
			<path id="XMLID_22_" style="fill:#455A64;" d="M175.471,166.282L175.471,166.282c-8.048,0.554-8.613,4.44-10.627,8.691
				c-1.533,3.236-1.551,6.989-0.38,10.373l5.608,16.225c0,0-2.626,6.347-5.675,12.345c14.074,7.855,31.649,3.726,35.881-2.006
				c0.179-1.216-0.909-10.722-1.578-16.931c2.479-6.218,3.133-10.16,2.087-14.27c-1.941-7.63-9.478-15.063-12.813-14.792
				L175.471,166.282z"/>
			<g id="XMLID_5_">
				<path id="XMLID_21_" style="fill:#27DEBF;" d="M163.263,132.406l2.437,3.915c-1.08,0.722-2.501,0.431-3.174-0.65
					C161.853,134.589,162.183,133.128,163.263,132.406z"/>
				<path id="XMLID_20_" style="fill:#27DEBF;" d="M160.594,136.869l4.566-0.644c0.223,1.28-0.618,2.462-1.879,2.639
					C162.021,139.043,160.818,138.149,160.594,136.869z"/>
				<path style="opacity:0.45;" d="M165.7,136.321l-2.437-3.915c-1.08,0.722-1.41,2.184-0.737,3.265
					c0.225,0.361,0.537,0.625,0.887,0.801l-2.819,0.397c0.223,1.28,1.426,2.173,2.688,1.996c1.145-0.161,1.935-1.153,1.905-2.292
					C165.363,136.509,165.536,136.43,165.7,136.321z"/>
				<g id="XMLID_18_">
					<path id="XMLID_19_" style="fill:#FFA8A7;" d="M193.741,133.907c1.903,1.124,4.254,5.91,4.022,15.941
						c-0.197,8.502-2.953,10.602-4.336,11.207c-1.384,0.605-4.052,0.237-6.647-0.195v5.102c0,0,3.586,4.165,3.36,6.505
						c-0.226,2.34-5.177,2.893-8.533,0.607c-3.355-2.286-5.506-5.765-5.506-5.765v-12.334c0,0-1.751,2.339-4.616,0.436
						c-2.865-1.903-2.974-6.611-1.308-8.302c1.665-1.691,5.255-1.155,5.924,1.181c0,0,4.137,0.151,9.647-2.876
						C191.258,142.388,193.375,137.204,193.741,133.907z"/>
				</g>
				<g id="XMLID_16_">
					<path id="XMLID_17_" style="fill:#263238;" d="M187.319,147.712c0.031,0.613-0.422,1.132-1.012,1.16
						c-0.59,0.028-1.093-0.446-1.124-1.059c-0.031-0.613,0.422-1.132,1.012-1.16C186.785,146.626,187.288,147.099,187.319,147.712z"
						/>
				</g>
				<g id="XMLID_14_">
					<path id="XMLID_15_" style="fill:#F28F8F;" d="M188.556,154.919l2.483,0.792c-0.206,0.711-0.929,1.109-1.615,0.891
						C188.739,156.383,188.35,155.63,188.556,154.919z"/>
				</g>
				<g id="XMLID_12_">
					<path id="XMLID_13_" style="fill:#263238;" d="M196.085,144.429l-2.163-1.499c0.395-0.618,1.199-0.783,1.797-0.369
						C196.315,142.975,196.479,143.812,196.085,144.429z"/>
				</g>
				<g id="XMLID_10_">
					<path id="XMLID_11_" style="fill:#263238;" d="M195.586,146.939c0.031,0.613-0.422,1.132-1.012,1.16
						c-0.59,0.028-1.093-0.446-1.124-1.058c-0.031-0.613,0.422-1.132,1.012-1.16C195.052,145.852,195.555,146.326,195.586,146.939z"
						/>
				</g>
				<g id="XMLID_8_">
					<polygon id="XMLID_9_" style="fill:#F28F8F;" points="190.364,146.327 190.534,152.763 193.921,151.714 					"/>
				</g>
				<g id="XMLID_6_">
					<path id="XMLID_7_" style="fill:#F28F8F;" d="M186.78,160.86c-2.734-0.359-8.359-1.975-9.236-4.198
						c0,0,0.292,1.397,1.972,2.838c1.68,1.44,7.263,3.063,7.263,3.063V160.86z"/>
				</g>
			</g>
			<path id="XMLID_4_" style="fill:#37474F;" d="M179.07,215.438c-4.623-1.095-7.556-5.771-6.335-10.362
				c0.046-0.174,0.094-0.324,0.144-0.443c0.905-2.176,2.85-1.89,2.85-1.89l0,0c-1.824-1.21-3.091-3.097-3.518-5.244l-1.712-10.169
				c0,0-0.381-2.248,0.435-4.932l-5.657-6.543c0,0-0.406,0.283-1.045,0.727c-0.882,2.834-0.75,5.927,0.231,8.765l5.608,16.225
				c0,0-3.313,5.834-5.675,12.344c10.373,5.789,22.64,5.066,30.073,1.992C188.599,216.819,183.159,216.406,179.07,215.438z"/>
			<g id="XMLID_2_">
				<path id="XMLID_3_" style="fill:#FFA8A7;" d="M149.993,206.669c7.307-29.869,12.711-39.83,21.587-39.714
					c2.591,3.098,1.875,12.454-2.22,18.132c0,0-9.131,19.264-10.588,26.112c-1.28,6.016-2.73,13.586-2.638,18.757
					c0.016,0.916,0.394,1.787,1.015,2.46c1.667,1.807,1.674,3.263,2.754,5.261c0.846,1.565,1.771,2.15,1.507,2.502
					c-0.339,0.452-1.41,1.043-2.741,0.202c-0.67-0.423-1.105-0.919-2.077-1.993c0,0,0.265,2.423,1.647,5.541
					c1.874,4.226,1.418,6.382-4.287,4.877c-3.575-0.943-5.819-3.921-6.354-12.512c-0.154-2.475-0.388-6.38-0.094-9.509
					C148.266,218.639,148.816,211.477,149.993,206.669z"/>
			</g>
		</g>
	</g>
</g>
<g id="Speach_Bubbles">
	<g id="XMLID_9541_">
		<g id="XMLID_9159_">
			<g id="XMLID_9601_">
				<g id="XMLID_9606_">
					<g id="XMLID_9611_">
						<path id="XMLID_9613_" style="fill:#27DEBF;" d="M426.241,172.63l3.933-2.272c0.078-0.035,0.142-0.085,0.185-0.163
							l0.724-1.264l-2.335-1.349l0.071,0.206L426.241,172.63z"/>
						<path id="XMLID_9612_" style="opacity:0.2;" d="M426.241,172.63l3.933-2.272c0.078-0.035,0.142-0.085,0.185-0.163l0.724-1.264
							l-2.335-1.349l0.071,0.206L426.241,172.63z"/>
					</g>
					<path id="XMLID_9610_" style="fill:#27DEBF;" d="M429.102,167.775l-2.722,4.715c-0.174,0.301-0.622,0.259-0.736-0.07
						l-2.877-8.304L429.102,167.775z"/>
					<path id="XMLID_9609_" style="fill:#27DEBF;" d="M396.819,136.076c0-1.213,0.852-2.688,1.902-3.294l1.549-0.894
						c1.05-0.607,2.753-0.607,3.804,0l36.564,21.119c1.051,0.607,1.902,2.081,1.902,3.294v10.866c0,1.213-0.852,2.688-1.902,3.294
						l-1.549,0.894c-1.051,0.607-2.754,0.607-3.804,0l-36.741-21.248c-1.709-0.974-1.724-1.952-1.724-3.165L396.819,136.076z"/>
					<path id="XMLID_9608_" style="opacity:0.2;" d="M442.539,167.167c0,1.213-0.852,2.688-1.902,3.294l-1.549,0.894
						c-0.95,0.548-2.427,0.602-3.479,0.16c0.895,0.339,1.577-0.173,1.577-1.258l0-10.866c0-0.607-0.213-1.278-0.557-1.875
						l5.353-3.09c0.344,0.596,0.557,1.268,0.557,1.874V167.167z"/>
					<path id="XMLID_9607_" style="opacity:0.4;fill:#FFFFFF;" d="M396.881,135.536c0.222-0.808,0.958-1.065,1.837-0.559
						l36.568,21.122c0.523,0.302,1.003,0.816,1.34,1.42l5.35-3.088c-0.346-0.603-0.816-1.118-1.34-1.42l-36.559-21.122
						c-1.056-0.603-2.76-0.603-3.807,0l-1.553,0.896C397.822,133.3,397.068,134.453,396.881,135.536z"/>
				</g>
			</g>
			<g id="XMLID_9074_">
				<path id="XMLID_9436_" style="fill:#FAFAFA;" d="M432.095,159.104c0,0.724-0.542,0.998-1.21,0.612l-17.684-10.229
					c-0.668-0.386-1.21-1.285-1.21-2.009c0-0.724,0.542-0.998,1.21-0.612l17.684,10.229
					C431.553,157.48,432.095,158.38,432.095,159.104z"/>
				<path id="XMLID_8365_" style="fill:#FAFAFA;" d="M432.095,164.942c0,0.724-0.542,0.998-1.21,0.612l-27.267-15.794
					c-0.668-0.386-1.21-1.285-1.21-2.009c0-0.724,0.542-0.998,1.21-0.612l27.267,15.794
					C431.553,163.319,432.095,164.218,432.095,164.942z"/>
			</g>
		</g>
		<g id="XMLID_9161_">
			<g id="XMLID_9435_">
				<g id="XMLID_9437_">
					<g id="XMLID_9442_">
						<path id="XMLID_9444_" style="fill:#27DEBF;" d="M426.241,136.617l3.933-2.272c0.078-0.035,0.142-0.085,0.185-0.163
							l0.724-1.264l-2.335-1.349l0.071,0.206L426.241,136.617z"/>
						<path id="XMLID_9443_" style="opacity:0.2;" d="M426.241,136.617l3.933-2.272c0.078-0.035,0.142-0.085,0.185-0.163
							l0.724-1.264l-2.335-1.349l0.071,0.206L426.241,136.617z"/>
					</g>
					<path id="XMLID_9441_" style="fill:#27DEBF;" d="M429.102,131.762l-2.722,4.715c-0.174,0.301-0.622,0.259-0.736-0.07
						l-2.877-8.304L429.102,131.762z"/>
					<path id="XMLID_9440_" style="fill:#27DEBF;" d="M396.819,100.064c0-1.213,0.852-2.688,1.902-3.295l1.549-0.894
						c1.05-0.606,2.753-0.606,3.804,0l36.564,21.119c1.051,0.607,1.902,2.081,1.902,3.294v10.866c0,1.213-0.852,2.688-1.902,3.295
						l-1.549,0.894c-1.051,0.607-2.754,0.607-3.804,0l-36.741-21.248c-1.709-0.974-1.724-1.952-1.724-3.165L396.819,100.064z"/>
					<path id="XMLID_9439_" style="opacity:0.2;" d="M442.539,131.154c0,1.213-0.852,2.688-1.902,3.295l-1.549,0.894
						c-0.95,0.548-2.427,0.602-3.479,0.16c0.895,0.339,1.577-0.173,1.577-1.258l0-10.866c0-0.607-0.213-1.278-0.557-1.875
						l5.353-3.09c0.344,0.596,0.557,1.268,0.557,1.874V131.154z"/>
					<path id="XMLID_9438_" style="opacity:0.4;fill:#FFFFFF;" d="M396.881,99.523c0.222-0.808,0.958-1.065,1.837-0.559
						l36.568,21.122c0.523,0.302,1.003,0.816,1.34,1.42l5.35-3.088c-0.346-0.603-0.816-1.118-1.34-1.42l-36.559-21.122
						c-1.056-0.603-2.76-0.603-3.807,0l-1.553,0.896C397.822,97.287,397.068,98.44,396.881,99.523z"/>
				</g>
			</g>
			<g id="XMLID_9162_">
				<path id="XMLID_9164_" style="fill:#FAFAFA;" d="M432.095,123.091c0,0.724-0.542,0.998-1.21,0.612l-17.684-10.229
					c-0.668-0.386-1.21-1.285-1.21-2.009s0.542-0.998,1.21-0.612l17.684,10.229C431.553,121.468,432.095,122.367,432.095,123.091z"
					/>
				<path id="XMLID_9163_" style="fill:#FAFAFA;" d="M432.095,128.929c0,0.724-0.542,0.998-1.21,0.612l-27.267-15.794
					c-0.668-0.386-1.21-1.285-1.21-2.009s0.542-0.998,1.21-0.612l27.267,15.794C431.553,127.306,432.095,128.206,432.095,128.929z"
					/>
			</g>
		</g>
	</g>
	<g id="XMLID_9539_">
		<g id="XMLID_8357_">
			<g id="XMLID_8368_">
				<g id="XMLID_8369_">
					<g id="XMLID_8400_">
						<path id="XMLID_8403_" style="fill:#27DEBF;" d="M178.816,113.485l-3.933-2.272c-0.078-0.035-0.142-0.085-0.185-0.163
							l-0.724-1.264l2.335-1.349l-0.071,0.206L178.816,113.485z"/>
						<path id="XMLID_8401_" style="fill:#263238;" d="M178.816,113.485l-3.933-2.272c-0.078-0.035-0.142-0.085-0.185-0.163
							l-0.724-1.264l2.335-1.349l-0.071,0.206L178.816,113.485z"/>
					</g>
					<path id="XMLID_8399_" style="fill:#37474F;" d="M175.954,108.63l2.722,4.715c0.174,0.301,0.622,0.259,0.735-0.07l2.877-8.304
						L175.954,108.63z"/>
					<path id="XMLID_8372_" style="fill:#37474F;" d="M208.237,76.932c0-1.213-0.851-2.688-1.902-3.295l-1.549-0.894
						c-1.05-0.607-2.754-0.607-3.804,0l-36.564,21.119c-1.05,0.607-1.902,2.081-1.902,3.295v10.866c0,1.213,0.852,2.688,1.902,3.294
						l1.549,0.894c1.051,0.606,2.754,0.606,3.804,0l36.741-21.248c1.709-0.974,1.724-1.952,1.724-3.165L208.237,76.932z"/>
					<path id="XMLID_8371_" style="fill:#263238;" d="M162.517,108.023c0,1.213,0.852,2.688,1.902,3.294l1.549,0.894
						c0.949,0.548,2.427,0.602,3.479,0.16c-0.895,0.339-1.577-0.173-1.577-1.258l0-10.866c0-0.607,0.213-1.279,0.557-1.875
						l-5.353-3.09c-0.344,0.596-0.557,1.268-0.557,1.874V108.023z"/>
					<path id="XMLID_8370_" style="fill:#455A64;" d="M208.175,76.391c-0.222-0.807-0.958-1.065-1.837-0.559L169.77,96.954
						c-0.523,0.302-1.003,0.816-1.34,1.42l-5.351-3.088c0.346-0.603,0.816-1.118,1.34-1.42l36.559-21.122
						c1.056-0.603,2.76-0.603,3.807,0l1.553,0.896C207.235,74.155,207.989,75.309,208.175,76.391z"/>
				</g>
			</g>
			<path id="XMLID_8367_" style="fill:#F0F0F0;" d="M180.529,95.116c0,0.623,0.466,0.859,1.041,0.527l20.51-11.861
				c0.575-0.332,1.041-1.106,1.041-1.729c0-0.623-0.466-0.859-1.041-0.527l-20.51,11.861
				C180.995,93.719,180.529,94.493,180.529,95.116z"/>
			<path id="XMLID_8366_" style="fill:#F0F0F0;" d="M172.281,105.957c0,0.623,0.466,0.859,1.041,0.527l28.758-16.651
				c0.575-0.332,1.041-1.106,1.041-1.729s-0.466-0.859-1.041-0.527l-28.758,16.651C172.747,104.56,172.281,105.335,172.281,105.957z
				"/>
		</g>
		<g id="XMLID_9119_">
			<g id="XMLID_9139_">
				<g id="XMLID_9140_">
					<g id="XMLID_9156_">
						<path id="XMLID_9158_" style="fill:#27DEBF;" d="M178.816,78.115l-3.933-2.272c-0.078-0.035-0.142-0.085-0.185-0.163
							l-0.724-1.264l2.335-1.349l-0.071,0.206L178.816,78.115z"/>
						<path id="XMLID_9157_" style="fill:#263238;" d="M178.816,78.115l-3.933-2.272c-0.078-0.035-0.142-0.085-0.185-0.163
							l-0.724-1.264l2.335-1.349l-0.071,0.206L178.816,78.115z"/>
					</g>
					<path id="XMLID_9155_" style="fill:#37474F;" d="M175.954,73.26l2.722,4.714c0.174,0.302,0.622,0.259,0.735-0.07l2.877-8.304
						L175.954,73.26z"/>
					<path id="XMLID_9154_" style="fill:#37474F;" d="M208.237,41.562c0-1.213-0.851-2.688-1.902-3.295l-1.549-0.894
						c-1.05-0.606-2.754-0.606-3.804,0l-36.564,21.119c-1.05,0.607-1.902,2.081-1.902,3.294v10.866c0,1.213,0.852,2.688,1.902,3.295
						l1.549,0.894c1.051,0.607,2.754,0.607,3.804,0l36.741-21.248c1.709-0.974,1.724-1.952,1.724-3.165L208.237,41.562z"/>
					<path id="XMLID_9142_" style="fill:#263238;" d="M162.517,72.652c0,1.213,0.852,2.688,1.902,3.295l1.549,0.894
						c0.949,0.548,2.427,0.602,3.479,0.16c-0.895,0.339-1.577-0.173-1.577-1.258l0-10.866c0-0.607,0.213-1.278,0.557-1.875
						l-5.353-3.09c-0.344,0.596-0.557,1.268-0.557,1.875V72.652z"/>
					<path id="XMLID_9141_" style="fill:#455A64;" d="M208.175,41.021c-0.222-0.807-0.958-1.065-1.837-0.559L169.77,61.584
						c-0.523,0.302-1.003,0.816-1.34,1.42l-5.351-3.088c0.346-0.603,0.816-1.118,1.34-1.42l36.559-21.122
						c1.056-0.603,2.76-0.603,3.807,0l1.553,0.896C207.235,38.785,207.989,39.938,208.175,41.021z"/>
				</g>
			</g>
			<path id="XMLID_9137_" style="fill:#F0F0F0;" d="M180.529,59.746c0,0.623,0.466,0.859,1.041,0.527l20.51-11.861
				c0.575-0.332,1.041-1.106,1.041-1.729c0-0.623-0.466-0.859-1.041-0.527l-20.51,11.861
				C180.995,58.348,180.529,59.123,180.529,59.746z"/>
			<path id="XMLID_9120_" style="fill:#F0F0F0;" d="M172.281,70.587c0,0.623,0.466,0.859,1.041,0.527l28.758-16.651
				c0.575-0.332,1.041-1.106,1.041-1.729c0-0.623-0.466-0.859-1.041-0.527l-28.758,16.651
				C172.747,69.19,172.281,69.964,172.281,70.587z"/>
		</g>
	</g>
	<g id="XMLID_9446_">
		<g id="XMLID_8563_">
			<g id="XMLID_8564_">
				<g id="XMLID_8569_">
					<path id="XMLID_8571_" style="fill:#27DEBF;" d="M355.576,141.834l3.933-2.272c0.078-0.036,0.142-0.085,0.184-0.163
						l0.724-1.264l-2.336-1.349l0.071,0.206L355.576,141.834z"/>
					<path id="XMLID_8570_" style="fill:#E0E0E0;" d="M355.576,141.834l3.933-2.272c0.078-0.036,0.142-0.085,0.184-0.163
						l0.724-1.264l-2.336-1.349l0.071,0.206L355.576,141.834z"/>
				</g>
				<path id="XMLID_8568_" style="fill:#EBEBEB;" d="M358.438,136.979l-2.722,4.714c-0.174,0.301-0.622,0.259-0.736-0.07
					l-2.877-8.304L358.438,136.979z"/>
				<path id="XMLID_8567_" style="fill:#E6E6E6;" d="M326.154,105.281c0-1.213,0.851-2.688,1.902-3.294l1.549-0.894
					c1.05-0.606,2.753-0.606,3.804,0l36.564,21.119c1.051,0.607,1.902,2.081,1.902,3.295v10.866c0,1.213-0.852,2.688-1.902,3.295
					l-1.549,0.894c-1.05,0.607-2.754,0.607-3.804,0l-36.741-21.248c-1.709-0.974-1.724-1.952-1.724-3.165L326.154,105.281z"/>
				<path id="XMLID_8408_" style="fill:#FFFFFF;" d="M353.863,123.465c0,0.623-0.466,0.859-1.041,0.527l-20.51-11.861
					c-0.575-0.332-1.041-1.106-1.041-1.729s0.466-0.859,1.041-0.527l20.51,11.861C353.397,122.068,353.863,122.842,353.863,123.465z
					"/>
				<path id="XMLID_8402_" style="fill:#FFFFFF;" d="M362.111,134.306c0,0.623-0.466,0.859-1.041,0.527l-28.758-16.651
					c-0.575-0.332-1.041-1.106-1.041-1.729s0.466-0.859,1.041-0.527l28.758,16.651C361.645,132.909,362.111,133.684,362.111,134.306
					z"/>
				<path id="XMLID_8566_" style="fill:#E0E0E0;" d="M371.875,136.372c0,1.213-0.852,2.688-1.902,3.295l-1.549,0.894
					c-0.949,0.548-2.427,0.602-3.479,0.16c0.895,0.339,1.577-0.173,1.577-1.258l0-10.866c0-0.607-0.213-1.279-0.557-1.875
					l5.353-3.09c0.344,0.596,0.557,1.268,0.557,1.874V136.372z"/>
				<path id="XMLID_8565_" style="fill:#F0F0F0;" d="M326.217,104.74c0.222-0.807,0.958-1.065,1.837-0.559l36.568,21.122
					c0.523,0.302,1.003,0.816,1.34,1.42l5.351-3.088c-0.346-0.603-0.816-1.118-1.34-1.42l-36.559-21.122
					c-1.056-0.603-2.76-0.603-3.807,0l-1.553,0.896C327.157,102.504,326.403,103.658,326.217,104.74z"/>
			</g>
		</g>
		<g id="XMLID_8572_">
			<g id="XMLID_8573_">
				<g id="XMLID_8958_">
					<path id="XMLID_8961_" style="fill:#27DEBF;" d="M355.576,106.885l3.933-2.272c0.078-0.035,0.142-0.085,0.184-0.163
						l0.724-1.264l-2.336-1.349l0.071,0.206L355.576,106.885z"/>
					<path id="XMLID_8959_" style="fill:#E0E0E0;" d="M355.576,106.885l3.933-2.272c0.078-0.035,0.142-0.085,0.184-0.163
						l0.724-1.264l-2.336-1.349l0.071,0.206L355.576,106.885z"/>
				</g>
				<path id="XMLID_8957_" style="fill:#EBEBEB;" d="M358.438,102.031l-2.722,4.715c-0.174,0.301-0.622,0.259-0.736-0.07
					l-2.877-8.304L358.438,102.031z"/>
				<path id="XMLID_8956_" style="fill:#E6E6E6;" d="M326.154,70.332c0-1.213,0.851-2.688,1.902-3.295l1.549-0.894
					c1.05-0.606,2.753-0.606,3.804,0l36.564,21.119c1.051,0.607,1.902,2.081,1.902,3.294v10.866c0,1.213-0.852,2.688-1.902,3.295
					l-1.549,0.894c-1.05,0.606-2.754,0.606-3.804,0l-36.741-21.248c-1.709-0.974-1.724-1.952-1.724-3.165L326.154,70.332z"/>
				<path id="XMLID_8955_" style="fill:#FFFFFF;" d="M353.863,88.516c0,0.623-0.466,0.859-1.041,0.527l-20.51-11.861
					c-0.575-0.332-1.041-1.106-1.041-1.729s0.466-0.859,1.041-0.527l20.51,11.861C353.397,87.119,353.863,87.893,353.863,88.516z"/>
				<path id="XMLID_8954_" style="fill:#FFFFFF;" d="M362.111,99.358c0,0.623-0.466,0.859-1.041,0.527l-28.758-16.651
					c-0.575-0.332-1.041-1.106-1.041-1.729c0-0.623,0.466-0.859,1.041-0.527l28.758,16.65
					C361.645,97.961,362.111,98.735,362.111,99.358z"/>
				<path id="XMLID_8953_" style="fill:#E0E0E0;" d="M371.875,101.423c0,1.213-0.852,2.688-1.902,3.295l-1.549,0.894
					c-0.949,0.548-2.427,0.602-3.479,0.16c0.895,0.338,1.577-0.173,1.577-1.258l0-10.866c0-0.607-0.213-1.279-0.557-1.875
					l5.353-3.09c0.344,0.596,0.557,1.268,0.557,1.874V101.423z"/>
				<path id="XMLID_8645_" style="fill:#F0F0F0;" d="M326.217,69.792c0.222-0.808,0.958-1.065,1.837-0.559l36.568,21.122
					c0.523,0.302,1.003,0.816,1.34,1.42l5.351-3.088c-0.346-0.603-0.816-1.118-1.34-1.42l-36.559-21.122
					c-1.056-0.603-2.76-0.603-3.807,0l-1.553,0.896C327.157,67.556,326.403,68.709,326.217,69.792z"/>
			</g>
		</g>
		<g id="XMLID_8962_">
			<g id="XMLID_8963_">
				<g id="XMLID_9015_">
					<path id="XMLID_9072_" style="fill:#27DEBF;" d="M355.576,71.937l3.933-2.272c0.078-0.035,0.142-0.085,0.184-0.163l0.724-1.264
						l-2.336-1.349l0.071,0.206L355.576,71.937z"/>
					<path id="XMLID_9016_" style="fill:#E0E0E0;" d="M355.576,71.937l3.933-2.272c0.078-0.035,0.142-0.085,0.184-0.163l0.724-1.264
						l-2.336-1.349l0.071,0.206L355.576,71.937z"/>
				</g>
				<path id="XMLID_9014_" style="fill:#EBEBEB;" d="M358.438,67.082l-2.722,4.715c-0.174,0.301-0.622,0.259-0.736-0.07
					l-2.877-8.304L358.438,67.082z"/>
				<path id="XMLID_9013_" style="fill:#E6E6E6;" d="M326.154,35.383c0-1.213,0.851-2.688,1.902-3.294l1.549-0.894
					c1.05-0.607,2.753-0.607,3.804,0l36.564,21.119c1.051,0.607,1.902,2.081,1.902,3.294v10.866c0,1.213-0.852,2.688-1.902,3.295
					l-1.549,0.894c-1.05,0.606-2.754,0.606-3.804,0l-36.741-21.248c-1.709-0.974-1.724-1.952-1.724-3.165L326.154,35.383z"/>
				<path id="XMLID_9012_" style="fill:#FFFFFF;" d="M353.863,53.568c0,0.623-0.466,0.859-1.041,0.527l-20.51-11.861
					c-0.575-0.332-1.041-1.106-1.041-1.729c0-0.623,0.466-0.859,1.041-0.527l20.51,11.861
					C353.397,52.171,353.863,52.945,353.863,53.568z"/>
				<path id="XMLID_9006_" style="fill:#FFFFFF;" d="M362.111,64.409c0,0.623-0.466,0.859-1.041,0.527l-28.758-16.651
					c-0.575-0.332-1.041-1.106-1.041-1.729c0-0.623,0.466-0.859,1.041-0.527L361.07,62.68
					C361.645,63.012,362.111,63.786,362.111,64.409z"/>
				<path id="XMLID_9005_" style="fill:#E0E0E0;" d="M371.875,66.474c0,1.213-0.852,2.688-1.902,3.295l-1.549,0.894
					c-0.949,0.548-2.427,0.602-3.479,0.16c0.895,0.338,1.577-0.173,1.577-1.258l0-10.866c0-0.606-0.213-1.278-0.557-1.875
					l5.353-3.09c0.344,0.596,0.557,1.268,0.557,1.875V66.474z"/>
				<path id="XMLID_8968_" style="fill:#F0F0F0;" d="M326.217,34.843c0.222-0.807,0.958-1.065,1.837-0.559l36.568,21.122
					c0.523,0.302,1.003,0.816,1.34,1.42l5.351-3.088c-0.346-0.603-0.816-1.118-1.34-1.42l-36.559-21.122
					c-1.056-0.603-2.76-0.603-3.807,0l-1.553,0.896C327.157,32.607,326.403,33.76,326.217,34.843z"/>
			</g>
		</g>
	</g>
</g>
</svg>
